<?xml version="1.0" encoding="UTF-8"?>
<svg width="514px" height="90px" viewBox="0 0 514 90" version="1.1" xmlns="http://www.w3.org/2000/svg" xmlns:xlink="http://www.w3.org/1999/xlink">
    <title>monterosa_monterosalogos_textblack</title>
    <defs>
        <linearGradient x1="-2.22044605e-14%" y1="32.6989619%" x2="100%" y2="67.3010381%" id="linearGradient-1">
            <stop stop-color="#FF596C" offset="0%"></stop>
            <stop stop-color="#BA19D9" offset="100%"></stop>
        </linearGradient>
    </defs>
    <g id="Logos" stroke="none" stroke-width="1" fill="none" fill-rule="evenodd">
        <g id="Logos/Monterosa-Logos/Text-Black">
            <path d="M465.20552,0.00478348105 C460.745881,-0.115999415 456.649039,2.15615408 454.47828,5.98293892 L454.47828,5.98293892 L437.483439,36.8363917 L420.488597,6.10252594 C418.317838,2.27693698 414.09926,0.00478348105 409.761357,0.124370507 L409.761357,0.124370507 C405.422248,-0.115999415 401.203671,2.15615408 399.034117,5.98293892 L399.034117,5.98293892 L362.513287,72.1145644 C359.258956,77.9743287 361.429715,85.2691372 367.334519,88.4991828 L367.334519,88.4991828 C369.177435,89.5061056 371.161371,89.9892372 373.116381,90 L373.116381,90 L373.242938,90 C377.509728,89.9784743 381.630676,87.7075167 383.847237,83.7145059 L383.847237,83.7145059 L409.640826,36.7168046 L426.754993,67.8106273 C427.840975,69.8436067 429.529612,71.5166292 431.57743,72.5929125 L431.57743,72.5929125 C437.483439,75.8229581 444.835817,73.6691957 448.090148,67.8106273 L448.090148,67.8106273 L465.20552,36.7168046 L491.11964,83.5961148 C493.289194,87.5412907 497.387241,89.9330313 501.84688,89.9330313 L501.84688,89.9330313 C503.894699,90.0526183 506.065458,89.455879 507.874625,88.3795958 L507.874625,88.3795958 C511.760538,86.2904104 513.960225,82.312946 514,78.1871936 L514,78.1871936 L514,77.9623699 C513.98192,76.0190808 513.482923,74.0494825 512.45359,72.2353473 L512.45359,72.2353473 L475.932761,5.98293892 C473.817445,2.25301957 469.756763,0 465.534569,0 L465.534569,0 C465.424886,0 465.315203,0.00119587026 465.20552,0.00478348105" id="M" fill="url(#linearGradient-1)" fill-rule="nonzero"></path>
            <path d="M362.203567,31.9248664 C372.881299,31.9248664 379,37.8704482 379,48.1842126 L379,73.786616 L369.761962,73.786616 L369.761962,70.6318174 C369.761962,69.6611102 369.761962,68.690403 369.881936,67.7196957 L369.761962,67.7196957 C369.881936,67.7196957 366.641424,75 357.404586,75 C350.206114,75 343.607516,70.3891406 343.607516,62.2594675 C343.96384,49.2859653 361.017523,48.3237639 367.643599,48.3058172 L369.162089,48.305551 L369.162089,47.698859 C369.162089,42.3599692 365.802802,40.4185547 361.363745,40.4185547 C355.604968,40.4185547 350.206114,44.3013837 350.206114,44.3013837 L346.36693,37.0210794 C351.044736,33.7449425 356.564764,31.9248664 362.203567,31.9248664 Z M87.7017367,32.0454768 C100.059113,32.0454768 110.016998,41.0257321 110.016998,53.5235878 C110.016998,66.0214434 100.059113,74.999272 87.8217112,74.999272 C75.5843098,74.999272 65.5064498,66.1415684 65.5064498,53.5235878 C65.5064498,40.9043937 75.3443608,32.0454768 87.7017367,32.0454768 Z M283.859003,32.0454768 C296.217579,32.0454768 306.175464,41.0257321 306.175464,53.5235878 C306.175464,66.0214434 296.217579,74.999272 283.980177,74.999272 C271.742776,74.999272 261.663716,66.1415684 261.663716,53.5235878 C261.663716,40.9043937 271.622801,32.0454768 283.859003,32.0454768 Z M326.211929,32.1677859 C335.328794,32.1677859 339.767851,36.7786453 339.767851,36.7786453 L336.048641,44.3016264 C333.289227,41.9961967 329.689991,40.7828126 326.090755,40.7828126 C323.451316,40.7828126 320.931851,41.8748583 320.931851,44.4229648 C320.931851,50.2472082 340.608872,49.5179644 340.608872,62.6237254 C340.608872,69.4186761 334.728921,74.8789043 325.130959,74.8789043 C319.372182,74.9990293 313.733379,72.8161514 309.415496,68.8119841 L314.093303,61.7743566 C317.092666,64.5651399 321.051825,66.1425392 325.130959,66.2638776 C328.011547,66.2638776 330.411038,64.9291551 330.411038,62.6237254 C330.411038,56.5568052 310.734016,57.2848356 310.734016,44.1802879 C310.734016,36.5359685 317.452589,32.1677859 326.211929,32.1677859 Z M210.075751,32.0464475 C221.71328,32.0464475 228.071929,40.6614742 228.071929,51.4605922 C228.071929,52.6739763 227.83198,55.3434212 227.83198,55.3434212 L199.877916,55.3434212 C200.477789,62.502387 205.996617,66.1425392 211.995343,66.1425392 C218.473967,66.1425392 223.632872,61.6518048 223.632872,61.6518048 L227.472057,68.9321091 C222.913025,72.8161514 217.154248,74.8789043 211.155521,74.7575659 C197.718375,74.7575659 189.440133,64.9291551 189.440133,53.2806683 C189.440133,40.904151 197.958324,32.0464475 210.075751,32.0464475 Z M175.642943,21.8534148 L175.642943,33.6232401 L184.880981,33.6232401 L184.880981,41.7529132 L175.642943,41.7529132 L175.642943,57.6482441 C175.642943,64.4444082 180.921822,65.413902 183.681236,65.413902 C184.281108,65.413902 184.880981,65.413902 185.480853,65.2925636 L185.480853,74.2716056 C184.401083,74.392944 183.441287,74.5142824 182.361516,74.5142824 C176.722713,74.5142824 165.565083,72.8155447 165.565083,59.104305 L165.565083,41.7529132 L160.286203,41.7529132 L160.286203,33.6232401 L165.805032,33.6232401 L165.805032,21.8534148 L175.642943,21.8534148 Z M257.465328,32.41022 C258.0652,32.41022 258.665073,32.41022 259.264946,32.5315584 L259.264946,42.7239844 C258.426324,42.602646 257.705277,42.602646 256.865455,42.602646 C251.706551,42.602646 247.147519,46.1214597 245.827799,51.2176727 C245.227926,53.401764 244.868003,55.5858553 244.987977,57.891285 L244.987977,74.1506312 L234.910117,74.1506312 L234.910117,33.0169121 L244.628054,33.0169121 L244.628054,40.0545395 C244.628054,41.0252468 244.628054,41.995954 244.508079,42.9666612 L244.628054,42.9666612 C246.427672,37.1424178 251.346627,32.41022 257.465328,32.41022 Z M15.5966881,17 L26.6343442,45.1505098 C26.839634,45.679006 27.0507299,46.2457007 27.2608581,46.8259216 L27.440573,47.3259909 L27.440573,47.3259909 L27.618866,47.8292327 C28.6233737,50.6834027 29.5137328,53.5240731 29.5137328,53.5240731 L29.6337073,53.5240731 C29.6337073,53.5240731 31.1933761,48.5479852 32.3931214,45.1505098 L43.4307775,17 L54.3484592,17 L58.9074911,74.0290501 L48.7096566,74.0290501 L46.3101661,42.1170497 C46.2621763,41.3647516 46.2285834,40.5590646 46.2055483,39.7514362 L46.1917136,39.2132942 C46.1711221,38.3177935 46.1625115,37.4340105 46.1606157,36.6325179 L46.1605801,35.9352984 C46.1640638,34.3691881 46.1901916,33.2593462 46.1901916,33.2593462 L46.0702171,33.2593462 C46.0702171,33.2593462 45.242181,36.010965 44.2920789,38.7842201 L44.1181451,39.288079 C43.7682161,40.2938427 43.4078037,41.2805892 43.070854,42.1170497 L33.9527902,64.2006393 L24.9547009,64.2006393 L15.9566116,42.1170497 C15.6196619,41.2805892 15.2514287,40.2859329 14.8898515,39.2683887 L14.7097932,38.7583356 L14.7097932,38.7583356 L14.5318981,38.2482265 C13.620177,35.6189909 12.837274,33.1380078 12.837274,33.1380078 L12.7172995,33.1380078 L12.7179404,33.1663902 C12.7220819,33.3538779 12.7449586,34.4528745 12.747128,35.9447974 L12.7471181,36.4036434 C12.7458165,37.2645707 12.7370578,38.2286709 12.7142797,39.2096651 L12.7004255,39.7459096 C12.6953177,39.9248705 12.6897069,40.1038714 12.6835539,40.2823935 L12.6634283,40.8160052 C12.6452354,41.2586206 12.6234064,41.6950031 12.597325,42.1170497 L10.1978345,74.0290501 L1.30029321e-12,74.0290501 L4.5590319,17 L15.5966881,17 Z M140.730596,32.0462048 C149.728685,32.0462048 154.767615,36.7784026 154.767615,47.5775206 L154.767615,73.9079544 L144.80973,73.9079544 L144.80973,49.6402735 C144.80973,44.6653989 143.49001,41.2679236 138.331106,41.2679236 C133.292176,41.2679236 128.733144,44.6653989 127.413424,49.6402735 C126.933526,51.4603495 126.693577,53.2804256 126.693577,55.1005017 L126.693577,73.9079544 L116.615717,73.9079544 L116.615717,33.0169121 L126.333653,33.0169121 L126.333653,37.7491098 C126.333653,38.7198171 126.333653,39.5691859 126.213679,40.5398931 L126.333653,40.5398931 C129.093067,35.2010033 134.73187,31.803528 140.730596,32.0462048 Z M369.282064,55.2218401 L367.60242,55.2218401 C362.442316,55.2218401 354.165274,55.9498705 354.165274,61.6527755 C354.044099,64.4435588 356.084866,66.9916653 360.164,66.9916653 C365.441679,66.9916653 369.282064,61.1674219 369.282064,56.1925473 L369.282064,55.2218401 Z M87.7017367,40.7830553 C81.2231124,40.7830553 75.5843098,46.0006067 75.5843098,53.5235878 C75.5843098,61.0453555 81.1031379,66.2641202 87.7017367,66.2641202 C94.180361,66.2641202 99.699189,61.1679072 99.699189,53.5235878 C99.699189,45.8780549 94.180361,40.7830553 87.7017367,40.7830553 Z M283.980177,40.7830553 C277.501553,40.7830553 271.861551,46.0006067 271.861551,53.5235878 C271.861551,61.0453555 277.381578,66.2641202 283.980177,66.2641202 C290.457602,66.2641202 295.97763,61.1679072 295.97763,53.5235878 C295.97763,45.8780549 290.457602,40.7830553 283.980177,40.7830553 Z M209.835802,39.9334438 C204.676897,39.9334438 201.077662,43.0882423 200.117865,48.4271321 L217.874095,48.4271321 C217.75412,42.8455655 214.274859,39.9334438 209.835802,39.9334438 Z" id="Monterosa" fill="#0B0F1C"></path>
        </g>
    </g>
</svg>