<svg id="Layer_1" data-name="Layer 1" xmlns="http://www.w3.org/2000/svg" width="1187.05" height="210.53" viewBox="0 0 1187.05 210.53">
  <defs>
    <style>
      .cls-1 {
        fill: #00c3f7;
      }

      .cls-2 {
        fill: #011b33;
      }
    </style>
  </defs>
  <g>
    <g>
      <rect class="cls-1" y="111.08" width="176.85" height="37.18" rx="9.81"/>
      <rect class="cls-1" y="62.28" width="186.68" height="37.18" rx="9.81"/>
      <rect class="cls-1" y="13.48" width="176.85" height="37.18" rx="9.81"/>
      <rect class="cls-1" y="159.87" width="108.24" height="37.18" rx="9.81"/>
    </g>
    <g>
      <path class="cls-2" d="M337,113.64a26.15,26.15,0,0,1-5.33,8.39,24.17,24.17,0,0,1-18,7.67A25.28,25.28,0,0,1,290,113.64a27.64,27.64,0,0,1-2-10.36,28,28,0,0,1,2-10.38,24.8,24.8,0,0,1,5.4-8.26A26.69,26.69,0,0,1,303.65,79a24.61,24.61,0,0,1,20,0,26.69,26.69,0,0,1,8,5.62A26,26,0,0,1,337,92.9a27.74,27.74,0,0,1,1.9,10.38,27.42,27.42,0,0,1-1.9,10.36m20.38-53.3A52.85,52.85,0,0,0,340,48.55a53.61,53.61,0,0,0-20.78-4.11,45,45,0,0,0-20.11,4.27,37.22,37.22,0,0,0-11.19,8.17V53.75a6.25,6.25,0,0,0-1.68-4.32,5.53,5.53,0,0,0-4.3-1.88H259.65a5.43,5.43,0,0,0-4.3,1.88,6.14,6.14,0,0,0-1.7,4.32V201.26a5.91,5.91,0,0,0,1.72,4.26,5.81,5.81,0,0,0,4.28,1.67h22.72a5.9,5.9,0,0,0,4.11-1.67,5.54,5.54,0,0,0,1.85-4.26V150.9a29.39,29.39,0,0,0,11.9,7.66,53.15,53.15,0,0,0,18.5,3.34,55.38,55.38,0,0,0,21-4.08,52.73,52.73,0,0,0,17.61-11.92,56.92,56.92,0,0,0,12-18.56,63.19,63.19,0,0,0,4.46-24.28,63.24,63.24,0,0,0-4.46-24.27,55.39,55.39,0,0,0-12-18.45"/>
      <path class="cls-2" d="M465.31,113.51a25.9,25.9,0,0,1-5.3,8.42,27.82,27.82,0,0,1-8,5.65,24.94,24.94,0,0,1-20.08,0,27.36,27.36,0,0,1-8.09-5.65,25.14,25.14,0,0,1-5.31-8.42,29.06,29.06,0,0,1,0-20.62,25.75,25.75,0,0,1,5.31-8.28A26.74,26.74,0,0,1,431.94,79,24.73,24.73,0,0,1,452,79a27.57,27.57,0,0,1,8,5.63,27.16,27.16,0,0,1,5.3,8.28,28.92,28.92,0,0,1,0,20.62m30.4-66H473.19a5.85,5.85,0,0,0-4.18,1.8,6.24,6.24,0,0,0-1.8,4.41v2.7A31.13,31.13,0,0,0,457,48.72a43.42,43.42,0,0,0-19.73-4.27A55,55,0,0,0,398.59,60.3a58.11,58.11,0,0,0-12.41,18.49,60.71,60.71,0,0,0-4.68,24.26,61,61,0,0,0,4.68,24.28,59.88,59.88,0,0,0,12.3,18.56,54.11,54.11,0,0,0,38.57,16,44.73,44.73,0,0,0,19.82-4.25,32.77,32.77,0,0,0,10.34-7.75v2.92a5.52,5.52,0,0,0,1.84,4.26,5.91,5.91,0,0,0,4.14,1.71h22.52a5.91,5.91,0,0,0,6-6V53.75A6.08,6.08,0,0,0,500,49.43a5.43,5.43,0,0,0-4.26-1.89"/>
      <path class="cls-2" d="M720.31,100.23a37.71,37.71,0,0,0-11.08-6.6A69.88,69.88,0,0,0,696,89.77L678.8,86.41c-4.41-.82-7.46-1.93-9.19-3.34a5.27,5.27,0,0,1-2.3-4.35c0-1.8,1.07-3.3,3.19-4.64,2.31-1.41,5.56-2.12,9.58-2.12a33.17,33.17,0,0,1,12.83,2.57,71.25,71.25,0,0,1,11.32,5.92c5,3.08,9.26,2.65,12.31-.86l8.26-9.39a8.83,8.83,0,0,0,2.56-5.88c0-2.09-1.07-4-3.15-5.76-3.48-3-9-6.22-16.39-9.34s-16.74-4.78-27.74-4.78a65.55,65.55,0,0,0-19.75,2.84,46.7,46.7,0,0,0-15.12,7.8,35.35,35.35,0,0,0-9.66,11.72,32.24,32.24,0,0,0-3.36,14.39c0,9.21,2.84,16.71,8.39,22.33s13,9.21,22.1,11l17.83,3.82a46.28,46.28,0,0,1,11.42,3.44,5.17,5.17,0,0,1,3.23,4.89c0,2-1,3.74-3.21,5.33s-5.79,2.57-10.49,2.57a31.25,31.25,0,0,1-14.08-3.14,52.18,52.18,0,0,1-11.51-7.52,16.55,16.55,0,0,0-5.17-2.82c-2.14-.6-4.54,0-7.3,2.17l-9.87,7.55c-2.87,2.39-4.07,5.27-3.53,8.59s3.2,6.48,8.31,10.22a73,73,0,0,0,17.41,8.48c7,2.52,15.27,3.78,24.62,3.78a70.17,70.17,0,0,0,20.55-2.83,53.1,53.1,0,0,0,15.93-7.9A35.7,35.7,0,0,0,727.11,139a33.12,33.12,0,0,0,3.58-15.17,31.31,31.31,0,0,0-2.8-13.74,30.06,30.06,0,0,0-7.58-9.85"/>
      <path class="cls-2" d="M818.77,127.15a6.23,6.23,0,0,0-5-3.19,9.65,9.65,0,0,0-5.83,1.88,21.26,21.26,0,0,1-5.16,2.33,14.7,14.7,0,0,1-4,.61,12.75,12.75,0,0,1-3.19-.4,7.39,7.39,0,0,1-3.07-1.53,9.44,9.44,0,0,1-2.41-3.36,14.45,14.45,0,0,1-1-6V77.08h29.31a6.2,6.2,0,0,0,4.48-1.94,5.83,5.83,0,0,0,1.9-4.26V53.74a5.81,5.81,0,0,0-1.94-4.41,6.46,6.46,0,0,0-4.44-1.8H789.1V20a5.72,5.72,0,0,0-1.84-4.45,6,6,0,0,0-4.11-1.69H760.38A6.19,6.19,0,0,0,756,15.55,6,6,0,0,0,754.16,20V47.53h-13a5.61,5.61,0,0,0-4.32,1.9,6.36,6.36,0,0,0-1.66,4.31V70.88a6.46,6.46,0,0,0,1.66,4.21,5.44,5.44,0,0,0,4.32,2h13v48.1a37.34,37.34,0,0,0,3.41,16.5,32.74,32.74,0,0,0,8.7,11.11,35.3,35.3,0,0,0,12.35,6.38,49.29,49.29,0,0,0,14.13,2.08,56.79,56.79,0,0,0,18.49-3,36,36,0,0,0,14.59-9.06c2.58-3,2.88-6.26.78-9.56Z"/>
      <path class="cls-2" d="M911.76,113.51a24.93,24.93,0,0,1-5.3,8.42,27.07,27.07,0,0,1-8,5.65,24.08,24.08,0,0,1-10.06,2.11,24.66,24.66,0,0,1-10-2.11,27.19,27.19,0,0,1-8.08-5.65,25.2,25.2,0,0,1-5.34-8.42,29.35,29.35,0,0,1,0-20.62,25.82,25.82,0,0,1,5.34-8.28A27,27,0,0,1,878.43,79a24.19,24.19,0,0,1,10-2.13A23.63,23.63,0,0,1,898.46,79a26.83,26.83,0,0,1,8,5.63,26.08,26.08,0,0,1,5.3,8.28,28,28,0,0,1,0,20.62m30.41-66h-22.5a5.87,5.87,0,0,0-4.15,1.8,6.14,6.14,0,0,0-1.79,4.41v2.7a31.74,31.74,0,0,0-10.25-7.73,43.37,43.37,0,0,0-19.78-4.27A55,55,0,0,0,845.1,60.3a57.69,57.69,0,0,0-12.44,18.49A60.88,60.88,0,0,0,828,103.05a61.12,61.12,0,0,0,4.67,24.28A59.58,59.58,0,0,0,845,145.89a54,54,0,0,0,38.49,16,44.78,44.78,0,0,0,19.88-4.25,32.84,32.84,0,0,0,10.38-7.75v2.92a5.5,5.5,0,0,0,1.81,4.26,5.9,5.9,0,0,0,4.13,1.71h22.5a5.87,5.87,0,0,0,6-6V53.75a6,6,0,0,0-1.69-4.32,5.31,5.31,0,0,0-4.27-1.89"/>
      <path class="cls-2" d="M1065.83,125.68l-12.91-9.78c-2.46-1.93-4.81-2.47-6.84-1.65a12.72,12.72,0,0,0-4.73,3.38,42.34,42.34,0,0,1-9.85,8.8c-3.27,2-7.52,3-12.58,3a25.13,25.13,0,0,1-10.16-2,23.93,23.93,0,0,1-7.93-5.63,26.21,26.21,0,0,1-5.22-8.38,30.17,30.17,0,0,1,0-20.53,23.9,23.9,0,0,1,5.22-8.3,27,27,0,0,1,8-5.62,23.75,23.75,0,0,1,10.1-2.12,24.06,24.06,0,0,1,12.58,3.06,43.29,43.29,0,0,1,9.88,8.8,12.6,12.6,0,0,0,4.7,3.38c2.07.8,4.38.27,6.79-1.67l12.89-9.77a8.65,8.65,0,0,0,3.42-4.4,7.08,7.08,0,0,0-.58-6,55.79,55.79,0,0,0-20-18.53c-8.56-4.79-18.77-7.26-30.22-7.26A60.67,60.67,0,0,0,995,49a59.68,59.68,0,0,0-19.06,12.46,55.4,55.4,0,0,0-12.66,18.7,60.3,60.3,0,0,0,0,46.2,56.64,56.64,0,0,0,12.66,18.56,60.59,60.59,0,0,0,42.48,17c11.45,0,21.66-2.46,30.22-7.3a55.46,55.46,0,0,0,20-18.59,6.83,6.83,0,0,0,.53-5.83,10.34,10.34,0,0,0-3.35-4.5"/>
      <path class="cls-2" d="M1185.75,148.76l-35.63-51.68,30.49-39.71c1.57-2.29,2-4.51,1.25-6.55-.54-1.5-2-3.29-5.64-3.29h-24.11a9.3,9.3,0,0,0-4,.95,8.13,8.13,0,0,0-3.53,3.38l-24.37,33.67h-5.93V6a6,6,0,0,0-1.68-4.28A5.94,5.94,0,0,0,1108.37,0h-22.54a6.33,6.33,0,0,0-4.31,1.69,5.57,5.57,0,0,0-1.85,4.3V152.83a5.47,5.47,0,0,0,1.85,4.24,6.08,6.08,0,0,0,4.31,1.71h22.54a5.69,5.69,0,0,0,4.26-1.74,5.78,5.78,0,0,0,1.68-4.21v-38.9h6.53l26.59,40.22a8.83,8.83,0,0,0,7.79,4.63h25.24c3.84,0,5.44-1.8,6.07-3.31a7,7,0,0,0-.78-6.71"/>
      <path class="cls-2" d="M623.77,47.53H598.53a6.68,6.68,0,0,0-5,2,8.92,8.92,0,0,0-2.22,4.11l-18.59,68.55h-4.54l-20-68.53a10.78,10.78,0,0,0-1.9-4,5.5,5.5,0,0,0-4.5-2.07H515.64c-3.39,0-5.5,1.08-6.29,3.17a9.31,9.31,0,0,0,0,6.09l31.95,96.47a8.91,8.91,0,0,0,2.45,3.81,6.65,6.65,0,0,0,4.75,1.72H562l-1.1,3.11-3.23,9a14.57,14.57,0,0,1-4.93,7,12,12,0,0,1-7.45,2.42,16.63,16.63,0,0,1-6.77-1.47,31.65,31.65,0,0,1-5.93-3.44,10.76,10.76,0,0,0-5.68-1.89h-.28c-2.2,0-4.09,1.2-5.65,3.54l-8,11.63c-3.28,5-1.46,8.32.63,10.13a42.09,42.09,0,0,0,14.85,8.64,57.58,57.58,0,0,0,19,3.05c11.55,0,21.19-3.09,28.61-9.3s12.79-14.59,16.11-25.08l37-119.36a8.79,8.79,0,0,0,.08-6.39c-.62-1.3-2.12-2.87-5.52-2.87"/>
    </g>
  </g>
</svg>
