<?xml version="1.0" encoding="UTF-8"?>
<!DOCTYPE svg PUBLIC "-//W3C//DTD SVG 1.1//EN" "http://www.w3.org/Graphics/SVG/1.1/DTD/svg11.dtd">
<!-- Creator: CorelDRAW -->
<svg xmlns="http://www.w3.org/2000/svg" xml:space="preserve" width="6.85473in" height="5.29037in" version="1.1" style="shape-rendering:geometricPrecision; text-rendering:geometricPrecision; image-rendering:optimizeQuality; fill-rule:evenodd; clip-rule:evenodd"
viewBox="0 0 6854.73 5290.37"
 xmlns:xlink="http://www.w3.org/1999/xlink"
 xmlns:xodm="http://www.corel.com/coreldraw/odm/2003">
 <defs>
  <style type="text/css">
   <![CDATA[
    .fil1 {fill:#FEFEFE}
    .fil0 {fill:#0792CD}
   ]]>
  </style>
 </defs>
 <g id="Layer_x0020_1">
  <metadata id="CorelCorpID_0Corel-Layer"/>
  <path class="fil0" d="M4722.83 15.47c2808.21,-333.6 3041.35,4835.86 -502.02,5256.8 -1685.28,200.17 -3930.01,-1294.7 -4204.65,-2787.02 -274.65,-1492.31 3021.34,-2269.56 4706.67,-2469.78z"/>
  <path class="fil1" d="M5719.92 2673.39l-226.64 0 114.5 -341.14 2.37 0 109.77 341.14zm-476.88 169.96c-7.1,18.93 -18.88,53.13 -18.88,74.37 0,51.96 36.57,84.98 89.71,84.98 46.04,0 73.15,-15.33 86.16,-53.09l50.77 -141.66 311.61 0 49.59 141.66c14.15,37.76 44.85,53.09 87.34,53.09 49.59,0 90.89,-37.76 90.89,-84.98 0,-21.24 -11.83,-55.45 -18.88,-74.37l-233.73 -650.39c-21.24,-60.19 -60.19,-70.83 -103.9,-70.83l-45.99 0c-47.22,0 -77.93,15.33 -94.44,59.05l-250.24 662.17zm-762.12 62.6c0,57.81 37.76,96.76 96.8,96.76 59,0 96.81,-38.94 96.81,-96.76l0 -687.01c0,-57.87 -37.81,-96.81 -96.81,-96.81 -59.05,0 -96.8,38.94 -96.8,96.81l0 687.01zm-561.42 -640.97c8.28,-22.43 11.83,-41.31 11.83,-56.69 0,-64.91 -49.58,-86.16 -97.99,-86.16 -44.85,0 -73.19,27.16 -90.89,84.98l-181.78 578.42 -2.37 0 -174.69 -578.42c-17.69,-57.81 -46.04,-84.98 -97.99,-84.98 -48.4,0 -97.94,21.24 -97.94,86.16 0,15.38 3.5,34.26 11.78,56.69l238.46 670.44c20.06,55.5 57.82,67.28 118,67.28 60.23,0 97.99,-11.78 118.05,-67.28l245.52 -670.44zm-1475.06 640.97c0,57.81 37.76,96.76 96.81,96.76 59,0 96.8,-38.94 96.8,-96.76l0 -687.01c0,-57.87 -37.81,-96.81 -96.8,-96.81 -59.06,0 -96.81,38.94 -96.81,96.81l0 687.01zm-1130.32 -619.73l199.48 0c84.98,0 140.48,23.61 140.48,114.5 0,95.62 -73.2,114.5 -146.39,114.5l-193.56 0 0 -229zm-193.61 619.73c0,57.81 37.76,96.76 96.8,96.76 59,0 96.81,-38.94 96.81,-96.76l0 -249.07 191.2 0c106.22,0 133.38,60.19 133.38,208.89 0,34.26 8.28,136.93 114.5,136.93 44.85,0 90.89,-30.66 90.89,-75.52 0,-40.17 -25.98,-76.74 -25.98,-174.73 0,-86.16 -17.7,-158.17 -116.87,-172.32l0 -2.37c92.07,-21.24 146.39,-112.13 146.39,-204.21 0,-109.77 -61.37,-236.1 -291.56,-236.1l-322.26 0c-68.46,0 -113.32,27.16 -113.32,113.31l0 655.17z"/>
 </g>
</svg>
