<?xml version="1.0" encoding="UTF-8"?>
<svg id="Layer_1" data-name="Layer 1" xmlns="http://www.w3.org/2000/svg" viewBox="0 0 657.52 451.09">
  <defs>
    <style>
      .cls-1 {
        stroke-width: 0px;
      }
    </style>
  </defs>
  <path class="cls-1" d="m128.2,146.27v51.51c0,3.58.86,6.18,2.6,7.77,1.72,1.61,4.63,2.41,8.74,2.41h12.5v22.68h-16.92c-22.68,0-34.02-11.01-34.02-33.07v-51.31h-12.69v-22.12h12.69v-26.33h27.11v26.33h23.84v22.12h-23.84Z"/>
  <path class="cls-1" d="m360,124.15v106.49h-27.11v-13.45c-3.46,4.61-7.98,8.23-13.55,10.86s-11.64,3.94-18.16,3.94c-8.34,0-15.69-1.75-22.1-5.29-6.41-3.52-11.45-8.71-15.09-15.56-3.64-6.85-5.47-15.03-5.47-24.51v-62.47h26.92v58.63c0,8.46,2.1,14.97,6.33,19.52,4.22,4.54,10,6.82,17.28,6.82s13.26-2.28,17.5-6.82c4.22-4.55,6.33-11.06,6.33-19.52v-58.63h27.11Z"/>
  <path class="cls-1" d="m369.02,148.47c4.47-8.27,10.7-14.67,18.65-19.22,7.95-4.55,17.05-6.82,27.29-6.82,13.19,0,24.12,3.3,32.77,9.9,8.63,6.6,14.45,15.85,17.39,27.76h-29.03c-1.53-4.61-4.13-8.23-7.77-10.86-3.64-2.63-8.18-3.94-13.56-3.94-7.68,0-13.76,2.78-18.24,8.37-4.5,5.57-6.74,13.48-6.74,23.73s2.24,17.97,6.74,23.56c4.47,5.57,10.56,8.35,18.24,8.35,10.9,0,18.02-4.86,21.34-14.61h29.03c-2.94,11.53-8.79,20.69-17.49,27.48-8.73,6.8-19.61,10.2-32.68,10.2-10.25,0-19.35-2.28-27.29-6.84-7.95-4.54-14.17-10.95-18.65-19.21-4.49-8.27-6.73-17.91-6.73-28.94s2.24-20.66,6.73-28.92Z"/>
  <path class="cls-1" d="m549.12,127.9c6.27,3.52,11.18,8.71,14.7,15.56,3.52,6.87,5.29,15.09,5.29,24.7v62.47h-26.9v-58.81c0-8.46-2.13-14.95-6.35-19.51-4.22-4.55-10-6.84-17.3-6.84s-13.3,2.28-17.58,6.84c-4.3,4.55-6.44,11.04-6.44,19.51v39.5h-26.9v-122.92h26.9v49.01c3.46-4.61,8.07-8.23,13.84-10.86,5.77-2.63,12.17-3.94,19.22-3.94,8.07,0,15.25,1.77,21.52,5.29Z"/>
  <path class="cls-1" d="m128.87,357.98c-6.93-3.14-12.4-7.41-16.44-12.79-4.04-5.38-6.24-11.34-6.63-17.86h27.11c.52,4.1,2.52,7.49,6.05,10.18,3.52,2.69,7.91,4.04,13.17,4.04s9.13-1.03,12.01-3.08c2.88-2.05,4.32-4.68,4.32-7.88,0-3.46-1.75-6.05-5.29-7.77-3.52-1.74-9.13-3.63-16.81-5.68-7.95-1.92-14.44-3.89-19.51-5.96-5.07-2.05-9.42-5.18-13.08-9.42-3.66-4.22-5.47-9.92-5.47-17.1,0-5.9,1.69-11.28,5.1-16.16,3.38-4.86,8.26-8.71,14.61-11.53,6.33-2.82,13.8-4.22,22.38-4.22,12.69,0,22.81,3.18,30.36,9.51,7.57,6.35,11.73,14.89,12.51,25.67h-25.78c-.38-4.24-2.13-7.6-5.27-10.1-3.14-2.49-7.34-3.74-12.59-3.74-4.88,0-8.62.89-11.25,2.69-2.63,1.8-3.94,4.29-3.94,7.49,0,3.6,1.8,6.32,5.38,8.17,3.58,1.86,9.17,3.75,16.72,5.68,7.7,1.92,14.05,3.91,19.04,5.96,4.99,2.05,9.31,5.22,12.97,9.51,3.66,4.3,5.54,9.96,5.66,17,0,6.16-1.69,11.67-5.08,16.53-3.39,4.88-8.27,8.68-14.61,11.43-6.33,2.75-13.75,4.15-22.2,4.15s-16.53-1.58-23.45-4.71Z"/>
  <path class="cls-1" d="m255.81,278.69c4.3-8.34,10.14-14.73,17.5-19.22s15.59-6.73,24.7-6.73c7.95,0,14.89,1.6,20.85,4.8,5.96,3.21,10.73,7.24,14.31,12.11v-15.19h27.11v106.49h-27.11v-15.56c-3.44,4.99-8.23,9.12-14.31,12.39s-13.09,4.91-21.04,4.91c-8.98,0-17.14-2.31-24.51-6.93-7.37-4.61-13.2-11.11-17.5-19.51-4.29-8.38-6.43-18.03-6.43-28.92s2.14-20.32,6.43-28.64Zm73.53,12.2c-2.57-4.68-6.02-8.26-10.37-10.76-4.38-2.5-9.04-3.75-14.05-3.75s-9.6,1.22-13.83,3.66c-4.24,2.42-7.66,5.99-10.29,10.67s-3.94,10.21-3.94,16.63,1.31,12.01,3.94,16.81c2.63,4.8,6.08,8.49,10.39,11.04,4.29,2.57,8.87,3.85,13.73,3.85s9.67-1.25,14.05-3.74c4.35-2.5,7.81-6.08,10.37-10.78,2.55-4.68,3.83-10.28,3.83-16.81s-1.28-12.14-3.83-16.81Z"/>
  <path class="cls-1" d="m369.11,278.78c4.49-8.27,10.7-14.67,18.65-19.22,7.95-4.55,17.05-6.82,27.31-6.82,13.19,0,24.12,3.3,32.75,9.9,8.65,6.6,14.45,15.85,17.41,27.76h-29.03c-1.53-4.61-4.13-8.23-7.77-10.86-3.66-2.63-8.18-3.94-13.56-3.94-7.68,0-13.78,2.78-18.25,8.37-4.49,5.57-6.73,13.48-6.73,23.73s2.24,17.97,6.73,23.56c4.47,5.57,10.57,8.35,18.25,8.35,10.9,0,18-4.86,21.34-14.61h29.03c-2.96,11.53-8.79,20.69-17.5,27.48-8.71,6.8-19.6,10.2-32.66,10.2-10.26,0-19.36-2.28-27.31-6.84-7.95-4.54-14.16-10.95-18.65-19.21-4.47-8.27-6.73-17.91-6.73-28.94s2.25-20.66,6.73-28.92Z"/>
  <path class="cls-1" d="m530.76,360.95l-36.13-45.36v45.36h-26.9v-142.23h26.9v80.91l35.76-45.17h34.98l-46.89,53.45,47.29,53.04h-34.99Z"/>
  <path class="cls-1" d="m230.36,236.76c-.28.16-.48.4-.77.56-7.88,4.27-16.71,6.36-26.34,6.62v10.52h-12.69v22.12h12.69v51.31c0,22.05,11.34,33.07,34.02,33.07h16.91v-22.68h-12.48c-4.1,0-7.01-.8-8.76-2.41-1.72-1.6-2.58-4.19-2.58-7.77v-51.51h23.82v-22.12h-23.82v-17.7Z"/>
  <g>
    <path class="cls-1" d="m246.74,207.51c-.52-.46-1.05-.91-1.6-1.34-4.85-3.73-10.67-5.7-16.69-5.7-1.2,0-2.41.08-3.63.24-7.28.95-13.75,4.68-18.23,10.51-4.46,5.81-6.4,13-5.47,20.26.23,0,.46.02.7.02,18.72,0,35.22-9.52,44.92-23.98Z"/>
    <path class="cls-1" d="m162.6,184l1.12-1.85c.56-.93,1.77-1.23,2.7-.66l3.7,2.24c.93.56,1.23,1.77.66,2.7l-1.12,1.85c-4.63,7.64-7.53,15.96-8.65,24.58,3.61,4.16,7.84,7.76,12.55,10.66-1-21.94,12.57-42.53,33.51-49.98l2.04-.72c1.02-.36,2.15.17,2.51,1.19l1.45,4.07c.36,1.02-.17,2.15-1.19,2.51l-2.04.72c-18.63,6.63-30.29,25.7-27.72,45.34l.15,1.17c3.34,1.3,6.85,2.27,10.48,2.89-.69-8.82,1.86-17.47,7.29-24.54,5.82-7.57,14.24-12.42,23.71-13.66,9.47-1.24,18.85,1.28,26.42,7.1.24.18.46.37.69.56,1.31-2.82,2.39-5.77,3.2-8.83-7.42-7.47-17.18-11.86-27.7-12.42l-2.16-.11c-1.09-.06-1.92-.98-1.86-2.07l.23-4.32c.06-1.09.98-1.92,2.07-1.86l2.16.11c10.67.57,20.69,4.44,28.89,11.05.11-1.42.18-2.84.18-4.29,0-4.14-.48-8.16-1.36-12.03-11.42-6.25-24.84-9.08-38.71-7.26-13.15,1.72-25.23,7.38-34.92,16.36l-1.58,1.47c-.8.74-2.04.69-2.78-.11l-2.94-3.17c-.74-.8-.69-2.04.11-2.78l1.59-1.47c10.95-10.15,24.6-16.55,39.46-18.49,12.65-1.66,24.97.11,36.04,4.56-8.63-18.39-27.3-31.14-48.96-31.14-29.85,0-54.04,24.17-54.06,54.02,0,9.46,2.42,18.35,6.69,26.09,1.73-6.83,4.46-13.42,8.14-19.49Z"/>
  </g>
</svg>