<svg width="441" height="146" viewBox="0 0 441 146" fill="none" xmlns="http://www.w3.org/2000/svg">
<path d="M440.772 157.429C402.643 47.2121 287.062 -19.282 170.451 6.56873C131.675 15.1532 95.7435 33.525 66.0809 59.9332C36.4183 86.3414 14.0129 119.906 1 157.429H440.772Z" fill="#17BDFF" stroke="#263238" stroke-width="0.37021" stroke-miterlimit="10"/>
<path d="M38.5724 110.1C30.6161 121.839 23.8049 134.314 18.2324 147.355" stroke="#263238" stroke-width="0.37021" stroke-miterlimit="10"/>
<path d="M209.901 143.938L215.649 154.55L210.53 158.121H234.049L235.06 155.334L231.708 145.323L221.16 143.702L213.071 135.312L189.352 130.403L185.754 134.593L194.143 141.78L209.901 143.938Z" fill="white" stroke="#263238" stroke-width="0.37021" stroke-miterlimit="10"/>
<path d="M85.6396 150.032L96.0601 157.429H198.352L196.84 146.279L191.028 148.101L186.173 144.148L182.758 136.415L178.868 136.715L178.622 145.824L172.975 148.192L166.088 129.92L161.133 128.18L152.863 126.623L145.193 132.853L158.255 140.705L162.445 149.385L139.8 139.138L123.086 127.579L118.777 113.251L103.803 112.058L94.5662 121.458C92.3052 123.624 89.9273 125.664 87.4432 127.57C84.9838 129.246 74.9732 132.598 74.9732 132.598L74.8548 142.244L62.5762 145.542L64.9718 151.235L85.6396 150.032Z" fill="white" stroke="#263238" stroke-width="0.37021" stroke-miterlimit="10"/>
<path d="M389.334 123.899L381.136 114.972L370.953 104.779L365.168 89.085L375.234 88.5476L374.578 83.0823L367.473 84.0296L372.811 80.0127L378.44 74.8024L377.238 69.4556L368.858 62.2596L364.895 50.9647C325.035 19.588 276.021 2.08261 225.302 1.10931C174.583 0.135998 124.933 15.7479 83.8981 45.5723L98.2809 51.6023L92.8885 62.9883L83.1239 67.4152L85.2827 82.2079L81.3294 84.7857L77.2578 91.9087L79.9904 101.5L89.3907 100.544L87.66 110.564L96.8235 108.532L108.027 85.1045L107.736 76.1141L122.592 71.6872L124.924 64.4002L140.181 59.281L139.762 49.7532L150.966 46.6927C150.966 46.6927 158.098 40.5898 159.711 40.2255C161.323 39.8611 169.475 40.8904 169.475 40.8904L179.003 45.5632L190.28 43.0401L198.669 34.9515L211.312 33.2754C211.312 33.2754 215.028 34.7146 217.688 34.1135C220.348 33.5123 227.635 27.9468 227.635 27.9468L245.424 34.1772L252.975 37.593L254.797 45.6816L263.123 44.962L264.744 39.4967L272.477 41.1728L272.896 45.6088L257.685 53.5425L269.526 63.3709L291.333 69.8472L301.817 78.8285L313.922 77.2709L315.425 71.2864L319.497 69.2461L303.101 61.5765L294.229 62.4145L300.76 58.6981L292.253 50.9738L301.307 48.396L314.606 52.2308L320.171 64.5733L327.658 70.2663L335.984 84.8403L349.766 90.8339L353.691 108.623L367.901 113.952L368.675 120L368.612 127.369L374.004 136.36L376.163 140.969L385.691 140.55L387.968 130.43L389.334 123.899Z" fill="white" stroke="#263238" stroke-width="0.37021" stroke-miterlimit="10"/>
<path d="M387.487 87.5276L393.863 88.3747L396.14 98.6039L389.063 97.3469L393.954 126.841L390.119 140.14L397.78 154.286L404.393 158.13H441.001C429.365 124.092 409.95 93.2364 384.299 68.0166L384.991 71.1136L384.189 80.3863L387.487 87.5276Z" fill="white" stroke="#263238" stroke-width="0.37021" stroke-miterlimit="10"/>
<path d="M258.97 92.3095L219.911 84.5762L204.39 88.584L202.896 99.6694L194.862 94.0948L183.604 99.4235L186.473 117.459L197.74 122.314L202.468 110.509L212.36 116.803L232.308 127.652L239.012 142.572L256.984 157.246L278.799 148.447L276.459 140.477L269.572 132.388L263.706 111.055L267.058 100.699L258.97 92.3095Z" fill="white" stroke="#263238" stroke-width="0.37021" stroke-miterlimit="10"/>
<path d="M290.722 97.7023L282.16 97.3379L276.467 104.825L283.708 119.627L290.722 118.07V97.7023Z" fill="white" stroke="#263238" stroke-width="0.37021" stroke-miterlimit="10"/>
<path d="M343.143 96.8096L322.658 91.1803L317.447 85.542L313.494 88.1198L319.661 98.0666L326.01 111.365L334.818 112.805L335.956 110.291L329.307 103.277L344.528 105.554L343.143 96.8096Z" fill="white" stroke="#263238" stroke-width="0.37021" stroke-miterlimit="10"/>
</svg>
