<svg width="183" height="182" viewBox="0 0 183 182" fill="none" xmlns="http://www.w3.org/2000/svg">
<path d="M182.999 92.1674C183.002 93.6231 182.619 95.0537 181.89 96.3137C181.161 97.5737 180.111 98.6183 178.847 99.3413L160.876 109.665C159.842 110.261 158.692 110.626 157.504 110.736C156.316 110.846 155.119 110.698 153.993 110.303C153.777 111.431 153.324 112.501 152.665 113.442C152.006 114.384 151.156 115.175 150.17 115.765L149.514 116.147L132.125 126.198L131.634 126.471C130.613 126.966 129.503 127.248 128.37 127.301C127.237 127.354 126.105 127.177 125.043 126.781C124.85 127.991 124.389 129.143 123.692 130.151C122.996 131.16 122.082 131.999 121.018 132.608L104.631 142.076C107.663 147.134 109.361 152.879 109.566 158.773C109.566 164.727 107.18 168.66 103.502 170.116C102.899 170.591 102.231 170.978 101.518 171.263C100.915 171.75 100.239 172.137 99.5147 172.41C98.1878 173.185 96.8586 173.956 95.5271 174.723C94.9154 175.195 94.2415 175.581 93.5243 175.87C92.9216 176.346 92.253 176.733 91.5396 177.017C90.9278 177.49 90.2539 177.876 89.5367 178.164C88.9399 178.649 88.27 179.036 87.552 179.311C84.4384 181.769 79.8682 181.86 74.6971 178.874C65.3563 173.412 57.7636 160.357 57.7636 149.523C57.7636 144.06 59.6936 140.273 62.7708 138.689C63.1017 138.534 63.4423 138.4 63.7905 138.288C64.0978 138.014 64.4266 137.764 64.7737 137.542C65.0997 137.39 65.434 137.256 65.7751 137.141C66.0779 136.861 66.4072 136.611 66.7584 136.395C67.0859 136.232 67.4271 136.098 67.778 135.994C68.0851 135.714 68.4139 135.458 68.7613 135.229C69.0876 135.083 69.4219 134.956 69.7627 134.847C70.0698 134.567 70.3986 134.311 70.746 134.082C71.074 133.925 71.4152 133.797 71.7656 133.7C72.0681 133.414 72.3974 133.158 72.7489 132.935C73.0749 132.783 73.4092 132.649 73.7503 132.535C74.0577 132.26 74.3865 132.01 74.7335 131.788C75.0644 131.633 75.405 131.499 75.7532 131.388C76.0606 131.113 76.3894 130.863 76.7364 130.641C77.0624 130.489 77.3968 130.355 77.7379 130.24C78.0461 130.036 78.3686 129.853 78.7029 129.694C79.0351 129.542 79.3755 129.408 79.7225 129.294C80.0253 129.013 80.3546 128.763 80.7058 128.547C80.246 128.116 79.7594 127.715 79.2491 127.345L77.7561 126.271L76.2812 125.288C75.7532 124.942 75.2252 124.614 74.6789 124.305C72.935 123.299 71.1074 122.446 69.2165 121.756C68.6338 121.537 68.0512 121.337 67.3957 121.173C65.285 120.513 63.0884 120.17 60.8771 120.153H59.8393H59.0746C58.6861 120.153 58.3037 120.153 57.9274 120.153C56.086 120.174 54.2723 119.704 52.6724 118.792C51.0725 117.88 49.7441 116.559 48.8234 114.964L48.3864 114.217C48.3864 114.217 52.3922 100.416 52.4286 100.361L65.1743 92.7136C67.6915 90.9321 70.4756 89.5616 73.4226 88.6532C73.9205 88.5448 74.4255 88.4718 74.9338 88.4347H75.3526C76.0012 88.389 76.6523 88.389 77.3009 88.4347H77.9927H78.1748C79.4541 88.5887 80.7201 88.8383 81.9622 89.1812C86.6419 90.554 91.118 92.544 95.2723 95.0989C96.2555 95.6633 97.093 96.246 98.0945 96.9197C96.5104 95.4812 94.8899 94.1338 93.233 92.8411C92.4864 92.2402 91.7399 91.6575 90.9751 91.0202C90.8726 90.914 90.7563 90.8222 90.6292 90.7471C89.9737 90.2373 89.3 89.7457 88.6081 89.2541C87.3882 88.3801 86.15 87.4333 84.8755 86.6685L83.2003 85.576C82.3445 85.0116 81.3795 84.4653 80.5965 83.9373C79.8136 83.4093 78.4298 82.6263 77.3373 81.989C67.1954 76.1442 58.0003 73.6679 49.6792 73.6679H47.9494L46.0012 73.7954C45.5095 73.7954 45.0361 73.7954 44.5445 73.9593L43.5248 74.1049L42.6144 74.2506L41.2488 74.5055L39.6647 74.8879C39.1003 75.0335 38.5358 75.1792 37.9714 75.3613C37.4069 75.5434 37.0245 75.6526 36.5693 75.7983C35.433 76.1916 34.2395 76.3946 33.037 76.3991C31.1963 76.4159 29.384 75.9445 27.7848 75.0329C26.1856 74.1213 24.8565 72.8022 23.933 71.2098L23.7326 70.8639L26.8462 57.5356C26.8462 57.5356 26.8463 57.5356 27.0648 57.3535C28.5032 56.3338 35.6044 51.3994 36.1688 51.0717C39.5111 49.1132 43.0208 47.4558 46.6566 46.1191C48.1497 45.5486 49.6792 45.0387 51.2451 44.5896L53.3208 44.0251C54.0127 43.8613 54.7046 43.6792 55.4147 43.5335C56.835 43.224 58.2552 42.9691 59.7119 42.7506L61.5327 42.4957H61.9514L64.1364 42.2954C64.1566 42.2869 64.1783 42.2825 64.2001 42.2825C64.222 42.2825 64.2437 42.2869 64.2639 42.2954L66.285 42.1679C66.4727 42.1497 66.6617 42.1497 66.8494 42.1679C69.3157 42.096 71.7841 42.1689 74.2419 42.3864C77.4439 42.6988 80.616 43.2651 83.7283 44.0798C72.7219 37.9087 60.5097 34.1941 47.9312 33.1913C43.407 32.9012 38.8654 33.0353 34.3662 33.5919C33.2373 33.7194 32.0902 33.8832 30.9795 34.0835H30.6335C29.9416 34.1928 29.2861 34.3202 28.6124 34.4841C27.4653 34.7208 26.3364 34.9757 25.2075 35.2671C24.0786 35.5584 22.9861 35.8861 21.8936 36.2321C21.0925 36.4627 20.3095 36.7176 19.5448 36.9968C18.5434 37.3428 17.5419 37.7251 16.5769 38.1075C15.1892 38.6723 13.7052 38.963 12.207 38.9633C10.0692 38.9506 7.97224 38.3773 6.12545 37.3005C4.27867 36.2238 2.74674 34.6813 1.68267 32.8272L1.42773 32.3902C1.5734 31.6983 4.90549 17.0226 4.90549 17.0226H4.99651L5.23322 16.8405L5.39709 16.713C7.07223 15.4749 12.4983 11.4873 13.0627 11.2506C17.0173 8.94581 21.1591 6.97845 25.4442 5.36937C27.872 4.45896 30.2997 3.65781 32.7275 2.9659L35.3676 2.2922L38.117 1.67313C40.9405 1.11054 43.7907 0.69121 46.6566 0.416765C47.6217 0.307517 48.5867 0.234685 49.5699 0.161853C50.5532 0.0890207 51.5364 0.0526012 52.5196 0.016185C53.5029 -0.0202312 54.5043 0.016185 55.5058 0.016185C71.6018 0.016185 89.2636 4.40434 107.526 14.9468C114.646 19.0619 121.055 23.0494 126.954 27.1098C127.683 27.6015 128.393 28.0931 129.085 28.6029C130.906 29.9139 132.726 31.2613 134.547 32.6087L136.932 34.4295C138.753 35.8133 140.41 37.2153 142.085 38.672C142.759 39.2364 143.396 39.8009 144.052 40.3835L145.035 41.2575L147.111 43.1694C151.261 47.0587 155.194 51.1739 158.891 55.4963L160.312 57.1896C161.04 58.0454 161.75 59.0104 162.46 59.8116C163.571 61.1772 164.682 62.5974 165.774 64.054L167.686 66.6032C169.033 68.424 170.381 70.2448 171.728 72.3205C172.384 73.2856 173.057 74.2506 173.713 75.252C174.368 76.2535 175.042 77.2549 175.716 78.2928C176.389 79.3306 177.063 80.3685 177.719 81.4246C179.066 83.5549 180.432 85.7399 181.797 88.0159C182.561 89.2676 182.976 90.7011 182.999 92.1674Z" fill="#FF005C"/>
<g opacity="0.2">
<path d="M183.001 92.1674C183.003 93.6231 182.621 95.0537 181.892 96.3137C181.162 97.5737 180.113 98.6183 178.849 99.3413L160.878 109.665C159.844 110.261 158.694 110.626 157.506 110.736C156.318 110.846 155.121 110.698 153.995 110.303C153.779 111.431 153.326 112.501 152.667 113.442C152.008 114.384 151.158 115.175 150.172 115.765L149.516 116.147L132.127 126.198L131.636 126.471C130.615 126.966 129.505 127.248 128.372 127.301C127.239 127.354 126.107 127.177 125.044 126.781C124.852 127.991 124.391 129.143 123.694 130.151C122.998 131.16 122.084 131.999 121.02 132.608L104.633 142.076C107.665 147.134 109.363 152.879 109.568 158.773C109.568 164.727 107.182 168.66 103.504 170.116C102.901 170.591 102.232 170.978 101.52 171.263C100.917 171.75 100.241 172.137 99.5167 172.41C98.1897 173.185 96.8605 173.956 95.5291 174.723C94.9174 175.195 94.2434 175.581 93.5263 175.87C92.9235 176.346 92.255 176.733 91.5415 177.017C90.9298 177.49 90.2558 177.876 89.5387 178.164C88.9418 178.649 88.2719 179.036 87.5539 179.311C84.4404 181.769 79.8701 181.86 74.699 178.874C65.3583 173.412 57.7655 160.357 57.7655 149.523C57.7655 144.06 59.6956 140.273 62.7728 138.689C63.1037 138.534 63.4442 138.4 63.7924 138.288C64.0998 138.014 64.4286 137.764 64.7757 137.542C65.1017 137.39 65.436 137.256 65.7771 137.141C66.0798 136.861 66.4091 136.611 66.7603 136.395C67.0878 136.232 67.429 136.098 67.78 135.994C68.0871 135.714 68.4159 135.458 68.7632 135.229C69.0896 135.083 69.4239 134.956 69.7647 134.847C70.0718 134.567 70.4006 134.311 70.7479 134.082C71.0759 133.925 71.4171 133.797 71.7676 133.7C72.0701 133.414 72.3993 133.158 72.7508 132.935C73.0768 132.783 73.4111 132.649 73.7522 132.535C74.0596 132.26 74.3884 132.01 74.7355 131.788C75.0664 131.633 75.407 131.499 75.7551 131.388C76.0625 131.113 76.3913 130.863 76.7384 130.641C77.0644 130.489 77.3987 130.355 77.7398 130.24C78.048 130.036 78.3705 129.853 78.7048 129.694C79.037 129.542 79.3774 129.408 79.7245 129.294C80.0272 129.013 80.3565 128.763 80.7077 128.547C80.2479 128.116 79.7614 127.715 79.2511 127.345L77.758 126.271L76.2832 125.288C75.7552 124.942 75.2271 124.614 74.6809 124.305C72.937 123.299 71.1094 122.446 69.2184 121.756C68.6358 121.537 68.0531 121.337 67.3976 121.173C65.287 120.513 63.0903 120.17 60.8791 120.153H59.8413H59.0765C58.6881 120.153 58.3057 120.153 57.9294 120.153C56.088 120.174 54.2742 119.704 52.6743 118.792C51.0745 117.88 49.746 116.559 48.8254 114.964L48.3884 114.217C48.3884 114.217 52.3942 100.416 52.4306 100.361L65.1762 92.7136C67.6934 90.9321 70.4775 89.5616 73.4245 88.6532C73.9225 88.5448 74.4275 88.4718 74.9358 88.4347H75.3546C76.0032 88.389 76.6542 88.389 77.3028 88.4347H77.9947H78.1768C79.4561 88.5887 80.7221 88.8383 81.9641 89.1812C86.6439 90.554 91.12 92.544 95.2742 95.0989C96.2575 95.6633 97.095 96.246 98.0965 96.9197C96.5123 95.4812 94.8919 94.1338 93.2349 92.8411C92.4884 92.2402 91.7418 91.6575 90.9771 91.0202C90.8746 90.914 90.7582 90.8222 90.6311 90.7471C89.9756 90.2373 89.302 89.7457 88.61 89.2541C87.3901 88.3801 86.152 87.4333 84.8774 86.6685L83.2022 85.576C82.3465 85.0116 81.3814 84.4653 80.5985 83.9373C79.8156 83.4093 78.4317 82.6263 77.3392 81.989C67.1973 76.1442 58.0022 73.6679 49.6811 73.6679H47.9513L46.0031 73.7954C45.5115 73.7954 45.0381 73.7954 44.5464 73.9593L43.5268 74.1049L42.6164 74.2506L41.2508 74.5055L39.6667 74.8879C39.1022 75.0335 38.5378 75.1792 37.9733 75.3613C37.4089 75.5434 37.0265 75.6526 36.5713 75.7983C35.4349 76.1916 34.2415 76.3946 33.039 76.3991C31.1983 76.4159 29.386 75.9445 27.7867 75.0329C26.1875 74.1213 24.8585 72.8022 23.9349 71.2098L23.7346 70.8639L26.8482 57.5356C26.8482 57.5356 26.8482 57.5356 27.0667 57.3535C28.5052 56.3338 35.6063 51.3994 36.1708 51.0717C39.513 49.1132 43.0228 47.4558 46.6586 46.1191C48.1516 45.5486 49.6812 45.0387 51.2471 44.5896L53.3228 44.0251C54.0147 43.8613 54.7066 43.6792 55.4167 43.5335C56.8369 43.224 58.2572 42.9691 59.7138 42.7506L61.5346 42.4957H61.9534L64.1384 42.2954C64.1585 42.2869 64.1802 42.2825 64.2021 42.2825C64.224 42.2825 64.2457 42.2869 64.2658 42.2954L66.2869 42.1679C66.4746 42.1497 66.6637 42.1497 66.8514 42.1679C69.3177 42.096 71.7861 42.1689 74.2438 42.3864C77.4458 42.6988 80.618 43.2651 83.7303 44.0798C72.7239 37.9087 60.5117 34.1941 47.9332 33.1913C43.4089 32.9012 38.8674 33.0353 34.3681 33.5919C33.2392 33.7194 32.0921 33.8832 30.9814 34.0835H30.6355C29.9436 34.1928 29.2881 34.3202 28.6144 34.4841C27.4672 34.7208 26.3384 34.9757 25.2095 35.2671C24.0806 35.5584 22.9881 35.8861 21.8956 36.2321C21.0944 36.4627 20.3115 36.7176 19.5468 36.9968C18.5453 37.3428 17.5439 37.7251 16.5788 38.1075C15.1911 38.6723 13.7072 38.963 12.2089 38.9633C10.0712 38.9506 7.97419 38.3773 6.12741 37.3005C4.28062 36.2238 2.74869 34.6813 1.68463 32.8272L1.42969 32.3902C1.57535 31.6983 4.90744 17.0226 4.90744 17.0226H4.99846L5.23517 16.8405L5.39904 16.713C7.07418 15.4749 12.5002 11.4873 13.0647 11.2506C17.0193 8.94581 21.1611 6.97845 25.4462 5.36937C27.8739 4.45896 30.3017 3.65781 32.7294 2.9659L35.3696 2.2922L38.119 1.67313C40.9425 1.11054 43.7927 0.69121 46.6586 0.416765C47.6236 0.307517 48.5887 0.234685 49.5719 0.161853C50.5551 0.0890207 51.5384 0.0526012 52.5216 0.016185C53.5048 -0.0202312 54.5063 0.016185 55.5077 0.016185C71.6037 0.016185 89.2655 4.40434 107.528 14.9468C114.648 19.0619 121.057 23.0494 126.956 27.1098C127.685 27.6015 128.395 28.0931 129.087 28.6029C130.907 29.9139 132.728 31.2613 134.549 32.6087L136.934 34.4295C138.755 35.8133 140.412 37.2153 142.087 38.672C142.761 39.2364 143.398 39.8009 144.054 40.3835L145.037 41.2575L147.113 43.1694C151.263 47.0587 155.196 51.1739 158.893 55.4963L160.314 57.1896C161.042 58.0454 161.752 59.0104 162.462 59.8116C163.573 61.1772 164.683 62.5974 165.776 64.054L167.688 66.6032C169.035 68.424 170.383 70.2448 171.73 72.3205C172.385 73.2856 173.059 74.2506 173.715 75.252C174.37 76.2535 175.044 77.2549 175.718 78.2928C176.391 79.3306 177.065 80.3685 177.72 81.4246C179.068 83.5549 180.433 85.7399 181.799 88.0159C182.563 89.2676 182.978 90.7011 183.001 92.1674Z" fill="black"/>
</g>
<path d="M91.5949 169.261C91.5949 180.003 84.0204 184.428 74.6797 179.002C65.3389 173.576 57.7461 160.503 57.7461 149.669C57.7461 144.206 59.6762 140.419 62.7533 138.835C65.8305 137.251 70.0366 137.251 74.6797 139.909C79.6163 143.119 83.7226 147.452 86.6627 152.553C89.6028 157.655 91.293 163.38 91.5949 169.261Z" fill="#FF005C"/>
<path d="M105.724 131.005C98.3802 120.377 88.6612 111.605 77.3375 105.386C72.0772 102.231 66.2919 100.047 60.2583 98.9408C58.5206 98.6348 56.7344 98.7585 55.0555 99.3012C53.3766 99.8439 51.8559 100.789 50.6262 102.054L50.5169 102.182C49.0031 103.754 48.0068 105.751 47.6618 107.906C47.3168 110.061 47.6396 112.27 48.5869 114.236C48.7119 114.516 48.8517 114.789 49.0057 115.055C49.9263 116.65 51.2548 117.971 52.8547 118.883C54.4546 119.795 56.2683 120.265 58.1097 120.244C58.486 120.244 58.8684 120.244 59.2568 120.244H60.0216H61.0594C63.2707 120.261 65.4673 120.604 67.578 121.264C68.1606 121.428 68.7433 121.628 69.3988 121.847C71.2897 122.537 73.1173 123.39 74.8612 124.396C75.4074 124.705 75.9354 125.033 76.4635 125.379C76.9915 125.725 77.4649 126.016 77.9383 126.362C78.4117 126.708 78.9398 127.054 79.4314 127.436C79.923 127.819 80.4328 128.201 80.9245 128.602C85.2439 132.149 89.0764 136.251 92.3228 140.801C93.6429 142.496 95.5659 143.615 97.6911 143.927C99.8163 144.238 101.98 143.718 103.731 142.474C105.482 141.23 106.685 139.358 107.09 137.249C107.496 135.14 107.071 132.955 105.906 131.151L105.724 131.005Z" fill="#FF005C"/>
<path d="M134.967 114.69C119.89 90.328 104.45 74.4688 81.5441 60.9401C73.7448 56.2857 64.9985 53.4452 55.9528 52.6289C46.907 51.8126 37.7934 53.0413 29.2869 56.2242C28.5094 56.5021 27.7694 56.8752 27.0837 57.3349L26.8652 57.517C24.8208 58.9853 23.3784 61.1455 22.8058 63.5966C22.2332 66.0477 22.5693 68.6232 23.7516 70.8453L23.9519 71.1913C24.8754 72.7837 26.2045 74.1028 27.8037 75.0144C29.403 75.9259 31.2152 76.3973 33.056 76.3806C34.2585 76.3761 35.452 76.1731 36.5883 75.7797C37.0435 75.6341 37.517 75.4702 37.9904 75.3427C38.4638 75.2153 39.1193 75.015 39.6837 74.8693L41.2678 74.487L42.6334 74.2321L43.5438 74.0864L44.5635 73.9407C45.0551 73.9407 45.5285 73.8133 46.0201 73.7769L47.9684 73.6494H49.6982C58.0193 73.6494 67.2144 76.1257 77.3563 81.9705L80.6155 83.9188C81.4895 84.4468 82.4363 84.993 83.2193 85.5575L84.8944 86.65C86.169 87.4875 87.4072 88.3615 88.6271 89.2355C89.319 89.7271 89.9927 90.2188 90.6482 90.7286C90.7753 90.8036 90.8916 90.8955 90.9941 91.0017C91.7589 91.548 92.5054 92.1306 93.2519 92.8225C94.9088 94.1153 96.5294 95.4627 98.1135 96.9011C98.1135 96.9011 98.1135 96.9011 98.2045 96.9011C107.011 104.737 114.673 113.771 120.965 123.74C121.927 125.232 123.354 126.364 125.025 126.963C126.088 127.359 127.22 127.536 128.352 127.483C129.485 127.43 130.596 127.147 131.616 126.653L132.108 126.38C133.075 125.816 133.919 125.064 134.59 124.168C135.261 123.271 135.745 122.249 136.014 121.163C136.282 120.076 136.329 118.946 136.152 117.84C135.976 116.735 135.579 115.676 134.985 114.727L134.967 114.69Z" fill="#FF005C"/>
<path d="M163.863 98.267C142.013 61.8508 123.805 44.9719 89.574 25.1615C59.1847 7.69996 30.4523 7.15372 7.87427 15.493C6.98887 15.8293 6.14067 16.2565 5.34331 16.7676L5.17945 16.8951L4.94273 17.0771H4.85172C2.55021 18.811 0.937866 21.3045 0.301137 24.1148C-0.335592 26.9251 0.044518 29.8701 1.37396 32.4266C1.37396 32.5904 1.53786 32.7179 1.6289 32.8818C2.69297 34.7359 4.2249 36.2784 6.07168 37.3551C7.91847 38.4319 10.0155 39.0052 12.1532 39.0179C13.6514 39.0175 15.1354 38.7269 16.5231 38.1621C17.4881 37.7797 18.4896 37.3974 19.491 37.0514C20.4925 36.7055 21.0387 36.5234 21.8398 36.2867C22.9323 35.9407 24.0248 35.613 25.1537 35.3216C26.2826 35.0303 27.4115 34.7754 28.5586 34.5387C29.2323 34.3748 29.8879 34.2474 30.5798 34.1381H30.9257C32.0364 33.9378 33.1835 33.774 34.3124 33.6465C38.8273 33.0594 43.3881 32.907 47.9321 33.1913C60.5805 34.1538 72.8631 37.8833 83.9112 44.1162L86.6243 45.6456C115.393 62.2514 131.252 76.5994 149.624 106.898C150.808 108.682 152.635 109.94 154.724 110.409C156.813 110.878 159.002 110.522 160.835 109.415C162.668 108.308 164.002 106.537 164.559 104.469C165.117 102.402 164.854 100.2 163.827 98.3217L163.863 98.267Z" fill="#FF005C"/>
</svg>
