<svg width="501" height="312" viewBox="0 0 501 312" fill="none" xmlns="http://www.w3.org/2000/svg">
<path d="M512.19 311.681C512.19 311.785 397.518 311.874 256.095 311.874C114.671 311.874 0 311.785 0 311.681C0 311.577 114.641 311.488 256.095 311.488C397.548 311.488 512.19 311.577 512.19 311.681Z" fill="#15261C"/>
<path d="M265.738 67.7896C265.095 66.5826 264.096 65.6022 262.877 64.9809C261.659 64.3596 260.279 64.1274 258.924 64.3156C257.327 63.0889 255.37 62.4238 253.357 62.4238C251.343 62.4238 249.386 63.0889 247.789 64.3156C246.596 63.6032 245.243 63.2015 243.854 63.147C242.465 63.0925 241.085 63.3871 239.839 64.0039C238.613 64.6417 237.57 65.5818 236.809 66.7353C236.048 67.8888 235.594 69.2174 235.489 70.5955C234.101 70.3698 232.677 70.5711 231.406 71.173C230.134 71.7748 229.076 72.7487 228.371 73.9656C227.726 75.1994 227.476 76.6014 227.654 77.982C227.832 79.3626 228.429 80.6553 229.365 81.6855C227.868 82.1823 226.597 83.1967 225.781 84.5463C224.965 85.896 224.656 87.4926 224.912 89.0492C225.271 90.5936 226.168 91.9599 227.442 92.9037C228.716 93.8474 230.285 94.3072 231.867 94.2008L264.432 75.2572C265.402 74.3048 266.05 73.0725 266.284 71.7332C266.518 70.3939 266.328 69.0149 265.738 67.7896Z" fill="#15261C"/>
<path d="M230.851 95.0772C231.587 88.2442 234.866 81.9379 240.036 77.4108C245.207 72.8837 251.891 70.4669 258.762 70.6406H260.187C275.508 71.8357 283.035 85.3827 281.402 100.511L278.128 150.988L275.902 157.297L249.505 190.033L242.825 160.541L242.728 146.912C242.728 146.912 228.03 144.344 228.149 129.75C228.201 122.698 229.515 108.194 230.851 95.0772Z" fill="#15261C"/>
<path d="M242.727 146.934C242.727 146.934 251.991 147.639 262.026 141.686C262.026 141.686 257.291 152.122 242.727 150.556V146.934Z" fill="#15261C"/>
<path d="M234.312 108.171C234.294 108.717 234.491 109.249 234.862 109.65C235.233 110.052 235.748 110.291 236.294 110.316C236.561 110.347 236.832 110.323 237.09 110.247C237.348 110.171 237.589 110.043 237.796 109.872C238.004 109.701 238.176 109.49 238.3 109.251C238.424 109.012 238.499 108.751 238.521 108.483C238.535 107.937 238.336 107.408 237.966 107.007C237.595 106.607 237.083 106.366 236.539 106.337C236.271 106.307 236 106.33 235.742 106.406C235.484 106.483 235.244 106.61 235.036 106.781C234.828 106.952 234.657 107.164 234.532 107.402C234.408 107.641 234.333 107.902 234.312 108.171Z" fill="#15261C"/>
<path d="M233.702 103.019C233.961 103.301 235.58 102.165 237.844 102.217C240.108 102.269 241.748 103.419 242 103.152C242.119 103.033 241.867 102.536 241.154 102.002C240.184 101.31 239.027 100.93 237.836 100.91C236.669 100.891 235.525 101.236 234.563 101.898C233.82 102.41 233.575 102.9 233.702 103.019Z" fill="#15261C"/>
<path d="M254.608 109.3C254.594 109.845 254.793 110.374 255.163 110.775C255.533 111.176 256.045 111.416 256.59 111.445C256.857 111.475 257.128 111.45 257.386 111.374C257.643 111.297 257.883 111.17 258.091 110.999C258.298 110.828 258.47 110.617 258.594 110.379C258.719 110.14 258.795 109.88 258.817 109.611C258.831 109.066 258.632 108.537 258.262 108.136C257.892 107.735 257.38 107.495 256.835 107.466C256.568 107.435 256.297 107.459 256.038 107.535C255.78 107.611 255.54 107.739 255.332 107.91C255.124 108.081 254.953 108.292 254.829 108.531C254.704 108.77 254.629 109.031 254.608 109.3Z" fill="#15261C"/>
<path d="M255.389 103.153C255.648 103.428 257.267 102.292 259.531 102.344C261.795 102.396 263.435 103.554 263.688 103.287C263.806 103.168 263.554 102.671 262.841 102.129C261.872 101.437 260.714 101.058 259.523 101.045C258.346 101.015 257.19 101.358 256.22 102.025C255.515 102.545 255.262 103.027 255.389 103.153Z" fill="#15261C"/>
<path d="M247.577 119.618C247.577 119.491 246.189 119.224 243.91 118.875C243.339 118.808 242.789 118.682 242.7 118.289C242.665 117.695 242.813 117.104 243.123 116.596L244.927 112.276C247.429 106.115 249.255 101.045 249.003 100.949C248.75 100.852 246.516 105.766 244.014 111.927C243.406 113.412 242.834 114.897 242.285 116.277C241.908 116.955 241.785 117.744 241.936 118.504C242.016 118.708 242.142 118.891 242.305 119.039C242.467 119.187 242.66 119.296 242.871 119.358C243.19 119.451 243.519 119.503 243.851 119.514C246.145 119.707 247.57 119.744 247.577 119.618Z" fill="#15261C"/>
<path d="M255.49 96.7471C255.75 97.3335 257.717 96.851 260.085 96.9401C262.453 97.0291 264.42 97.5562 264.672 96.9401C264.784 96.6654 264.398 96.131 263.581 95.6188C262.519 94.9903 261.312 94.6476 260.077 94.6241C258.86 94.5828 257.654 94.8645 256.581 95.4406C255.765 95.9454 255.349 96.465 255.49 96.7471Z" fill="#15261C"/>
<path d="M234.345 96.8515C234.686 97.4008 236.29 97.0296 238.16 97.2003C240.031 97.3711 241.575 97.8907 241.998 97.4008C242.184 97.1558 241.998 96.6213 241.345 96.072C240.472 95.4037 239.423 95.006 238.326 94.9282C237.23 94.8503 236.135 95.0958 235.176 95.6341C234.464 96.1091 234.189 96.6213 234.345 96.8515Z" fill="#15261C"/>
<path d="M232.416 88.4187C232.416 88.4187 236.499 79.3626 240.997 77.3213C246.438 74.8494 248.636 80.7507 253.802 79.4294C258.968 78.1081 264.194 75.7179 269.338 79.7783C274.995 84.2321 272.233 87.1642 272.456 93.6445C273.347 119.922 278.038 127.442 279.671 115.105C279.849 113.754 283.672 112.759 284.355 107.043C285.239 99.6201 285.714 90.6308 284.155 85.3307C282.833 80.8769 280.339 77.7444 275.826 74.2704C268.7 68.7848 258.753 68.473 251.991 69.0075C245.228 69.5419 232.038 76.965 232.416 88.4187Z" fill="#15261C"/>
<path d="M278.743 114.666C278.777 114.129 278.919 113.604 279.161 113.124C279.403 112.644 279.74 112.217 280.151 111.87C280.563 111.524 281.04 111.264 281.554 111.106C282.069 110.949 282.61 110.897 283.145 110.954C285.884 111.266 288.912 112.877 288.615 118.496C288.088 128.465 278.082 125.919 278.082 125.592C278.082 125.266 278.483 118.86 278.743 114.666Z" fill="#15261C"/>
<path d="M280.476 121.963C280.52 121.963 280.647 122.096 280.936 122.245C281.342 122.446 281.811 122.481 282.243 122.341C283.326 122.007 284.314 120.382 284.469 118.593C284.543 117.738 284.421 116.877 284.113 116.076C284.035 115.76 283.88 115.467 283.663 115.224C283.445 114.981 283.172 114.794 282.866 114.681C282.669 114.614 282.454 114.618 282.259 114.695C282.065 114.771 281.904 114.913 281.805 115.097C281.656 115.371 281.708 115.572 281.649 115.586C281.589 115.601 281.448 115.408 281.545 115C281.616 114.757 281.768 114.545 281.975 114.399C282.265 114.205 282.62 114.133 282.963 114.198C283.371 114.299 283.746 114.502 284.053 114.789C284.36 115.077 284.588 115.438 284.714 115.839C285.096 116.722 285.254 117.686 285.175 118.645C285.004 120.649 283.861 122.475 282.384 122.816C282.11 122.882 281.824 122.884 281.549 122.824C281.274 122.763 281.017 122.642 280.795 122.468C280.483 122.208 280.439 121.985 280.476 121.963Z" fill="#15261C"/>
<path d="M278.955 95.3665C277.626 96.2276 276.223 97.1109 274.642 97.2297C273.061 97.3485 271.272 96.4206 271.042 94.8692C270.938 94.1714 271.123 93.3846 270.67 92.8204C270.218 92.2563 269.119 92.3528 268.273 92.4196C266.803 92.5102 265.346 92.0928 264.148 91.2373C262.949 90.3818 262.081 89.1403 261.689 87.7208C260.946 88.812 259.172 88.7303 258.059 87.988C256.945 87.2457 256.24 86.0432 255.372 85.0188C254.503 83.9944 253.286 83.074 251.95 83.2298C251.207 83.3189 250.465 83.7495 249.723 83.6678C248.401 83.5193 247.785 81.9754 247.614 80.6986C247.444 79.4218 247.318 77.8778 246.212 77.143C245.105 76.4081 243.829 76.8238 242.611 76.9722C241.394 77.1207 239.82 76.8089 239.531 75.6287C239.486 75.3105 239.507 74.9866 239.591 74.6765C239.675 74.3665 239.821 74.0768 240.021 73.8249C240.873 72.6322 242.099 71.7591 243.505 71.3447C244.911 70.9304 246.415 70.9986 247.778 71.5386C248.324 69.8825 249.344 68.4231 250.711 67.3413C252.078 66.2594 253.733 65.6027 255.471 65.4525C257.208 65.3024 258.951 65.6654 260.484 66.4965C262.016 67.3276 263.272 68.5904 264.094 70.1282C265.195 69.198 266.5 68.5395 267.903 68.2055C269.306 67.8716 270.767 67.8716 272.17 68.2056C273.562 68.5609 274.851 69.2404 275.931 70.1886C277.01 71.1368 277.851 72.3268 278.383 73.6616C279.623 73.3861 280.915 73.4671 282.11 73.8954C283.306 74.3236 284.355 75.0815 285.138 76.0815C285.879 77.1016 286.309 78.3139 286.378 79.5727C286.446 80.8316 286.15 82.0834 285.524 83.1779C287.313 84.2394 288.827 86.0506 288.827 88.1216C288.827 90.1927 286.741 92.2043 284.745 91.6179C285.099 92.4462 285.14 93.3752 284.86 94.2315C284.58 95.0879 283.998 95.8132 283.223 96.2721C282.412 96.6817 281.479 96.7833 280.599 96.5581C279.719 96.3328 278.95 95.7961 278.435 95.0473" fill="#15261C"/>
<path d="M285.479 91.6548C285.515 92.0024 285.474 92.3537 285.359 92.6835C285.243 93.0133 285.056 93.3135 284.811 93.5625C284.295 94.1842 283.568 94.5939 282.769 94.7131C282.257 94.7833 281.735 94.74 281.241 94.586C280.747 94.4321 280.293 94.1714 279.912 93.8223L280.342 93.7704C279.786 94.6895 279.09 95.5161 278.279 96.2199C277.729 96.6945 277.098 97.0643 276.415 97.3111C275.761 97.533 275.06 97.5816 274.381 97.4522C273.807 97.3954 273.252 97.2131 272.755 96.918C272.259 96.623 271.833 96.2225 271.509 95.7449C271.127 95.1024 270.875 94.3912 270.766 93.6516C270.69 93.389 270.668 93.1139 270.7 92.8425C270.744 92.8425 270.826 93.1097 270.982 93.5848C271.175 94.2664 271.476 94.9128 271.872 95.4999C272.8 96.9845 275.896 97.7268 277.93 95.7671C278.697 95.1057 279.36 94.3325 279.897 93.4734L280.082 93.1839L280.327 93.414C280.647 93.7155 281.028 93.9445 281.444 94.0854C281.861 94.2263 282.303 94.2758 282.74 94.2306C283.442 94.155 284.095 93.8313 284.581 93.3175C284.99 92.8304 285.296 92.2645 285.479 91.6548Z" fill="#15261C"/>
<path d="M266.91 68.4496C266.91 68.4867 266.65 68.5164 266.167 68.6946C265.521 68.9542 264.968 69.4015 264.579 69.9787L264.453 70.1717L264.319 69.9787C263.084 68.2617 261.434 66.8853 259.524 65.9777C258.287 65.3925 256.942 65.0714 255.575 65.035C254.234 65.0174 252.909 65.3217 251.71 65.9223C250.512 66.5229 249.474 67.4023 248.686 68.4867C248.064 69.3691 247.662 70.387 247.513 71.4559L247.476 71.7677L247.172 71.6786C245.771 71.2809 244.271 71.4322 242.978 72.1017C241.966 72.6309 241.145 73.4643 240.632 74.4845C240.201 75.4166 239.966 76.4272 239.942 77.4537C239.852 77.1913 239.817 76.9136 239.838 76.6372C239.845 75.8682 240.015 75.1095 240.335 74.4103C240.843 73.2959 241.694 72.3728 242.762 71.7751C244.158 71.0125 245.794 70.8209 247.328 71.2407L246.986 71.4634C247.126 70.2976 247.549 69.1839 248.218 68.2195C249.053 67.048 250.16 66.0976 251.444 65.4509C252.729 64.8041 254.152 64.4804 255.589 64.508C257.034 64.5582 258.451 64.915 259.746 65.5546C261.712 66.5231 263.381 68.0025 264.579 69.8377H264.319C264.76 69.2264 265.392 68.7797 266.115 68.5684C266.366 68.4614 266.639 68.4205 266.91 68.4496Z" fill="#15261C"/>
<path d="M253.55 123.128C253.55 123.128 256.459 129.141 250.232 130.551C249.69 130.675 249.124 130.644 248.598 130.462C248.125 130.307 247.698 130.036 247.357 129.672C247.015 129.309 246.771 128.866 246.646 128.383L245.785 125.11C246.075 125.221 253.55 123.128 253.55 123.128Z" fill="#15261C"/>
<path d="M247.922 130.567C248.193 130.574 248.464 130.599 248.731 130.641C249.456 130.68 250.181 130.571 250.862 130.322C251.99 129.931 252.926 129.124 253.478 128.065C254.03 127.006 254.156 125.777 253.831 124.628C253.701 124.127 253.485 123.652 253.193 123.225L253.401 123.299C250.995 123.908 248.873 124.428 247.343 124.784L245.547 125.192C245.329 125.252 245.105 125.284 244.879 125.289C245.079 125.187 245.291 125.11 245.51 125.059L247.284 124.539C248.769 124.116 250.899 123.552 253.297 122.928H253.43L253.504 123.032C253.824 123.498 254.06 124.015 254.202 124.561C254.382 125.237 254.423 125.942 254.32 126.634C254.218 127.326 253.976 127.99 253.608 128.585C253.084 129.377 252.347 130.006 251.482 130.4C250.617 130.793 249.659 130.936 248.717 130.811C248.438 130.783 248.168 130.7 247.922 130.567Z" fill="#15261C"/>
<path d="M203.683 168.112C203.683 168.112 193.135 173.761 190.982 188.555C189.142 201.263 178.029 269.392 178.029 269.392L168.127 311.376H193.796L207.759 236.923L203.683 168.112Z" fill="#15261C"/>
<path d="M211.209 311.488L225.639 180.813L238.229 151.996L242.445 149.079L245.481 161.906L249.556 176.411L260.691 162.418L278.276 148.79L278.684 155.515L287.124 180.204L280.124 244.621V311.347L211.209 311.488Z" fill="white"/>
<path d="M242.727 311.377C242.75 311.262 242.762 311.145 242.764 311.028C242.764 310.775 242.764 310.441 242.816 310.011C242.816 309.083 242.897 307.784 242.957 306.099C243.075 302.662 243.239 297.748 243.447 291.691C243.877 279.524 244.553 262.741 245.518 244.183C246.483 225.626 247.574 208.85 248.413 196.676C248.843 190.626 249.155 185.727 249.43 182.297C249.541 180.627 249.63 179.328 249.697 178.385C249.697 177.962 249.697 177.643 249.749 177.368C249.768 177.253 249.768 177.135 249.749 177.02C249.724 177.135 249.706 177.251 249.697 177.368C249.697 177.621 249.637 177.955 249.593 178.378C249.504 179.306 249.385 180.605 249.229 182.282C248.925 185.675 248.524 190.581 248.056 196.653C247.114 208.79 245.978 225.603 245.005 244.124C244.033 262.644 243.417 279.48 243.083 291.631C242.92 297.718 242.808 302.64 242.756 306.047C242.756 307.724 242.719 309.016 242.712 309.966V310.983C242.702 311.114 242.707 311.246 242.727 311.377Z" fill="#15261C"/>
<path d="M301.505 240.717L321.718 178.133L285.946 158.908L278.479 150.816C278.479 150.816 276.883 184.391 276.638 193.284C276.393 202.176 272.473 235.884 270.699 256.379C269.771 267.328 270.365 285.626 270.915 295.937C271.546 307.762 271.412 311.674 271.412 311.674L306.412 311.481L294.832 265.398L301.505 240.717Z" fill="#15261C"/>
<path d="M228.067 158.758L203.682 168.111L199.896 258.791L190.477 311.495L217.378 311.999C217.623 305.578 224.467 252.073 224.467 252.073L233.456 168.341L240.5 150.444L228.067 158.758Z" fill="#15261C"/>
<path d="M228.514 158.262C228.349 158.412 228.2 158.579 228.069 158.759L226.836 160.244L222.256 165.922L222.16 166.041L222.286 166.138L226.168 169.055L226.22 168.736L221.67 170.161L221.521 170.205V170.354C221.611 178.386 221.722 188.503 221.841 199.467C222.034 212.828 222.212 224.958 222.345 233.769C222.435 238.126 222.501 241.667 222.553 244.161C222.59 245.356 222.62 246.299 222.642 246.982C222.642 247.279 222.642 247.524 222.642 247.724C222.634 247.808 222.634 247.893 222.642 247.977C222.652 247.893 222.652 247.808 222.642 247.724C222.642 247.531 222.642 247.286 222.642 246.982C222.642 246.299 222.642 245.349 222.642 244.154C222.642 241.66 222.642 238.119 222.598 233.761C222.501 224.943 222.375 212.828 222.242 199.452C222.086 188.488 221.937 178.378 221.818 170.346L221.677 170.539L226.22 169.055L226.562 168.951L226.272 168.736L222.472 165.885V166.1L226.925 160.34L228.098 158.796C228.252 158.63 228.391 158.451 228.514 158.262Z" fill="#15261C"/>
<path d="M272.902 245.891C272.902 245.891 272.947 245.809 272.999 245.646C273.051 245.483 273.14 245.223 273.236 244.904L274.149 242.135C274.944 239.737 276.124 236.271 277.646 232.01C278.388 229.879 279.256 227.556 280.162 225.047C281.152 222.388 282.005 219.68 282.716 216.934C284.251 210.626 285.445 204.24 286.294 197.804C287.533 188.897 288.327 180.501 288.817 173.308V173.212L288.743 173.138L284.816 169.426V169.73L288.528 166.932L288.669 166.821L288.565 166.68L281.847 157.661L279.999 155.226L279.509 154.602C279.39 154.461 279.331 154.395 279.323 154.402C279.364 154.482 279.411 154.559 279.464 154.632C279.583 154.803 279.732 155.018 279.91 155.293L281.684 157.779C283.257 159.969 285.507 163.072 288.268 166.887V166.635L284.557 169.404L284.371 169.545L284.542 169.716L288.439 173.487L288.372 173.316C287.845 180.516 287.021 188.904 285.789 197.812C284.94 204.232 283.763 210.604 282.263 216.904C281.516 219.799 280.682 222.496 279.761 224.995L277.304 231.95C275.82 236.233 274.699 239.715 273.956 242.135C273.585 243.352 273.311 244.295 273.14 244.933C273.066 245.238 272.999 245.475 272.947 245.676C272.925 245.746 272.91 245.818 272.902 245.891Z" fill="#15261C"/>
<g opacity="0.3">
<path d="M301.498 292.314L282.124 299.827L280.832 295.558L271.234 303.479L270.707 291.661L279.147 279.955L300.08 286.665L301.498 292.314Z" fill="#15261C"/>
</g>
<path d="M335.514 271.834C336.536 271.206 337.387 270.336 337.992 269.3C338.597 268.264 338.936 267.094 338.98 265.895C339.047 262.513 338.851 259.13 338.394 255.778C337.006 244.369 321.707 178.133 321.707 178.133L299.141 229.723L305.658 252.192L272.455 267.929L281.697 293.747C281.697 293.747 325.864 277.795 335.514 271.834Z" fill="#15261C"/>
<path d="M312.888 193.402C312.797 193.587 312.728 193.781 312.68 193.981L312.168 195.666C311.73 197.196 311.129 199.304 310.387 201.887C308.902 207.15 306.876 214.417 304.812 222.501C302.748 230.584 301.1 237.955 300.083 243.322C299.564 246.009 299.178 248.184 298.948 249.699C298.836 250.441 298.747 250.983 298.68 251.436C298.643 251.636 298.623 251.84 298.621 252.044C298.702 251.855 298.757 251.655 298.784 251.45C298.873 251.005 298.992 250.434 299.141 249.728C299.46 248.17 299.883 246.017 300.44 243.397C301.553 238.052 303.246 230.696 305.309 222.612C307.373 214.528 309.347 207.254 310.743 201.976C311.411 199.378 311.968 197.255 312.361 195.711C312.532 195.006 312.673 194.442 312.777 193.996C312.839 193.804 312.876 193.604 312.888 193.402Z" fill="#15261C"/>
<path d="M324.527 277.142C324.453 277.152 324.381 277.172 324.312 277.201L323.689 277.416L321.298 278.307L312.391 281.699L281.652 293.576L281.971 293.725L275.78 276.399C274.748 273.504 273.724 270.661 272.737 267.9L272.611 268.212L305.428 252.534C309.844 251.087 314.635 251.288 318.916 253.098C320.067 253.591 321.179 254.171 322.241 254.835L323.065 255.37C323.154 255.437 323.251 255.492 323.354 255.533C323.273 255.457 323.186 255.388 323.095 255.325L322.3 254.746C321.251 254.044 320.143 253.433 318.99 252.92C317.155 252.105 315.204 251.584 313.207 251.376C310.549 251.115 307.865 251.392 305.317 252.193L272.432 267.744L272.225 267.841L272.306 268.056L275.342 276.555L281.555 293.873L281.637 294.111L281.875 294.014L312.502 281.981L321.373 278.455L323.733 277.498L324.342 277.238L324.527 277.142Z" fill="#15261C"/>
<path d="M249.975 175.892C250.312 175.642 250.625 175.361 250.91 175.053L253.382 172.618C255.527 170.458 258.422 167.526 261.74 164.171H261.384C263.027 166.197 263.868 168.758 263.744 171.364L263.707 171.935L264.153 171.579C268.384 168.187 271.806 164.898 274.374 162.59C275.643 161.447 276.675 160.534 277.388 159.918C277.776 159.613 278.14 159.281 278.479 158.923C278.051 159.171 277.646 159.457 277.269 159.777C276.527 160.348 275.45 161.224 274.144 162.337C271.524 164.564 268.042 167.838 263.841 171.186L264.249 171.401C264.308 170.465 264.238 169.526 264.041 168.61C263.698 166.855 262.911 165.217 261.755 163.852L261.577 163.644L261.391 163.837L253.159 172.411C252.194 173.45 251.402 174.296 250.784 174.949C250.487 175.239 250.216 175.554 249.975 175.892Z" fill="#15261C"/>
<path d="M238.787 157.408C238.739 157.653 238.726 157.903 238.75 158.151C238.75 158.655 238.75 159.398 238.846 160.318C239.057 162.822 239.471 165.305 240.086 167.741L240.242 168.357L240.539 167.793C241.385 166.153 242.477 164.651 243.775 163.339C244.146 162.968 244.518 162.597 244.896 162.3L244.488 162.159C245.241 165.525 246.251 168.828 247.509 172.039C247.984 173.256 248.407 174.221 248.719 174.882C248.856 175.233 249.033 175.566 249.246 175.877C249.164 175.509 249.044 175.151 248.89 174.808C248.608 174.065 248.251 173.071 247.836 171.92C246.68 168.732 245.718 165.478 244.956 162.174L244.859 161.758L244.54 162.033C244.154 162.359 243.76 162.716 243.382 163.102C242.045 164.438 240.929 165.979 240.079 167.667L240.524 167.719C239.887 165.297 239.416 162.834 239.114 160.348C238.921 158.462 238.846 157.408 238.787 157.408Z" fill="#15261C"/>
<g opacity="0.3">
<path d="M221.732 170.339L218.979 174.154C218.979 174.154 219.758 231.646 222.69 245.92L221.732 170.339Z" fill="#15261C"/>
</g>
<path d="M190.477 311.488C190.477 311.488 190.477 311.391 190.514 311.213C190.551 311.035 190.595 310.753 190.655 310.412C190.781 309.669 190.974 308.652 191.211 307.324C191.724 304.629 192.451 300.739 193.364 295.922C195.22 286.235 197.818 272.792 200.706 257.671V257.708C200.706 255.682 200.661 253.529 200.639 251.354C200.475 234.474 200.327 219.197 200.216 208.122C200.216 202.599 200.156 198.131 200.134 195.02V191.457C200.134 191.064 200.134 190.76 200.134 190.53C200.122 190.426 200.122 190.321 200.134 190.218C200.144 190.321 200.144 190.426 200.134 190.53V191.457C200.134 192.289 200.178 193.484 200.208 195.02C200.26 198.131 200.327 202.599 200.416 208.122C200.55 219.197 200.743 234.474 200.95 251.346C200.95 253.529 200.995 255.674 201.017 257.701V257.745C198.048 272.858 195.443 286.294 193.55 295.966L191.323 307.353C191.056 308.675 190.84 309.706 190.692 310.426L190.521 311.221C190.518 311.311 190.503 311.401 190.477 311.488Z" fill="#15261C"/>
<path d="M193.644 255.541C193.644 255.652 191.714 255.489 189.36 255.659C187.007 255.83 185.122 256.238 185.1 256.127C186.449 255.595 187.881 255.306 189.331 255.273C190.773 255.111 192.232 255.201 193.644 255.541Z" fill="#15261C"/>
<path d="M272.836 269.682C272.836 269.682 254.115 273.586 251.309 274.195C248.503 274.804 237.539 283.058 236.463 283.667C235.386 284.275 232.202 286.287 232.202 286.287C232.202 286.287 234.243 289.642 237.873 288.425C240.061 287.69 242.101 286.574 243.901 285.129L236.158 292.188L227.34 297.577C226.808 297.891 226.406 298.384 226.205 298.967C226.003 299.551 226.016 300.187 226.241 300.762C226.369 301.128 226.63 301.433 226.973 301.615C227.316 301.797 227.715 301.842 228.09 301.742C230.591 301.296 238.719 298.127 238.719 298.127C238.719 298.127 239.098 303.033 243.574 303.642C243.574 303.642 244.539 307.851 248.436 306.953C248.436 306.953 252.266 310.093 255.651 308.296C259.036 306.5 267.847 302.907 269.666 299.255C270.867 296.883 272.242 294.603 273.778 292.433L280.585 291.26L272.836 269.682Z" fill="#15261C"/>
<path d="M238.726 298.126C238.786 298.26 241.131 297.317 243.863 295.803C246.595 294.288 248.547 292.618 248.443 292.492C248.339 292.366 246.29 293.813 243.581 295.298C240.872 296.783 238.652 297.97 238.726 298.126Z" fill="#15261C"/>
<path d="M253.01 297.399C252.921 297.251 250.605 298.557 247.947 300.42C245.29 302.284 243.107 303.746 243.182 303.879C243.256 304.013 245.601 302.773 248.274 300.91C250.946 299.047 253.121 297.533 253.01 297.399Z" fill="#15261C"/>
<path d="M256.505 301.163C256.401 301.059 254.701 302.484 252.422 304.028C250.143 305.572 248.347 306.915 248.443 307.056C248.54 307.198 250.462 306.069 252.749 304.503C255.035 302.937 256.631 301.281 256.505 301.163Z" fill="#15261C"/>
<path d="M254.249 277.357C253.57 277.361 252.9 277.508 252.282 277.787C250.752 278.345 249.323 279.147 248.051 280.163C246.783 281.178 245.641 282.342 244.651 283.629C244.2 284.133 243.839 284.711 243.582 285.337C243.738 285.463 245.497 282.932 248.407 280.623C251.317 278.315 254.301 277.528 254.249 277.357Z" fill="#15261C"/>
<path d="M352.592 204.686C352.696 205.539 344.909 226.673 344.909 226.673L334.034 187.256L319.047 190.381C319.047 190.381 323.115 244.859 325.728 252.223C328.541 260.084 344.983 265.963 354.18 255.303C356.808 252.252 365.203 232.789 365.203 232.789L352.592 204.686Z" fill="#15261C"/>
<path d="M334.034 187.257C334.034 187.257 335.86 182.365 334.412 178.141C332.965 173.918 328.095 170.637 328.392 168.113C328.689 165.589 326.098 159.487 323.745 159.948C321.392 160.408 319.663 162.716 321.645 166.628C322.916 169.184 323.966 171.844 324.785 174.578C324.785 174.578 300.289 161.959 298.321 161.692C296.354 161.425 294.328 161.15 293.808 162.724C293.289 164.297 298.173 166.316 298.173 166.316L304.742 174.794C305.835 178.024 307.371 181.087 309.308 183.894C312.128 187.673 317.688 190.196 317.688 190.196L324.822 198.696C324.822 198.696 335.637 195.036 334.034 187.257Z" fill="#15261C"/>
<path d="M298.587 166.665C298.624 166.665 298.802 166.516 299.188 166.338C299.732 166.092 300.338 166.019 300.925 166.13C302.409 166.397 304.302 167.659 305.854 169.433C307.154 171.015 308.263 172.744 309.157 174.585C309.491 175.375 309.917 176.122 310.426 176.812C310.264 175.96 309.982 175.135 309.588 174.362C308.797 172.412 307.708 170.596 306.358 168.981C304.718 167.117 302.706 165.826 300.984 165.64C300.307 165.555 299.623 165.716 299.054 166.093C298.668 166.39 298.557 166.628 298.587 166.665Z" fill="#15261C"/>
<path d="M307.553 169.827C307.457 169.99 309.038 171.052 311.072 172.21C313.105 173.368 314.835 174.169 314.932 174.014C315.028 173.858 313.447 172.789 311.406 171.631C309.364 170.473 307.642 169.671 307.553 169.827Z" fill="#15261C"/>
<path d="M320.518 175.268C320.599 175.113 318.669 174.467 316.405 175.231C314.141 175.996 312.991 177.644 313.154 177.718C313.317 177.792 314.549 176.53 316.621 175.862C318.692 175.194 320.488 175.469 320.518 175.268Z" fill="#15261C"/>
<path d="M380.5 167.118L388.962 163.451L418.12 164.193L429.069 168.796L431.296 196.795C431.296 196.795 389.831 211.552 389.668 211.552C389.504 211.552 364.979 187.494 364.979 187.494L380.5 167.118Z" fill="#15261C"/>
<path d="M370.644 183.634C372.911 184.354 375.219 184.939 377.555 185.386C389.481 188.052 401.914 187.342 413.46 183.337L424.699 179.433C424.699 179.433 443.256 216.548 443.59 217.832C443.924 219.116 427.46 311.748 427.46 311.748H361.439L363.05 258.51C363.05 258.51 361.937 209.585 362.122 209.036L370.644 183.634Z" fill="#15261C"/>
<path d="M388.219 160L379.653 166.049C373.062 168.143 361.348 172.144 357.792 175.699C352.418 181.014 345.381 216.726 345.381 216.726C345.381 216.726 344.149 213.661 341.35 213.661L322.154 243.731C322.154 243.731 324.099 259.461 328.731 261.109C333.363 262.757 346.094 261.851 346.279 261.851H354.222L351.253 311.682L366.722 311.749L367.346 256.358L370.226 221.826L378.25 189.64L388.219 160Z" fill="#15261C"/>
<path d="M356.04 196.81C356.08 197.033 356.1 197.259 356.1 197.485L356.189 199.415C356.256 201.1 356.322 203.527 356.374 206.534C356.486 212.539 356.486 220.838 356.211 230.005C355.936 239.173 355.432 247.464 354.964 253.477C354.734 256.446 354.519 258.896 354.355 260.566C354.266 261.368 354.199 262.006 354.148 262.489C354.132 262.713 354.1 262.937 354.051 263.157C354.03 262.932 354.03 262.706 354.051 262.481C354.051 261.999 354.125 261.36 354.177 260.551C354.289 258.829 354.452 256.417 354.652 253.455C355.038 247.464 355.491 239.173 355.766 230.013C356.04 220.853 356.085 212.561 356.055 206.556C356.055 203.587 356.055 201.167 356.011 199.445C356.011 198.636 356.011 197.96 356.011 197.507C356.002 197.274 356.012 197.041 356.04 196.81Z" fill="#15261C"/>
<path d="M355.847 194.212C355.314 192.883 354.909 191.506 354.637 190.099C354.234 188.727 353.973 187.316 353.857 185.891C354.807 188.588 355.474 191.377 355.847 194.212Z" fill="#15261C"/>
<g opacity="0.3">
<path d="M356.11 198.354C356.028 198.747 355.954 199.133 355.872 199.527C351.975 218.975 351.737 242.18 354.224 261.88C354.966 261.977 357.654 201.383 356.028 198.785" fill="#15261C"/>
</g>
<path d="M463.636 189.387C461.75 181.741 457.341 178.104 457.341 178.104L438.041 203.142L445.286 311.682H473.137L469.953 256.58C469.953 256.58 465.521 197.062 463.636 189.387Z" fill="#15261C"/>
<path d="M455.282 184.443L459.06 179.707C453.664 174.45 447.278 170.317 440.272 167.548C434.838 165.492 426.517 161.743 426.517 161.743L420.542 154.372L419.094 175.646C419.094 175.646 418.04 222.642 417.298 231.156C416.555 239.321 407.989 276.615 408.101 311.726L449.774 311.659L440.51 257.062C440.51 257.062 444.295 222.263 444.533 221.127C444.77 219.992 455.282 184.443 455.282 184.443Z" fill="#15261C"/>
<path d="M457.332 184.176C457.428 184.25 454.407 187.888 450.592 192.29C446.776 196.691 443.607 200.195 443.518 200.121C443.428 200.047 446.442 196.409 450.258 192.007C454.073 187.606 457.258 184.095 457.332 184.176Z" fill="#15261C"/>
<path d="M373.249 196.201C373.216 196.082 373.193 195.96 373.182 195.837C373.182 195.555 373.115 195.206 373.063 194.776C372.967 193.789 372.833 192.438 372.67 190.76L372.9 190.842C370.155 193.971 367.737 197.374 365.685 200.996L365.225 201.813L365.299 200.878C366.014 191.344 368.989 182.118 373.976 173.962C375.209 171.824 376.292 170.146 377.042 168.988L377.933 167.674C378.029 167.515 378.141 167.366 378.267 167.229C378.193 167.399 378.106 167.562 378.007 167.719C377.792 168.068 377.525 168.521 377.191 169.077C376.448 170.258 375.446 171.965 374.221 174.11C371.013 179.651 368.613 185.623 367.095 191.844C366.411 194.83 365.94 197.862 365.685 200.915L365.299 200.796C367.383 197.162 369.854 193.765 372.67 190.664L372.885 190.441V190.745C373.004 192.423 373.093 193.774 373.16 194.761C373.16 195.199 373.197 195.548 373.212 195.83C373.242 195.951 373.255 196.076 373.249 196.201Z" fill="#15261C"/>
<path d="M338.297 258.05C338.334 257.907 338.389 257.77 338.46 257.641L338.987 256.491C339.225 255.994 339.514 255.385 339.811 254.665C340.108 253.945 340.494 253.143 340.836 252.223C341.177 251.302 341.578 250.308 341.949 249.209C342.32 248.11 342.691 246.945 343.07 245.705C343.839 242.999 344.461 240.254 344.933 237.481C345.374 234.702 345.662 231.902 345.794 229.092C345.831 227.793 345.883 226.561 345.854 225.381C345.824 224.201 345.802 223.154 345.757 222.174C345.713 221.194 345.623 220.304 345.564 219.532C345.505 218.76 345.438 218.084 345.364 217.535C345.289 216.986 345.267 216.607 345.23 216.28C345.21 216.133 345.21 215.983 345.23 215.835C345.278 215.974 345.311 216.119 345.326 216.265C345.386 216.592 345.453 217.008 345.534 217.52C345.616 218.032 345.727 218.73 345.802 219.509C345.876 220.289 346.002 221.172 346.047 222.152C346.091 223.132 346.188 224.216 346.195 225.374C346.202 226.532 346.195 227.771 346.195 229.085C345.993 234.743 345.073 240.353 343.456 245.779C343.062 247.027 342.714 248.214 342.298 249.298C341.882 250.382 341.511 251.391 341.132 252.304C340.754 253.217 340.39 254.019 340.056 254.732C339.722 255.444 339.433 256.046 339.165 256.535L338.572 257.656C338.5 257.8 338.407 257.933 338.297 258.05Z" fill="#15261C"/>
<path d="M426.518 161.766C426.552 161.967 426.567 162.17 426.563 162.374C426.563 162.812 426.563 163.399 426.615 164.134C426.615 165.7 426.674 167.897 426.711 170.599C426.771 176.062 426.838 183.604 426.8 191.94C426.8 193.811 426.763 195.652 426.741 197.411C426.741 198.294 426.741 199.17 426.659 200.031C426.659 200.247 426.659 200.454 426.615 200.677V200.848C426.62 200.882 426.62 200.917 426.615 200.952C426.616 200.972 426.616 200.991 426.615 201.011L426.563 201.056C426.527 201.069 426.488 201.069 426.452 201.056C426.42 201.063 426.387 201.063 426.355 201.056C426.241 200.997 426.136 200.922 426.043 200.833C425.724 200.544 425.435 200.239 425.153 199.942C422.926 197.522 420.973 195.229 419.288 193.262L419.548 193.187C419.036 196.409 418.613 199.037 418.316 200.907C418.167 201.791 418.049 202.488 417.96 203.008L417.856 203.557C417.849 203.621 417.834 203.683 417.811 203.743C417.8 203.679 417.8 203.614 417.811 203.55C417.811 203.401 417.811 203.216 417.871 202.993C417.937 202.474 418.034 201.768 418.153 200.878C418.412 199.007 418.791 196.372 419.251 193.143L419.296 192.824L419.504 193.069C421.204 195.021 423.163 197.307 425.442 199.697C425.724 199.994 426.014 200.291 426.318 200.566L426.504 200.714C426.504 200.714 426.504 200.774 426.504 200.848C426.504 200.922 426.429 200.803 426.355 200.811V200.766V200.618C426.355 200.417 426.355 200.202 426.4 199.994C426.437 199.141 426.459 198.272 426.474 197.389C426.474 195.615 426.474 193.789 426.526 191.925C426.526 183.612 426.526 176.085 426.526 170.592C426.526 167.89 426.526 165.685 426.526 164.119C426.526 163.376 426.526 162.797 426.526 162.359C426.511 162.162 426.509 161.964 426.518 161.766Z" fill="#15261C"/>
<path d="M443.515 205.703C443.519 205.787 443.519 205.871 443.515 205.955C443.515 206.141 443.515 206.386 443.515 206.697C443.515 207.373 443.433 208.33 443.374 209.555C443.233 212.064 443.025 215.664 442.772 220.118C442.223 229.07 441.466 241.474 440.62 255.348V255.303C440.82 256.484 441.043 257.738 441.258 259.015C443.76 273.564 446.031 286.74 447.672 296.293C448.473 301.052 449.156 304.912 449.572 307.599C449.78 308.92 449.95 309.952 450.069 310.679C450.114 311.013 450.158 311.28 450.188 311.481C450.198 311.572 450.198 311.664 450.188 311.756L450.121 311.488C450.121 311.288 450.032 311.028 449.965 310.694C449.832 309.952 449.646 308.942 449.401 307.628C448.919 304.941 448.228 301.089 447.382 296.345C445.704 286.792 443.403 273.623 440.857 259.082C440.642 257.812 440.419 256.558 440.219 255.37V255.326C441.117 241.452 441.911 229.056 442.49 220.096C442.795 215.642 443.04 212.057 443.233 209.548C443.329 208.323 443.396 207.365 443.448 206.697L443.515 205.955C443.503 205.871 443.503 205.786 443.515 205.703Z" fill="#15261C"/>
<path d="M379.085 90.2969C372.448 90.4379 366.762 100.184 367.742 105.677C368.225 108.342 369.442 111.408 367.26 113.383C365.077 115.357 360.579 115.171 358.5 117.183C358.5 117.183 355.865 119.781 356.155 123.122C356.444 126.462 355.888 130.975 353.186 132.17L366.636 136.936C368.024 135.548 368.581 133.35 369.969 131.962C368.38 133.447 366.837 138.643 374.037 139.207L378.491 135.303C390.731 138.42 403.603 142.303 413.379 137.04" fill="#15261C"/>
<path d="M441.446 119.499C440.563 116.982 439.115 114.652 438.477 112.076C437.163 106.486 439.806 100.117 436.992 95.1142C434.973 91.5585 430.772 89.8661 426.801 88.7378C422.829 87.6095 419.044 86.934 416.052 84.1206C413.825 82.057 412.578 79.1917 410.388 77.1207C407.271 74.1515 402.728 73.231 398.422 73.0455C393.969 72.8525 389.426 73.3572 385.491 75.3614C381.557 77.3657 378.306 81.0475 377.682 85.3825C377.371 87.4981 377.682 89.7102 377.037 91.7515C376.339 93.9784 374.602 95.7674 373.548 97.8755C372.482 100.134 372.206 102.685 372.765 105.119C373.323 107.553 374.684 109.729 376.628 111.296L407.686 149.555C414.107 151.826 421.1 143.757 425.947 139.007C430.794 134.256 443.681 125.875 441.446 119.499Z" fill="#15261C"/>
<path d="M377.34 106.746C378.431 97.913 385.015 87.3871 393.886 88.8346L421.351 97.4305C424.045 97.8759 425.493 100.006 425.278 102.701L419.614 168.291C419.681 168.291 418.931 169.345 418.998 169.36C419.064 169.375 411.575 187.761 393.477 180.999C389.892 179.663 388.281 180.903 387.776 176.798C386.99 176.486 383.256 175.194 383.278 174.734L388.222 159.999C388.474 154.625 388.637 152.999 388.63 153.044C388.623 153.088 377.295 150.913 375.803 135.971C375.038 128.585 376.13 116.56 377.34 106.746Z" fill="#15261C"/>
<path d="M399.01 119.455C398.979 119.951 399.143 120.44 399.467 120.817C399.792 121.195 400.251 121.43 400.747 121.474C400.988 121.508 401.233 121.494 401.469 121.433C401.704 121.371 401.925 121.263 402.119 121.115C402.312 120.967 402.474 120.782 402.596 120.571C402.717 120.36 402.795 120.127 402.825 119.885C402.856 119.388 402.692 118.898 402.368 118.519C402.043 118.141 401.584 117.904 401.088 117.859C400.846 117.825 400.601 117.84 400.365 117.903C400.129 117.965 399.909 118.074 399.715 118.222C399.522 118.371 399.36 118.556 399.239 118.768C399.118 118.979 399.04 119.213 399.01 119.455Z" fill="#15261C"/>
<path d="M379.924 118.964C379.891 119.46 380.054 119.949 380.377 120.327C380.7 120.704 381.159 120.94 381.654 120.983C381.895 121.018 382.14 121.004 382.376 120.942C382.612 120.881 382.833 120.773 383.026 120.625C383.22 120.477 383.382 120.292 383.503 120.081C383.624 119.87 383.702 119.637 383.732 119.395C383.763 118.899 383.6 118.41 383.277 118.032C382.955 117.653 382.497 117.416 382.003 117.368C381.761 117.334 381.515 117.348 381.279 117.41C381.043 117.472 380.821 117.581 380.628 117.729C380.434 117.878 380.272 118.064 380.151 118.276C380.031 118.488 379.953 118.722 379.924 118.964Z" fill="#15261C"/>
<path d="M379.095 113.086C379.311 113.427 381.07 112.284 383.304 112.566C385.538 112.848 387.016 114.333 387.283 114.051C387.416 113.924 387.238 113.308 386.607 112.64C385.776 111.771 384.669 111.218 383.475 111.074C382.283 110.935 381.08 111.219 380.075 111.876C379.311 112.395 378.991 112.93 379.095 113.086Z" fill="#15261C"/>
<path d="M399.525 114.949C399.792 115.268 401.522 113.976 403.92 114.036C406.317 114.095 408.039 115.401 408.307 115.097C408.44 114.963 408.173 114.399 407.423 113.791C406.417 113.016 405.189 112.584 403.92 112.558C402.661 112.532 401.429 112.924 400.416 113.672C399.659 114.258 399.392 114.808 399.525 114.949Z" fill="#15261C"/>
<path d="M391.462 129.001C391.462 128.882 390.208 128.592 388.152 128.206C387.625 128.125 387.135 127.991 387.068 127.627C387.054 127.086 387.209 126.554 387.513 126.106C388.077 124.874 388.679 123.582 389.302 122.231C391.796 116.716 393.637 112.165 393.415 112.061C393.192 111.957 390.98 116.359 388.486 121.882L386.734 125.801C386.368 126.412 386.228 127.132 386.34 127.835C386.408 128.022 386.516 128.192 386.657 128.332C386.799 128.472 386.969 128.579 387.157 128.644C387.447 128.736 387.745 128.796 388.048 128.823C390.149 129.03 391.448 129.112 391.462 129.001Z" fill="#15261C"/>
<path d="M388.608 153.044C395.627 153.559 402.652 152.136 408.917 148.931C408.917 148.931 403.253 159.457 388.393 157.208L388.608 153.044Z" fill="#15261C"/>
<path d="M399.59 107.986C399.761 108.558 401.817 108.409 404.237 108.84C406.657 109.27 408.557 110.035 408.906 109.582C409.062 109.352 408.75 108.84 407.993 108.224C406.986 107.49 405.818 107.008 404.586 106.821C403.35 106.592 402.077 106.663 400.874 107.028C399.991 107.333 399.523 107.741 399.59 107.986Z" fill="#15261C"/>
<path d="M379.733 105.759C380.127 106.249 381.775 105.863 383.727 105.952C385.679 106.041 387.312 106.471 387.72 106.011C387.899 105.781 387.668 105.269 386.978 104.823C386.018 104.221 384.912 103.892 383.779 103.873C382.655 103.817 381.537 104.074 380.55 104.616C379.822 105.016 379.57 105.491 379.733 105.759Z" fill="#15261C"/>
<path d="M450.28 116.671C448.87 114.095 451.594 111.215 449.426 108.839C447.452 106.664 442.248 106.612 440.4 104.385C438.915 102.656 438.915 102.203 438.841 100.585C438.782 98.5509 437.854 90.0293 425.279 88.2923L423.535 96.0419C422.748 95.6782 421.931 95.359 421.13 95.0695C410.876 91.3551 400.219 88.8636 389.381 87.6465C388.075 89.8734 389.381 92.8426 391.43 94.394C393.479 95.9454 396.114 96.5393 398.556 97.3632C400.998 98.1872 403.522 99.5902 404.562 101.914C405.675 104.415 404.829 107.414 405.816 109.968C407.501 114.355 413.759 115.668 415.429 120.07C416.683 123.403 414.79 127.003 414.36 130.529C414.138 132.542 414.392 134.578 415.103 136.473C415.813 138.369 416.96 140.071 418.45 141.441C420.811 143.586 424.834 147.476 425.131 146.697L458.742 125.912C460.709 121.236 452.217 120.204 450.28 116.671Z" fill="#15261C"/>
<path d="M443.018 135.244C443.038 135.167 443.066 135.092 443.1 135.021C443.193 134.802 443.27 134.576 443.33 134.345C443.572 133.47 443.61 132.551 443.442 131.658C443.192 130.232 442.48 128.927 441.415 127.947C440.752 127.34 439.952 126.902 439.084 126.67C438.164 126.41 437.139 126.328 436.115 125.972C435.567 125.8 435.061 125.514 434.63 125.133C434.201 124.73 433.869 124.236 433.658 123.686C433.259 122.528 433.112 121.298 433.227 120.078C433.367 118.804 433.385 117.518 433.279 116.241C433.194 115.585 432.977 114.954 432.641 114.385C432.28 113.81 431.796 113.323 431.223 112.96C429.967 112.265 428.605 111.781 427.192 111.527C425.683 111.253 424.231 110.72 422.902 109.953C422.234 109.516 421.678 108.929 421.276 108.238C420.894 107.544 420.628 106.792 420.489 106.012C420.185 104.438 420.185 102.827 419.888 101.253C419.578 99.7178 418.882 98.2862 417.867 97.093C416.851 95.8997 415.55 94.984 414.083 94.4316C412.639 93.9828 411.141 93.733 409.63 93.6893C408.875 93.64 408.128 93.5055 407.403 93.2885C406.693 93.0761 406.043 92.6968 405.51 92.1825C404.463 91.1284 404.099 89.7254 403.639 88.471C403.23 87.2576 402.573 86.1427 401.709 85.1974C400.12 83.4959 397.979 82.4124 395.667 82.1391C393.755 81.9258 391.825 82.3372 390.166 83.3119C388.919 84.042 387.841 85.0288 387.004 86.2069C386.479 86.9522 386.071 87.7732 385.794 88.6417C385.716 88.8632 385.649 89.0887 385.594 89.3172C385.576 89.3984 385.551 89.4778 385.52 89.5547C385.571 89.2386 385.643 88.9262 385.735 88.6194C385.995 87.737 386.39 86.9006 386.908 86.1401C387.739 84.9343 388.82 83.9216 390.077 83.1709C391.765 82.1623 393.733 81.725 395.689 81.9238C398.061 82.1907 400.261 83.2933 401.895 85.0341C402.787 85.9982 403.467 87.1386 403.892 88.3819C404.352 89.6215 404.723 90.9874 405.71 91.9672C406.697 92.947 408.175 93.2588 409.622 93.385C411.152 93.4193 412.668 93.6692 414.128 94.1273C415.642 94.6922 416.987 95.6344 418.036 96.8646C419.084 98.0948 419.801 99.5722 420.118 101.157C420.423 102.775 420.423 104.386 420.72 105.915C420.846 106.674 421.096 107.406 421.462 108.083C421.837 108.739 422.364 109.297 422.998 109.708C425.559 111.356 428.826 111.148 431.305 112.722C431.9 113.105 432.407 113.611 432.789 114.207C433.137 114.81 433.361 115.476 433.45 116.166C433.557 117.459 433.538 118.76 433.391 120.049C433.271 121.237 433.408 122.436 433.792 123.567C433.987 124.085 434.296 124.552 434.697 124.933C435.116 125.333 435.621 125.63 436.174 125.801C437.169 126.15 438.201 126.247 439.144 126.544C440.033 126.797 440.852 127.254 441.534 127.88C442.609 128.89 443.324 130.225 443.568 131.68C443.728 132.589 443.669 133.523 443.397 134.405C443.328 134.631 443.241 134.852 443.137 135.065L443.018 135.244Z" fill="#15261C"/>
<path d="M398.717 132.044C398.59 131.853 398.405 131.707 398.19 131.628C397.935 131.591 397.675 131.635 397.447 131.755L391.346 134.167C391.509 137.552 393.654 138.859 395.265 138.888C396.069 138.893 396.86 138.678 397.551 138.266C398.242 137.853 398.807 137.26 399.184 136.55C399.531 135.829 399.671 135.026 399.589 134.231C399.506 133.435 399.204 132.678 398.717 132.044Z" fill="#15261C"/>
<path d="M394.412 138.77C395.313 138.824 396.215 138.679 397.055 138.347C397.499 138.177 397.906 137.921 398.251 137.593C398.596 137.266 398.873 136.874 399.066 136.439C399.486 135.332 399.486 134.109 399.066 133.002C398.887 132.543 398.636 132.115 398.324 131.733L398.539 131.785C396.468 132.616 394.598 133.269 393.254 133.648C392.531 133.902 391.785 134.089 391.027 134.205C391.711 133.891 392.415 133.626 393.135 133.41C394.457 132.943 396.298 132.275 398.332 131.436L398.458 131.384L398.547 131.488C398.888 131.898 399.159 132.362 399.349 132.861C399.815 134.054 399.815 135.379 399.349 136.572C399.135 137.045 398.827 137.469 398.444 137.818C398.061 138.168 397.611 138.436 397.122 138.606C396.482 138.856 395.796 138.968 395.11 138.933C394.868 138.929 394.63 138.874 394.412 138.77Z" fill="#15261C"/>
<path d="M127.334 231.505L137.608 228.536L150.346 223.726L160.463 218.24C160.463 218.24 161.347 217.364 160.107 216.273C158.867 215.182 153.367 218.233 153.367 218.233L149.01 219.858C149.01 219.858 145.298 220.155 145.543 219.814C145.788 219.472 151.482 216.711 151.482 216.711L161.198 211.426C161.198 211.426 163.937 210.008 163.091 208.189C162.683 207.328 161.673 206.816 159.81 207.529C157.947 208.241 155.008 210.09 153.953 210.498C152.899 210.906 146.894 213.623 146.894 213.623L159.335 205.101C159.335 205.101 163.388 202.689 162.089 200.982C160.79 199.274 158.318 201.152 156.893 201.724C155.468 202.295 147.666 207.261 144.623 208.642C142.017 209.83 142.648 208.843 142.648 208.843L150.027 204.285C153.285 202.273 155.757 200.276 153.634 198.955C152.254 198.094 146.011 201.42 146.011 201.42L136.791 206.571L132.397 208.516L136.056 205.235C137.804 203.95 139.186 202.23 140.065 200.247C141.349 197.077 138.744 196.973 138.744 196.973L123.705 207.261C121.366 209.303 118.605 219.138 118.605 219.138L89.5586 230.763L101.599 248.378L127.334 231.505Z" fill="#15261C"/>
<path d="M131.991 208.196C131.991 208.196 132.177 208.36 132.444 208.723C132.808 209.237 133.124 209.784 133.387 210.356C134.265 212.268 134.579 214.391 134.292 216.475C134.005 218.559 133.13 220.518 131.769 222.122C131.368 222.61 130.918 223.055 130.425 223.451C130.255 223.607 130.062 223.737 129.853 223.837C129.809 223.777 130.596 223.191 131.561 221.951C132.832 220.347 133.649 218.431 133.926 216.403C134.203 214.375 133.93 212.309 133.134 210.423C132.541 208.983 131.932 208.196 131.991 208.196Z" fill="#15261C"/>
<path d="M131.2 168.052C131.423 166.991 132.507 166.367 133.427 165.729C135.006 164.583 136.24 163.026 136.998 161.229C137.755 159.431 138.007 157.46 137.725 155.53C137.37 153.598 136.503 151.797 135.215 150.315C133.926 148.833 132.262 147.724 130.399 147.105C129.444 146.9 128.532 146.53 127.704 146.014C125.804 144.529 126.412 141.604 125.692 139.333C124.163 134.523 117.134 133.572 114.61 129.178C113.073 126.498 113.585 123.24 113.726 120.144C113.867 117.049 113.266 113.501 110.542 111.979C109.057 111.155 107.239 111.103 105.806 110.22C102.837 108.401 102.97 104.281 101.879 101.03C100.157 95.9303 94.2855 92.5157 88.8667 93.4584C88.8667 93.4584 91.0268 88.8413 85.3184 86.4733C78.4224 83.6229 77.9845 88.4479 74.8074 85.4415C73.0558 83.8781 70.8341 82.9414 68.4919 82.7788C66.1497 82.6162 63.8199 83.237 61.8691 84.5433C60.6814 85.3821 59.6867 86.4807 58.3877 87.1414C56.8066 87.9579 54.9582 88.0396 53.1916 88.4182C46.5108 89.8508 41.3147 96.1678 41.3815 102.811L84.9102 176.908C86.3948 183.953 82.0078 187.115 88.1837 191.071C89.4753 191.895 98.7467 194.345 100.276 194.605C102.176 194.931 106.756 195.095 108.523 194.33C112.361 192.675 118.173 190.158 119.657 186.35C121.741 187.214 124.041 187.412 126.241 186.918C128.442 186.424 130.436 185.261 131.95 183.589C133.363 181.879 134.185 179.759 134.295 177.544C134.405 175.329 133.796 173.137 132.559 171.296C131.876 170.294 130.948 169.225 131.2 168.052Z" fill="#15261C"/>
<path d="M42.1696 113.923L41.5684 108.823L72.3072 100.131C81.868 98.2456 93.2327 106.723 94.7767 116.113C96.484 126.55 98.1542 139.362 97.6494 147.29C96.6325 163.279 84.4513 166.419 84.4513 166.419L87.2646 193.609L86.7821 200.602L56.3476 174.005L42.1696 113.923Z" fill="#15261C"/>
<path d="M91.6468 129.193C91.701 129.726 91.5428 130.258 91.2064 130.675C90.8701 131.092 90.3828 131.36 89.8505 131.42C89.5916 131.465 89.3262 131.46 89.0696 131.403C88.8129 131.346 88.57 131.239 88.3548 131.088C88.1396 130.937 87.9564 130.745 87.8156 130.523C87.6749 130.301 87.5793 130.053 87.5345 129.794C87.4842 129.262 87.6439 128.731 87.9795 128.315C88.3152 127.899 88.8001 127.63 89.3308 127.567C89.5898 127.52 89.8555 127.525 90.1126 127.582C90.3696 127.638 90.6129 127.745 90.8283 127.896C91.0437 128.047 91.2269 128.24 91.3675 128.462C91.508 128.685 91.6029 128.933 91.6468 129.193Z" fill="#15261C"/>
<path d="M92.0433 123.121C91.8132 123.41 90.1356 122.423 87.9087 122.631C85.6818 122.839 84.1526 124.115 83.8854 123.833C83.7518 123.729 83.967 123.232 84.6277 122.66C85.5346 121.914 86.6486 121.463 87.8196 121.369C88.9784 121.263 90.1412 121.523 91.1451 122.111C91.8503 122.534 92.1324 122.994 92.0433 123.121Z" fill="#15261C"/>
<path d="M71.2642 131.146C71.3164 131.678 71.1574 132.21 70.8215 132.626C70.4855 133.043 69.9994 133.311 69.4679 133.373C69.2088 133.42 68.9428 133.416 68.6853 133.36C68.4279 133.304 68.1843 133.197 67.9686 133.046C67.753 132.895 67.5697 132.702 67.4294 132.479C67.2892 132.256 67.1948 132.007 67.1519 131.747C67.0956 131.215 67.2521 130.682 67.5873 130.265C67.9224 129.847 68.409 129.58 68.9408 129.52C69.2001 129.474 69.466 129.48 69.7231 129.537C69.9802 129.593 70.2236 129.7 70.4394 129.851C70.6552 130.002 70.8391 130.194 70.9806 130.416C71.1222 130.638 71.2185 130.886 71.2642 131.146Z" fill="#15261C"/>
<path d="M70.1437 125.549C69.9136 125.831 68.2285 124.844 66.0016 125.059C63.7747 125.274 62.2456 126.506 61.9784 126.261C61.8522 126.15 62.06 125.653 62.7207 125.081C63.6282 124.34 64.7379 123.89 65.9051 123.79C67.066 123.688 68.2299 123.947 69.2381 124.532C69.9804 124.962 70.255 125.415 70.1437 125.549Z" fill="#15261C"/>
<path d="M79.8182 140.922C79.8182 140.803 81.1618 140.439 83.3812 139.95C83.9454 139.846 84.4724 139.682 84.5318 139.296C84.5182 138.717 84.3293 138.155 83.9899 137.686L81.8892 133.61C78.9571 127.805 76.7822 123.018 77.0197 122.906C77.2572 122.795 79.833 127.405 82.7577 133.209L84.7916 137.307C85.2124 137.941 85.3939 138.704 85.3038 139.46C85.238 139.665 85.1263 139.853 84.9771 140.008C84.8279 140.164 84.6451 140.283 84.4427 140.358C84.1357 140.469 83.8169 140.543 83.4926 140.581C81.2434 140.907 79.8405 141.048 79.8182 140.922Z" fill="#15261C"/>
<path d="M84.4438 166.486C76.6784 167.319 68.8312 166.071 61.707 162.871C61.707 162.871 68.3432 173.939 84.9189 170.955L84.4438 166.486Z" fill="#15261C"/>
<path d="M69.8873 116.975C69.724 117.583 67.4674 117.509 64.8842 118.058C62.301 118.608 60.2522 119.498 59.8514 118.994C59.6732 118.756 59.985 118.17 60.7792 117.509C61.8588 116.7 63.1053 116.141 64.4278 115.874C65.7504 115.607 67.1159 115.638 68.425 115.965C69.4197 116.262 69.9541 116.685 69.8873 116.975Z" fill="#15261C"/>
<path d="M90.5623 116.893C90.2135 117.42 88.6323 117.049 86.784 117.197C84.9357 117.346 83.4065 117.843 82.9908 117.361C82.8127 117.123 82.9908 116.618 83.6441 116.076C84.4978 115.415 85.5348 115.034 86.6133 114.985C87.6992 114.909 88.7823 115.168 89.7161 115.727C90.4658 116.151 90.7331 116.648 90.5623 116.893Z" fill="#15261C"/>
<path d="M95.3768 104.415C91.335 100.06 86.0046 97.1155 80.167 96.0117L54.1344 100.124L47.1939 104.4C46.6223 102.915 46.2512 101.958 46.2512 101.958C43.6976 100.317 36.7423 97.0064 31.1082 102.989C29.0817 105.149 27.5822 110.732 27.6862 113.597C27.7307 114.688 27.9088 116.002 26.9439 116.64C26.5896 116.841 26.2025 116.976 25.8007 117.041C19.2165 118.667 14.8517 125.689 16.6555 131.783C16.8076 132.176 16.8784 132.595 16.8634 133.016C16.6766 133.662 16.2988 134.236 15.7796 134.663C14.3148 136.261 13.4068 138.291 13.1914 140.448C12.9759 142.605 13.4647 144.773 14.5845 146.629C15.3268 147.773 16.2621 148.856 16.559 150.126C17.0861 152.434 15.3565 154.579 14.0352 156.599C10.0787 162.641 9.58136 171.2 14.9185 176.329C16.2101 177.576 17.8432 178.667 18.3925 180.315C18.5993 181.135 18.6917 181.979 18.6672 182.824C18.8676 187.085 21.5547 191.732 26.0902 192.474C28.614 192.875 31.6204 192.096 33.5132 193.721C34.2164 194.493 34.7949 195.369 35.228 196.319C37.299 199.764 42.2205 201.515 46.2289 200.157C50.2373 198.799 52.828 194.619 52.0263 190.752C56.8587 188.896 60.0654 183.96 59.5755 179.135C59.5755 179.135 56.7177 164.289 57.9573 160.139C59.1969 155.99 55.812 147.52 53.9192 143.393C52.0263 139.266 53.4886 129.438 53.7262 125.578C53.6948 124.459 53.5202 123.349 53.2066 122.274C52.9764 121.339 52.6795 120.285 52.3381 119.157C52.1913 118.123 52.1046 117.082 52.0783 116.039C51.9446 112.372 55.7898 109.581 59.6126 110.591C60.5421 110.839 61.5011 110.959 62.4631 110.947C63.9842 110.926 65.4817 110.567 66.8475 109.897C68.2133 109.227 69.4134 108.262 70.3612 107.072C72.3246 108.748 74.6781 109.903 77.205 110.431C79.7319 110.959 82.3511 110.843 84.8213 110.093C86.9888 112.617 89.186 115.178 91.9845 117.093C94.783 119.008 98.3089 120.248 101.738 119.751C101.498 114.047 99.2445 108.613 95.3768 104.415Z" fill="#15261C"/>
<path d="M92.8591 109.544C92.8146 109.544 92.8591 108.965 92.7255 107.941C92.5137 106.477 91.9869 105.076 91.1815 103.836C89.9645 101.948 88.1269 100.543 85.9854 99.8644C84.6431 99.4485 83.2301 99.3103 81.8326 99.4584C80.4352 99.6064 79.0825 100.038 77.8571 100.725L77.679 100.829L77.5305 100.674C76.4522 99.5226 75.1997 98.5482 73.819 97.786C70.8054 96.1546 67.3372 95.5648 63.9538 96.1084C61.1999 96.571 58.6293 97.792 56.5308 99.6343C55.1307 100.854 53.9637 102.318 53.0865 103.955C52.4778 105.113 52.2551 105.81 52.2031 105.795C52.2271 105.62 52.272 105.448 52.3367 105.283C52.4917 104.799 52.6776 104.326 52.8935 103.865C53.7222 102.16 54.8714 100.63 56.2784 99.3596C58.3965 97.4341 61.0163 96.1473 63.835 95.6481C67.3277 95.0745 70.9119 95.6832 74.0194 97.3777C75.4531 98.1566 76.7536 99.1589 77.872 100.347L77.538 100.302C78.826 99.5816 80.2487 99.1338 81.7173 98.9869C83.186 98.8401 84.6692 98.9973 86.0744 99.4487C88.3102 100.171 90.2138 101.669 91.4413 103.672C92.2497 104.959 92.7407 106.42 92.8739 107.933C92.9142 108.336 92.9142 108.741 92.8739 109.143C92.8878 109.277 92.8828 109.412 92.8591 109.544Z" fill="#15261C"/>
<path d="M18.1953 134.137C20.3039 133.967 22.3932 133.609 24.4381 133.068C29.3232 131.684 33.6657 128.833 36.8791 124.902L37.4358 124.197L37.5101 124.101H37.6288C40.2965 123.877 42.8454 122.898 44.9776 121.28C46.7094 119.995 48.1406 118.349 49.1716 116.455C50.0816 114.711 50.6581 112.813 50.8715 110.858C50.8715 110.858 50.8715 110.999 50.8715 111.266C50.8733 111.663 50.8485 112.06 50.7973 112.454C50.6035 113.909 50.1563 115.318 49.476 116.618C48.4635 118.575 47.0283 120.281 45.2745 121.614C43.0817 123.324 40.4372 124.356 37.6659 124.583L37.8664 124.479L37.3022 125.221C35.5261 127.43 33.3691 129.303 30.9332 130.752C28.9414 131.948 26.7894 132.856 24.542 133.446C23.0272 133.85 21.4752 134.099 19.91 134.189C19.3607 134.226 18.9302 134.189 18.6333 134.189C18.4856 134.192 18.3381 134.175 18.1953 134.137Z" fill="#15261C"/>
<path d="M21.8887 179.038C22.195 179.287 22.5173 179.515 22.8537 179.721C23.2665 179.952 23.7084 180.127 24.1675 180.241C24.7976 180.385 25.4471 180.425 26.0901 180.359C26.8782 180.28 27.6388 180.026 28.317 179.617C28.7026 179.378 29.0504 179.083 29.3488 178.741C29.6621 178.371 29.9128 177.952 30.0911 177.501C30.488 176.498 30.5733 175.399 30.3361 174.347C30.0813 173.158 29.4033 172.103 28.4284 171.377L28.1463 171.177H28.4952C30.4293 171.146 32.3203 170.6 33.9734 169.596C35.7609 168.474 37.2811 166.974 38.4272 165.201C38.7464 164.756 38.9988 164.259 39.2808 163.776C39.5629 163.294 39.793 162.774 40.0231 162.24C40.4614 161.17 40.7801 160.054 40.9733 158.914C41.3713 156.527 41.4238 154.094 41.1292 151.692C40.6418 148.118 39.8824 144.587 38.8577 141.129V141.032L38.9394 140.98C42.4701 138.53 45.3556 135.263 47.3497 131.456C48.203 129.847 48.899 128.159 49.4281 126.416C49.636 125.592 49.8958 124.813 50.022 124.041C50.0962 123.655 50.1704 123.298 50.2372 122.912C50.3041 122.526 50.3337 122.17 50.3857 121.829C50.6691 119.611 50.6691 117.366 50.3857 115.148C50.3041 114.369 50.1408 113.782 50.0888 113.381C50.0517 113.188 50.0294 113.04 50.0071 112.921V112.765C50.2132 113.545 50.3792 114.336 50.5045 115.133C50.8321 117.346 50.8645 119.592 50.601 121.814C50.5564 122.17 50.5416 122.556 50.4674 122.912C50.3931 123.269 50.3263 123.655 50.2595 124.048C50.1407 124.828 49.8809 125.614 49.6731 126.446C49.152 128.206 48.4608 129.912 47.6095 131.538C45.6125 135.395 42.7053 138.707 39.1398 141.188L39.1992 141.039C40.2294 144.512 40.9912 148.058 41.4781 151.647C41.7799 154.074 41.7274 156.532 41.3222 158.944C41.1225 160.104 40.7964 161.239 40.3498 162.329C40.1493 162.871 39.8673 163.375 39.6075 163.888C39.3477 164.4 39.0582 164.882 38.7315 165.372C37.5495 167.174 35.986 168.695 34.1515 169.826C32.4704 170.834 30.5517 171.377 28.5917 171.4L28.6585 171.199C29.6699 171.955 30.3718 173.052 30.633 174.287C30.8727 175.379 30.7769 176.517 30.3584 177.553C30.1621 178.02 29.8941 178.454 29.5641 178.838C29.2462 179.186 28.8814 179.488 28.4803 179.736C27.7696 180.156 26.9726 180.41 26.1495 180.478C25.4925 180.536 24.8305 180.486 24.1898 180.33C23.7246 180.203 23.2779 180.016 22.8611 179.773C22.593 179.625 22.3437 179.446 22.1188 179.238L21.8887 179.038Z" fill="#15261C"/>
<path d="M111.149 188.154C111.149 188.154 111.201 188.109 111.305 188.042L111.773 187.746C112.029 187.588 112.277 187.417 112.515 187.233C112.857 187.004 113.187 186.757 113.502 186.491C115.558 184.782 117.205 182.634 118.32 180.204C119.094 178.517 119.596 176.718 119.804 174.874C120.034 172.738 119.832 170.577 119.211 168.52C118.517 166.215 117.357 164.078 115.803 162.24C114.122 160.219 111.999 158.612 109.598 157.541L109.412 157.46L109.561 157.311C111.768 155.097 113.271 152.279 113.881 149.213C114.09 148.217 114.197 147.202 114.2 146.184C114.213 145.187 114.121 144.192 113.925 143.215C113.744 142.25 113.46 141.307 113.079 140.401C112.717 139.514 112.27 138.664 111.743 137.863C109.787 134.829 106.87 132.539 103.459 131.36L103.325 131.316L103.385 131.189C104.838 128.145 105.169 124.685 104.32 121.421C103.645 118.904 102.28 116.626 100.378 114.844C99.1557 113.684 97.7418 112.745 96.1991 112.068C95.6646 111.83 95.2415 111.674 94.952 111.578L94.6328 111.466C94.5586 111.466 94.5215 111.452 94.5215 111.422C95.1055 111.565 95.6765 111.756 96.2288 111.993C97.7973 112.651 99.2372 113.581 100.482 114.74C102.424 116.526 103.824 118.824 104.52 121.369C105.407 124.68 105.083 128.199 103.607 131.293L103.54 131.123C107.012 132.302 109.988 134.609 111.995 137.677C112.53 138.495 112.984 139.363 113.354 140.268C113.741 141.188 114.032 142.146 114.222 143.126C114.422 144.125 114.514 145.143 114.497 146.162C114.498 147.199 114.391 148.234 114.178 149.25C113.56 152.373 112.024 155.242 109.768 157.489V157.259C112.206 158.352 114.359 159.99 116.063 162.047C117.633 163.915 118.803 166.085 119.5 168.423C120.125 170.513 120.32 172.707 120.072 174.874C119.518 179.468 117.183 183.661 113.569 186.55C113.246 186.816 112.909 187.063 112.559 187.293C112.322 187.471 112.074 187.635 111.817 187.783L111.335 188.065L111.149 188.154Z" fill="#15261C"/>
<path d="M73.8191 144.693C75.8967 144.999 77.9302 145.552 79.8763 146.341V146.393C79.6982 147.796 79.3419 149.362 78.1542 150.104C77.7024 150.385 77.1851 150.542 76.6537 150.56C76.1224 150.578 75.5955 150.457 75.1256 150.208C74.6737 149.977 74.2801 149.647 73.9741 149.242C73.6682 148.837 73.4578 148.368 73.3589 147.87C73.2597 146.789 73.4174 145.701 73.8191 144.693Z" fill="#15261C"/>
<path d="M76.9369 150.408C76.9369 150.408 76.7736 150.579 76.3801 150.638C75.8228 150.711 75.2569 150.599 74.7693 150.319C74.031 149.92 73.4733 149.253 73.2105 148.456C72.9142 147.488 72.9142 146.454 73.2105 145.487C73.2757 145.216 73.3677 144.952 73.4852 144.7C73.5544 144.591 73.6538 144.505 73.7712 144.453C73.8885 144.4 74.0187 144.383 74.1458 144.403C74.2738 144.431 74.4001 144.465 74.5244 144.507L75.8308 144.87L78.0578 145.531C78.7552 145.675 79.4262 145.925 80.0471 146.273C79.3302 146.286 78.6159 146.183 77.9316 145.969L75.7047 145.449L74.3834 145.115L74.0716 145.041C74.0716 145.093 74.0716 144.908 74.0716 144.93C74.0716 144.952 74.1904 145.041 74.1458 145.019C74.0707 145.216 74.0063 145.416 73.9528 145.62C73.7076 146.46 73.6948 147.35 73.9157 148.196C74.1128 148.868 74.5414 149.449 75.1257 149.836C75.6677 150.185 76.293 150.382 76.9369 150.408Z" fill="#15261C"/>
<path d="M32.7156 311.681H121.228L119.142 276.444L116.009 234.177C115.413 226.206 112.628 218.554 107.963 212.064L101.23 202.696L92.909 191.561L87.7871 181.525L56.0091 168.535L52.0823 176.641C52.0823 176.641 47.4577 179.959 44.4959 182.49C38.7357 187.412 35.3656 193.892 33.443 201.174C33.443 201.241 33.443 201.315 33.3911 201.39C31.5353 208.538 32.9828 218.871 32.9828 218.871L43.5458 269.659C39.8702 277.08 37.1777 284.947 35.5363 293.064C35.0835 295.321 33.6583 304.317 32.7156 311.681Z" fill="#15261C"/>
<path d="M89.1972 186.811C88.8974 186.426 88.6479 186.004 88.4549 185.556L86.6808 181.979H87.1262C86.1686 184.339 84.9809 187.271 83.6448 190.552L83.5186 190.864L83.192 190.738L78.1666 188.696C72.9705 186.588 68.3311 184.636 64.9684 183.196L61.0194 181.474C60.517 181.288 60.0406 181.038 59.6016 180.731C60.1124 180.835 60.6103 180.994 61.0862 181.207L65.1391 182.743C68.5537 184.064 73.2525 185.942 78.419 188.051L83.4369 190.114L82.9841 190.3L86.6585 181.8L86.8812 181.281L87.1039 181.793C87.7274 183.278 88.2471 184.465 88.6776 185.46C88.9029 185.888 89.0773 186.342 89.1972 186.811Z" fill="#15261C"/>
<path d="M86.9782 289.545C86.459 289.519 85.9452 289.426 85.4491 289.271C84.4767 289.055 83.0811 288.684 81.3738 288.172C72.4693 285.496 63.9764 281.604 56.1355 276.607C54.6509 275.642 53.4558 274.833 52.6615 274.239C52.2251 273.961 51.8217 273.635 51.459 273.267C51.942 273.454 52.3987 273.704 52.8174 274.009L56.4027 276.184C60.371 278.533 64.4565 280.679 68.6433 282.612C72.8433 284.528 77.1395 286.225 81.5149 287.697L85.5085 289.003C86.0179 289.126 86.5112 289.308 86.9782 289.545Z" fill="#15261C"/>
<path opacity="0.3" d="M36.5137 219.531C36.5137 219.531 52.8444 264.292 58.1889 272.398C63.5335 280.504 66.2058 282.79 74.3934 281.402C82.581 280.014 118.531 268.189 118.531 268.189L118.004 260.855L84.7263 267.892L65.5229 263.95L47.9897 236.945L36.5137 219.531Z" fill="#15261C"/>
<path d="M106.463 236.945L104.651 233.976L95.8625 236.069L82.5678 239.039C82.5678 239.039 74.8553 194.07 63.7059 186.855C52.5565 179.639 44.406 180.916 37.5545 193.647C30.703 206.377 34.3923 213.785 34.3923 213.785C34.3923 213.785 52.1333 263.349 63.7059 273.467C75.2784 283.584 113.44 264.492 113.44 264.492L121.175 258.071L106.463 236.945Z" fill="#15261C"/>
<path d="M106.458 236.946C106.554 237.054 106.643 237.168 106.725 237.287L107.467 238.334L110.377 242.416L121.319 258.005L121.423 258.153L121.281 258.272L113.569 264.685C106.954 267.923 100.123 270.701 93.1259 272.999C89.1049 274.321 84.9944 275.353 80.8259 276.087C78.6177 276.462 76.3846 276.67 74.1452 276.711C71.8038 276.788 69.4666 276.464 67.2344 275.753C66.6639 275.565 66.1101 275.329 65.579 275.048L64.7773 274.617C64.5249 274.447 64.2874 274.261 64.035 274.076C63.5457 273.721 63.0998 273.31 62.7063 272.851L61.4444 271.537C60.7021 270.616 59.9598 269.614 59.2175 268.649C58.4752 267.684 57.8813 266.608 57.1984 265.584C54.5771 261.295 52.186 256.869 50.0352 252.326C45.5814 243.099 41.469 233.249 37.5051 223.05C36.31 219.954 35.1446 216.889 34.0608 213.89V213.927C33.0716 211.207 32.7757 208.283 33.1997 205.42C33.5773 202.645 34.3263 199.934 35.4266 197.358C36.4674 194.824 37.7632 192.401 39.294 190.128C40.7505 187.843 42.633 185.86 44.8391 184.287C47.0658 182.756 49.7346 182.002 52.4328 182.141C55.0207 182.36 57.5415 183.078 59.8559 184.257C60.9693 184.843 62.0828 185.415 63.122 186.09C64.2033 186.714 65.1842 187.497 66.0318 188.414C67.5931 190.234 68.9221 192.241 69.9883 194.389C71.9701 198.423 73.6354 202.605 74.9692 206.897C76.2979 210.98 77.4113 214.936 78.3763 218.715C80.3063 226.279 81.7093 233.108 82.7485 239.017L82.5035 238.861L96.0803 235.891L104.661 233.924H104.721V233.969L106.049 236.196C106.339 236.693 106.465 236.938 106.465 236.938C106.465 236.938 106.294 236.715 105.983 236.196L104.587 233.969H104.669L96.1694 236.062L82.6149 239.15L82.4145 239.202L82.3699 238.987C81.2936 233.108 79.8461 226.286 77.9161 218.752C76.9363 214.981 75.808 211.039 74.4644 206.979C73.1084 202.73 71.4258 198.593 69.4316 194.605C68.3832 192.509 67.0819 190.549 65.5567 188.77C64.7457 187.892 63.8074 187.142 62.7731 186.543C61.7413 185.882 60.6501 185.318 59.5589 184.747C57.3281 183.618 54.9015 182.928 52.4105 182.713C49.8576 182.588 47.3346 183.308 45.2325 184.762C43.0999 186.287 41.2825 188.21 39.8805 190.425C38.3775 192.659 37.1042 195.039 36.0799 197.529C35.0184 200.05 34.297 202.701 33.9346 205.412C33.534 208.142 33.8093 210.928 34.7363 213.526V213.563C35.8126 216.532 36.9632 219.62 38.1732 222.708C42.1296 232.893 46.2123 242.75 50.6661 251.94C52.7991 256.463 55.1729 260.869 57.7774 265.138C58.4455 266.155 59.0467 267.217 59.7668 268.182C60.4868 269.147 61.1697 270.119 61.9343 271.025L63.1443 272.294C63.521 272.735 63.9469 273.131 64.4136 273.474C64.6437 273.645 64.8664 273.823 65.0965 273.979L65.8388 274.387C66.3417 274.655 66.8655 274.881 67.4051 275.063C69.5638 275.747 71.8222 276.063 74.0858 275.998C76.2975 275.964 78.5035 275.763 80.6849 275.397C84.826 274.686 88.9097 273.674 92.9032 272.368C99.884 270.116 106.702 267.388 113.309 264.203H113.265L121.037 257.93L120.999 258.198C116.367 251.465 112.723 246.165 110.214 242.528L107.393 238.386C107.089 237.925 106.859 237.577 106.651 237.317C106.576 237.199 106.511 237.075 106.458 236.946Z" fill="#15261C"/>
<path d="M76.2759 261.709C76.1869 261.709 76.0236 260.388 76.0681 258.228C76.1509 255.409 76.5594 252.609 77.2855 249.884C78.0049 247.158 79.0335 244.523 80.3512 242.031C80.846 240.959 81.4854 239.96 82.2515 239.062C82.3554 239.121 81.7022 240.279 80.8114 242.216C79.6392 244.736 78.6903 247.354 77.9758 250.04C77.2749 252.717 76.8055 255.449 76.5729 258.206C76.5488 259.379 76.4496 260.549 76.2759 261.709Z" fill="#15261C"/>
<path d="M113.436 264.507C113.436 264.544 113.05 264.225 112.456 263.624C111.863 263.023 111.031 262.139 110.029 260.996C107.418 258.047 105.034 254.906 102.896 251.599C100.743 248.292 98.9985 244.738 97.6994 241.013C97.3086 239.886 96.9887 238.736 96.7418 237.569C96.6184 237.149 96.5535 236.715 96.5488 236.277C96.675 236.277 97.113 238.051 98.1745 240.843C99.5953 244.475 101.376 247.956 103.489 251.235C105.618 254.512 107.925 257.669 110.4 260.692C111.48 261.908 112.493 263.182 113.436 264.507Z" fill="#15261C"/>
<path d="M144.237 237.694L154.503 234.725L167.248 229.915L177.358 224.429C177.358 224.429 178.242 223.554 177.002 222.462C175.762 221.371 170.262 224.422 170.262 224.422L165.912 226.04C165.912 226.04 162.238 226.345 162.438 226.003C162.638 225.662 168.339 222.9 168.339 222.9L178.056 217.615C178.056 217.615 180.803 216.197 179.949 214.379C179.548 213.51 178.539 212.998 176.668 213.718C174.797 214.438 171.865 216.279 170.811 216.687C169.757 217.096 163.759 219.812 163.759 219.812L176.193 211.291C176.193 211.291 180.246 208.878 178.947 207.163C177.648 205.449 175.183 207.342 173.751 207.906C172.318 208.47 164.524 213.443 161.48 214.824C158.868 216.012 159.499 215.025 159.499 215.025L166.922 210.467C170.173 208.455 172.645 206.458 170.529 205.137C169.148 204.269 162.898 207.601 162.898 207.601L153.657 212.768L149.262 214.713L152.929 211.432C154.676 210.147 156.056 208.428 156.93 206.443C158.214 203.274 155.616 203.17 155.616 203.17L140.577 213.458C138.232 215.5 135.478 225.335 135.478 225.335L106.461 236.514L118.805 254.329L144.237 237.694Z" fill="#15261C"/>
<path d="M144.234 237.695L143.804 237.992L142.52 238.853L137.546 242.142L118.855 254.464L118.759 254.531L118.699 254.434L106.332 236.619L106.229 236.47L106.399 236.404L135.401 225.202L135.297 225.314C135.869 223.339 136.522 221.313 137.294 219.264C137.68 218.247 138.096 217.215 138.578 216.206C139.035 215.151 139.667 214.183 140.449 213.34L155.51 203H155.562H155.621C156.095 203.034 156.545 203.219 156.906 203.527C157.081 203.694 157.22 203.894 157.316 204.116C157.411 204.338 157.461 204.577 157.462 204.819C157.422 205.744 157.152 206.645 156.675 207.439C155.782 209.081 154.537 210.505 153.031 211.611L149.393 214.877L149.186 214.558L153.58 212.613L161.374 208.263C162.702 207.489 164.073 206.79 165.479 206.17C166.221 205.858 166.904 205.561 167.647 205.309C168.397 205.021 169.19 204.86 169.992 204.833C170.202 204.837 170.408 204.89 170.594 204.989C170.76 205.091 170.914 205.21 171.054 205.346C171.208 205.484 171.328 205.657 171.403 205.851C171.478 206.044 171.506 206.253 171.484 206.459C171.424 206.845 171.263 207.209 171.017 207.513C170.797 207.807 170.548 208.078 170.274 208.322C169.189 209.253 168.022 210.083 166.786 210.802L159.593 215.203L159.652 215.144C159.377 215.315 160.046 215.218 160.394 215.055C160.83 214.899 161.256 214.718 161.671 214.513C162.503 214.105 163.319 213.659 164.128 213.199C165.754 212.286 167.342 211.343 168.923 210.401L171.291 209.005C172.077 208.53 172.887 208.096 173.719 207.706C174.528 207.365 175.315 206.875 176.183 206.57C176.628 206.396 177.102 206.311 177.579 206.318C177.825 206.328 178.068 206.386 178.292 206.489C178.516 206.592 178.718 206.738 178.885 206.919C179.065 207.099 179.195 207.322 179.264 207.566C179.333 207.81 179.338 208.068 179.279 208.315C179.146 208.771 178.91 209.19 178.588 209.54C177.989 210.215 177.296 210.803 176.532 211.284C175.048 212.264 173.637 213.259 172.204 214.253L163.794 220.014L163.623 219.702L169.116 217.275C170.022 216.859 170.92 216.532 171.767 216.035L174.32 214.647C175.164 214.177 176.045 213.777 176.955 213.452C177.433 213.292 177.937 213.224 178.44 213.251C178.697 213.265 178.949 213.33 179.181 213.442C179.413 213.554 179.62 213.712 179.791 213.904C179.956 214.1 180.08 214.328 180.155 214.572C180.23 214.817 180.255 215.075 180.229 215.33C180.151 215.821 179.926 216.276 179.583 216.636C179.261 216.987 178.897 217.296 178.499 217.557C178.098 217.816 177.69 218.009 177.289 218.232C174.097 219.954 171.024 221.654 168.018 223.243C166.489 223.985 164.997 224.727 163.564 225.47C163.22 225.648 162.888 225.849 162.569 226.071C162.569 226.071 162.569 226.108 162.569 226.034C162.574 226.023 162.577 226.012 162.577 226C162.577 225.989 162.574 225.977 162.569 225.967H162.673H162.955H163.549C164.343 225.967 165.138 225.907 165.917 225.848H165.88L170.237 224.23C171.671 223.427 173.184 222.773 174.751 222.278C175.134 222.165 175.526 222.086 175.923 222.04C176.339 221.97 176.767 222.06 177.119 222.292C177.437 222.547 177.672 222.891 177.794 223.28C177.844 223.484 177.843 223.698 177.79 223.901C177.737 224.105 177.634 224.292 177.49 224.445L167.365 229.909L154.604 234.689L146.929 236.864L144.977 237.413L144.316 237.584L144.962 237.376L146.899 236.797L154.56 234.57L167.29 229.73L177.393 224.23C177.506 224.108 177.588 223.961 177.629 223.8C177.671 223.639 177.671 223.47 177.631 223.309C177.523 222.97 177.316 222.67 177.037 222.448C176.735 222.263 176.375 222.196 176.027 222.263C175.646 222.308 175.268 222.385 174.899 222.493C173.354 222.99 171.862 223.639 170.445 224.43L166.088 226.056C165.301 226.115 164.507 226.167 163.698 226.175C163.497 226.175 163.297 226.175 163.089 226.175C162.983 226.182 162.876 226.182 162.77 226.175C162.705 226.169 162.642 226.152 162.584 226.123L162.517 226.078C162.481 226.043 162.46 225.995 162.458 225.945C162.458 225.811 162.51 225.818 162.532 225.789C162.873 225.533 163.236 225.307 163.616 225.113C165.064 224.371 166.585 223.629 168.07 222.849C171.039 221.261 174.134 219.553 177.326 217.824C177.72 217.601 178.135 217.401 178.507 217.163C178.881 216.923 179.22 216.634 179.516 216.302C179.818 215.993 180.017 215.6 180.088 215.174C180.107 214.964 180.085 214.752 180.023 214.551C179.96 214.35 179.859 214.163 179.724 214.001C179.583 213.841 179.411 213.711 179.218 213.619C179.026 213.527 178.816 213.475 178.603 213.466C178.15 213.448 177.698 213.511 177.267 213.652C176.378 213.975 175.516 214.37 174.691 214.832L172.145 216.22C171.291 216.71 170.356 217.067 169.465 217.475L163.987 219.91L163.809 219.605L172.219 213.83C173.652 212.858 175.085 211.856 176.547 210.861C177.277 210.392 177.941 209.828 178.521 209.183C178.802 208.877 179.01 208.512 179.13 208.114C179.179 207.928 179.176 207.731 179.122 207.546C179.069 207.36 178.966 207.193 178.826 207.06C178.284 206.415 177.341 206.496 176.525 206.808C175.708 207.12 174.936 207.55 174.075 207.936C172.472 208.679 170.913 209.696 169.332 210.609C167.751 211.522 166.162 212.501 164.536 213.415C163.72 213.875 162.903 214.328 162.05 214.743C161.622 214.953 161.184 215.139 160.736 215.3C160.496 215.389 160.247 215.451 159.994 215.486C159.91 215.505 159.823 215.506 159.738 215.489C159.654 215.473 159.574 215.438 159.504 215.389C159.458 215.349 159.424 215.298 159.405 215.24C159.385 215.183 159.381 215.122 159.392 215.062C159.405 214.976 159.435 214.892 159.481 214.817H159.526L166.667 210.401C167.882 209.692 169.032 208.877 170.104 207.966C170.358 207.74 170.592 207.492 170.802 207.224C171.011 206.979 171.147 206.681 171.195 206.363C171.211 206.213 171.191 206.062 171.135 205.922C171.079 205.782 170.99 205.658 170.876 205.561C170.76 205.449 170.633 205.35 170.497 205.264C170.333 205.206 170.156 205.193 169.985 205.227C169.222 205.255 168.47 205.411 167.758 205.687C167.016 205.932 166.318 206.222 165.62 206.533C164.224 207.148 162.864 207.839 161.545 208.604L153.751 212.962L149.342 214.877L148.235 215.367L149.134 214.565L152.801 211.284C154.257 210.21 155.462 208.832 156.334 207.246C156.774 206.509 157.029 205.676 157.076 204.819C157.077 204.626 157.039 204.435 156.964 204.258C156.888 204.08 156.778 203.92 156.638 203.787C156.343 203.538 155.977 203.39 155.592 203.364L155.703 203.327L140.657 213.615C139.917 214.43 139.316 215.36 138.875 216.369C138.4 217.364 137.984 218.381 137.598 219.397C136.856 221.431 136.173 223.458 135.609 225.41V225.499H135.527L106.503 236.634L106.57 236.419L118.885 254.286L118.729 254.249L137.494 242.015L142.49 238.772L143.782 237.94L144.234 237.695Z" fill="#15261C"/>
</svg>
