<svg width="21" height="22" viewBox="0 0 21 22" fill="none" xmlns="http://www.w3.org/2000/svg">
<path d="M1 11C1 6.522 1 4.282 2.391 2.891C3.782 1.5 6.021 1.5 10.5 1.5C14.978 1.5 17.218 1.5 18.609 2.891C20 4.282 20 6.521 20 11C20 15.478 20 17.718 18.609 19.109C17.218 20.5 14.979 20.5 10.5 20.5C6.022 20.5 3.782 20.5 2.391 19.109C1 17.718 1 15.479 1 11Z" stroke="#171C17" stroke-width="1.5" stroke-linecap="round" stroke-linejoin="round"/>
<path d="M16.008 5.5H15.998M15 11C15 12.1935 14.5259 13.3381 13.682 14.182C12.8381 15.0259 11.6935 15.5 10.5 15.5C9.30653 15.5 8.16193 15.0259 7.31802 14.182C6.47411 13.3381 6 12.1935 6 11C6 9.80653 6.47411 8.66193 7.31802 7.81802C8.16193 6.97411 9.30653 6.5 10.5 6.5C11.6935 6.5 12.8381 6.97411 13.682 7.81802C14.5259 8.66193 15 9.80653 15 11Z" stroke="#171C17" stroke-width="1.5" stroke-linecap="round" stroke-linejoin="round"/>
</svg>
