<svg width="18" height="18" viewBox="0 0 18 18" fill="none" xmlns="http://www.w3.org/2000/svg">
<path d="M8.50098 6.55C9.41798 5.613 10.612 5 12.001 5C13.4597 5 14.8586 5.57946 15.8901 6.61091C16.9215 7.64236 17.501 9.04131 17.501 10.5V18H15.501V10.5C15.501 9.57174 15.1322 8.6815 14.4759 8.02513C13.8195 7.36875 12.9292 7 12.001 7C11.0727 7 10.1825 7.36875 9.5261 8.02513C8.86972 8.6815 8.50098 9.57174 8.50098 10.5V18H6.50098V5.5H8.50098V6.55ZM1.50098 3.5C1.10315 3.5 0.721621 3.34196 0.440316 3.06066C0.159012 2.77936 0.000976562 2.39782 0.000976562 2C0.000976562 1.60218 0.159012 1.22064 0.440316 0.93934C0.721621 0.658035 1.10315 0.5 1.50098 0.5C1.8988 0.5 2.28033 0.658035 2.56164 0.93934C2.84294 1.22064 3.00098 1.60218 3.00098 2C3.00098 2.39782 2.84294 2.77936 2.56164 3.06066C2.28033 3.34196 1.8988 3.5 1.50098 3.5ZM0.500977 5.5H2.50098V18H0.500977V5.5Z" fill="#171C17"/>
</svg>
