<svg width="97" height="40" viewBox="0 0 97 40" fill="none" xmlns="http://www.w3.org/2000/svg">
<g clip-path="url(#clip0_563_743)">
<path d="M0 14.7917V18.7637L10.4415 23.7024V19.8551L3.83836 16.7592L10.4445 13.8474L10.4386 9.81152L0 14.7917Z" fill="#FFE4A9"/>
<path d="M25.2872 19.8552V23.7024L35.7183 18.7638V14.7903L25.2872 9.80859L25.2827 13.8474L31.8874 16.7592L25.2872 19.8552Z" fill="#FFE4A9"/>
<path d="M17.8644 9.80859C14.0275 9.80859 10.9167 12.9209 10.9182 16.7592C10.9182 20.5976 14.0305 23.7069 17.8688 23.7054C21.7072 23.7054 24.8165 20.5931 24.815 16.7548C24.815 12.9164 21.7027 9.80711 17.8659 9.80859H17.8644ZM17.8644 20.3674V20.3704C15.8672 20.3704 14.2502 18.7519 14.2502 16.7563C14.2502 14.7606 15.8687 13.1421 17.8644 13.1421C19.86 13.1421 21.4785 14.7606 21.4785 16.7563C21.4785 18.7504 19.86 20.3674 17.8659 20.3674H17.8644Z" fill="#FFE4A9"/>
<path d="M10.443 25.48L0 30.4513V34.4337L10.4415 39.3768V35.5221L3.83836 32.4351L10.4445 29.5188L10.443 25.48Z" fill="#FFE4A9"/>
<path d="M35.7198 25.48L25.2827 30.4513V34.4337L35.7198 39.3768V35.5221L29.1166 32.4351L35.7228 29.5188L35.7198 25.48Z" fill="#FFE4A9"/>
<path d="M61.9707 25.4844L56.0609 39.7821H59.9112L63.9782 29.3138L67.6606 39.7865L71.7039 39.7851L65.9531 25.4844H61.9707Z" fill="#FFE4A9"/>
<path d="M17.8628 25.4844C14.0245 25.4844 10.9137 28.5966 10.9137 32.435C10.9137 36.2734 14.026 39.3842 17.8643 39.3842C21.7027 39.3842 24.8135 36.2719 24.8135 32.4335V32.4276C24.8105 28.5922 21.6982 25.4844 17.8628 25.4859V25.4844ZM17.8688 36.0462H17.8628C15.8687 36.0447 14.2531 34.4262 14.2546 32.432C14.2561 30.4379 15.8746 28.8223 17.8688 28.8238C19.8629 28.8253 21.4785 30.4438 21.477 32.438C21.4755 34.4307 19.8615 36.0447 17.8688 36.0462Z" fill="#FFE4A9"/>
<path d="M49.0791 9.80859H36.7354V13.0174H49.0791V9.80859Z" fill="#FFE4A9"/>
<path d="M49.0791 15.1558H36.7354V18.3645H49.0791V15.1558Z" fill="#FFE4A9"/>
<path d="M49.0791 20.5029H36.7354V23.7117H49.0791V20.5029Z" fill="#FFE4A9"/>
<path d="M47.0166 25.4858L39.7868 28.9292V25.4858H36.578V39.3797H39.7868V35.9556L47.0166 39.3767V35.5235L40.4134 32.4335L47.021 29.5187L47.0166 25.4858Z" fill="#FFE4A9"/>
<path d="M58.4501 28.6932V25.4844H47.8749V28.6932H51.5589V39.8667H54.7677V28.6932H58.4501Z" fill="#FFE4A9"/>
<path d="M75.2943 25.4844H72.0855V39.8682H75.2943V25.4844Z" fill="#FFE4A9"/>
<path d="M97 28.6932V25.4844H86.4203V28.7006L92.881 36.6565H86.4203V39.8697H97V36.658L90.526 28.6932H97Z" fill="#FFE4A9"/>
<path d="M90.0642 7.43155C91.3917 5.96451 92.6182 4.40986 93.7348 2.778C94.4668 1.68811 94.8573 0.956078 94.9034 0.580409C94.8692 0.283436 94.7326 0.103768 94.4965 0.0399194C94.2322 -0.0239296 93.956 -0.0105662 93.6977 0.0755557C93.42 0.155738 93.1616 0.290861 92.9389 0.473498C92.1712 1.09714 91.2729 1.98212 90.2454 3.12843C89.2357 4.24801 88.3165 5.44481 87.4954 6.70843C86.9044 7.60677 86.107 8.90157 85.1018 10.5899C84.8241 11.068 84.5108 11.5238 84.1634 11.9544C83.8085 12.3672 83.4284 12.7592 83.026 13.1245C82.9413 13.2151 82.8448 13.2953 82.7409 13.3636C82.6859 13.4037 82.6161 13.4155 82.5508 13.3992C82.4929 13.3784 82.4365 13.3517 82.383 13.319C82.239 13.221 82.0786 13.1483 81.9093 13.1067C81.0244 12.9196 80.034 13.1453 78.9411 13.7823C77.7993 14.4639 76.7554 15.2983 75.8407 16.2635C75.1013 17.0134 74.4345 17.83 73.8436 18.7002C73.6728 18.7774 73.5347 18.8189 73.4323 18.8189H73.3937C73.2125 18.8189 73.067 18.6705 73.0685 18.4893C73.0462 18.2265 73.0521 17.9622 73.0863 17.7008C73.1457 17.34 73.1457 16.9718 73.0863 16.611C73.0239 16.2858 72.7849 16.118 72.3602 16.1061C72.0855 16.1269 71.6326 16.3585 71.0001 16.801C70.3675 17.245 69.7365 17.7231 69.1039 18.2369C68.4714 18.7506 68.014 19.1427 67.7289 19.4159C68.1462 18.6853 68.6243 17.8686 69.1618 16.9644C69.6993 16.0601 70.1879 15.2553 70.6244 14.5455C70.6808 14.449 70.712 14.3391 70.712 14.2263V14.1387C70.666 13.9753 70.5398 13.8476 70.3764 13.8016C70.2844 13.766 70.1834 13.766 70.0913 13.8016L70.0557 13.8194C69.9146 13.8551 69.6904 14.0377 69.3831 14.3688C69.3133 14.4475 69.2747 14.5485 69.2761 14.6539C69.2761 14.7638 69.3148 14.8692 69.3831 14.9553C69.2108 15.2493 68.9985 15.5983 68.7446 15.9977C68.3451 16.6689 67.9338 17.3697 67.5121 18.0988C67.0533 18.3319 66.5707 18.519 66.0733 18.6556C65.4215 18.8383 64.9211 18.8189 64.5706 18.5933C64.2217 18.369 64.2707 17.7721 64.7221 16.8025C64.7934 16.6674 64.7859 16.5055 64.7043 16.3778C64.6449 16.2769 64.5439 16.2071 64.4296 16.1878C64.3167 16.17 64.2009 16.1922 64.1029 16.2501C62.0805 17.6444 60.6268 18.5962 59.7404 19.104C58.8554 19.6119 58.3877 19.8064 58.3402 19.6891C58.3045 19.5718 58.5644 19.2436 59.1212 18.7046C59.7641 18.0943 60.4442 17.5242 61.1584 16.9985C61.8533 16.4565 62.6195 16.0096 63.4347 15.671C64.1549 15.3874 64.6642 15.4468 64.9597 15.8477C64.9715 15.87 64.9715 15.8967 64.9597 15.919C64.9478 15.9428 64.9344 15.965 64.924 15.9888L64.8884 16.0601C64.8765 16.0809 64.8706 16.1061 64.8706 16.1299C64.9404 16.2605 65.0487 16.366 65.1809 16.4328C65.2982 16.51 65.4437 16.5367 65.5803 16.5026C65.6947 16.4714 65.7941 16.4016 65.8654 16.3066C65.9352 16.216 65.956 16.0957 65.9189 15.9873C65.5284 15.0816 64.8542 14.7014 63.898 14.8499C62.9417 14.9969 61.9409 15.4305 60.8956 16.1521C59.8503 16.8693 58.9979 17.6281 58.3357 18.4284C57.6735 19.2288 57.4374 19.8168 57.6274 20.1924C57.7833 20.4642 58.2882 20.4538 59.1449 20.1568C60.0002 19.8613 61.3455 19.1159 63.1793 17.9236C63.3456 17.8167 63.4481 17.7677 63.4822 17.7721C63.5164 17.7766 63.5283 17.8642 63.5164 18.029V18.124C63.5401 18.914 63.8297 19.358 64.3865 19.456C64.9418 19.554 65.5714 19.4767 66.2738 19.2243C66.5336 19.1352 66.789 19.0343 67.0414 18.9244C66.7638 19.4292 66.5099 19.9474 66.2827 20.4761C66.2114 20.7255 66.2589 20.9022 66.4252 21.0076C66.5915 21.1131 66.792 21.1131 67.0281 21.0076C67.4438 20.776 67.8358 20.5028 68.1981 20.1924C68.6614 19.8153 69.1455 19.4025 69.6503 18.9511C70.2339 18.4314 70.7714 17.9726 71.2629 17.5776C71.7544 17.1826 72.1256 16.9733 72.3795 16.948C72.2162 17.9681 72.3053 18.6883 72.6483 19.1085C72.8205 19.3208 73.0863 19.3936 73.4427 19.3268C72.9066 20.2266 72.6987 20.8888 72.8205 21.3091C73.0328 21.7946 73.5021 21.8911 74.2282 21.6016C74.9543 21.312 75.7962 20.8042 76.7539 20.0766C77.7116 19.349 78.6397 18.5814 79.538 17.7721C80.4364 16.9629 81.1728 16.2769 81.7505 15.7111C81.8084 15.6517 81.8618 15.5938 81.9093 15.5344C82.0742 15.3563 82.2509 15.1899 82.4379 15.037C82.4973 15.0014 82.4023 15.1781 82.1529 15.5686C81.1951 17.199 79.9731 19.3193 78.4838 21.9297C77.48 23.6908 76.6411 25.1563 75.9669 26.3264C75.8615 26.515 75.8318 26.6516 75.8793 26.7347C75.9283 26.8179 76.0278 26.855 76.1199 26.8223C76.2446 26.7897 76.3515 26.705 76.4124 26.5907C76.4361 26.561 76.5564 26.3739 76.7732 26.0324V39.8624H85.6527V36.6521H79.982V25.4815H77.1207C77.2855 25.2202 77.477 24.9143 77.6983 24.5609C78.5105 23.2676 79.5143 21.6521 80.7111 19.7143C81.9079 17.7781 83.1091 15.8091 84.3148 13.812C84.594 13.325 84.9013 12.8558 85.2369 12.4044C85.5829 11.9767 85.9571 11.5713 86.358 11.1942C87.5281 10.1221 88.7664 8.86593 90.0716 7.4271L90.0642 7.43155ZM81.8945 14.2233C80.3146 15.726 78.7926 17.0876 77.3286 18.3096C75.8645 19.5317 74.7078 20.3795 73.857 20.8532C73.5719 21.0061 73.4471 21.0047 73.4783 20.8443C73.5451 20.5904 73.6491 20.3484 73.7871 20.1256C74.0247 19.7099 74.3677 19.2288 74.8162 18.6838C74.8459 18.6571 74.8711 18.6259 74.8934 18.5918C75.1651 18.2651 75.4725 17.9176 75.8184 17.5464C76.7539 16.5382 77.7903 15.6295 78.9144 14.8351V14.8321C80.0132 14.0585 80.9709 13.7199 81.7891 13.815C81.9539 13.8506 82.0445 13.8981 82.0549 13.9664C82.0667 14.0332 82.0118 14.1179 81.896 14.2233H81.8945ZM87.2637 8.71744C87.4805 8.2809 87.7211 7.85771 87.9869 7.45086C88.5051 6.65349 89.1391 5.78633 89.889 4.84938C90.6388 3.91244 91.3248 3.1121 91.95 2.45133C92.0688 2.33254 92.2172 2.19 92.4103 2.02518C92.6033 1.85887 92.783 1.71039 92.973 1.57527C93.1007 1.46984 93.2448 1.38669 93.3992 1.32581C93.5002 1.2976 93.5269 1.35551 93.4794 1.50251C93.4348 1.65396 93.276 1.9346 93.0057 2.34739C91.8802 3.98371 90.6225 5.52499 89.2446 6.95491C89.059 7.14349 88.8704 7.34395 88.6818 7.55777C88.3848 7.8785 88.1101 8.16805 87.8577 8.42641C87.6884 8.61202 87.5013 8.78129 87.2994 8.93126C87.1806 9.00848 87.1702 8.9372 87.2637 8.71893V8.71744Z" fill="#FFE4A9"/>
</g>
<defs>
<clipPath id="clip0_563_743">
<rect width="97" height="39.8698" fill="white"/>
</clipPath>
</defs>
</svg>
