<svg width="231" height="631" viewBox="0 0 231 631" fill="none" xmlns="http://www.w3.org/2000/svg">
<g opacity="0.2">
<path d="M67.1639 456.576L115.58 566.353L167.044 456.651L230.973 456.651L148.886 630.03L82.8409 630.03L0.0234299 456.651L67.1513 456.576L67.1639 456.576Z" fill="white"/>
<path d="M-2.74937e-06 315.078C-0.0125919 378.857 51.6775 430.585 115.456 430.597C179.26 430.61 230.987 378.92 231 315.129C231.013 251.338 179.322 199.61 115.531 199.597C51.7405 199.585 0.0125864 251.275 -2.74992e-06 315.066C-2.74992e-06 315.066 -2.74992e-06 315.066 -2.74937e-06 315.078ZM175.52 315.078C175.52 348.233 148.661 375.117 115.494 375.129C82.3138 375.129 55.4299 348.233 55.4299 315.066C55.4299 281.886 82.3264 255.002 115.494 255.002C148.661 255.002 175.557 281.898 175.557 315.066L175.507 315.066L175.52 315.078Z" fill="white"/>
<path d="M67.1322 173.618L115.548 63.8034L167.012 173.555L230.941 173.555L148.867 -0.000174351L82.8218 -0.000171465L0.0546875 173.505L67.1196 173.618L67.1322 173.618Z" fill="white"/>
</g>
</svg>
