<svg xmlns="http://www.w3.org/2000/svg" viewBox="0 0 667.12 102.47"><defs><style>.cls-1{fill:#3e02b1;}</style></defs><g id="Layer_2" data-name="Layer 2"><g id="Layer_1-2" data-name="Layer 1"><path class="cls-1" d="M374,33.71H357.51a27.66,27.66,0,0,0-7.36-1c-12.67,0-22.73,8.07-22.73,21.15a20.92,20.92,0,0,0,5.5,14.55,23.29,23.29,0,0,0,17,7.06,21.78,21.78,0,0,1,4.59.45c5,1.06,8.15,3.94,8.15,7.78,0,4.83-7,9.21-14.69,8.62a18.62,18.62,0,0,1-10.91-4.79l2.88-4.78a18.76,18.76,0,0,1-6.18-3.64l-8.33,8.34c3,6.81,13.14,14,23.27,14.26,12.61.33,24.33-7,24.57-17.37.13-5.62-4.27-10.14-9.8-12.75,5.53-3.72,9-9.9,9-17.73A20.7,20.7,0,0,0,369,42l4.67-1.2ZM349.91,67.12c-7.6,0-12.12-5.7-12.12-13,0-7.44,4.52-12.51,12.12-12.51s12,5.07,12,12.51C361.87,61.42,357.59,67.12,349.91,67.12Z"/><path class="cls-1" d="M127.88,33.71V19.14h10.53V33.71h9.19v7.45h-9.19V60.79c0,5.15,2.14,6.34,9.19,6.34V75.6c-14.41,0-19.72-4.91-19.72-15.12V41.16h-6.65V33.71Z"/><path class="cls-1" d="M151.63,19.14h10.62V37.51a20.33,20.33,0,0,1,13.62-4.83c11.4,0,16.39,7.21,16.07,22.33V74.57H181.41V55c0-6.09-.08-13.85-7.68-13.85-3.88,0-8.71,2.13-11.48,9.66V74.57H151.63Z"/><path class="cls-1" d="M237.63,58.18h-31c1.19,5.62,5.3,8.95,11.48,8.95,4.59,0,8.24-1.35,10.61-3.8L234.62,70c-4.12,3.56-9.82,5.62-16.55,5.62-13.14,0-22.41-8.71-22.41-21.14,0-13,9.34-21.78,21.78-21.78C230.34,32.68,239.21,42.19,237.63,58.18Zm-10.37-7.44c-.88-6.1-4-9.58-9.82-9.58s-9.74,3.4-10.85,9.58Z"/><path class="cls-1" d="M286.17,19.14V74.57h-7.52l-1.35-4.35a22.32,22.32,0,0,1-15.12,5.38c-12.83,0-21.78-8.71-21.78-21.14,0-13,8.71-21.78,21.78-21.78a22.92,22.92,0,0,1,13.38,4V19.14ZM274.92,54.46c0-8.47-4.43-13.3-12.11-13.3S251,45.91,251,54.46c0,7.92,4.43,12.67,11.8,12.67C270.41,67.13,274.92,62.38,274.92,54.46Z"/><path class="cls-1" d="M324.73,62.46c0,6.49-5.07,13.14-16.47,13.14-7,0-13.54-2.06-17.74-5.62l5.7-6.73c2.54,2.53,7,3.88,12,3.88,1.35,0,5.94-.24,5.94-3.56,0-1.83-.95-3-7.13-4.2-5.94-1.11-16.55-2.69-16.55-13.46,0-6.58,5.15-13.23,16.55-13.23,7,0,12.83,2.06,17,5.62L318.4,45c-2.54-2.54-6.42-3.88-11.33-3.88-1.42,0-5.94.23-5.94,3.56,0,1.82,2.3,3.17,7.76,4.2C314.83,50.1,324.73,51.69,324.73,62.46Z"/><path class="cls-1" d="M378.18,74.57V33.71h7.52l2,4.91a19.93,19.93,0,0,1,14.73-5.94c11.4,0,16.39,7.21,16.07,22.33V74.57H408V55c0-6.09-.08-13.85-7.68-13.85-3.88,0-8.71,2.13-11.48,9.66V74.57Z"/><path class="cls-1" d="M423.47,33.71h10.61V71.09c0,14-7.36,19.08-21.77,19.08V81.7c9.89,0,11.16-2.46,11.16-10.3Zm-.87-9.42a6.18,6.18,0,1,1,6.18,6.18A6.18,6.18,0,0,1,422.6,24.29Z"/><path class="cls-1" d="M438.91,53.27V33.71h10.61V53.27c0,6.1,0,13.86,7.37,13.86,3.8,0,8.47-2.06,11.16-9.66V33.71h10.53V74.57h-7.52l-2-4.83a19.39,19.39,0,0,1-14.33,5.86C443.58,75.6,438.67,68.47,438.91,53.27Z"/><path class="cls-1" d="M484.52,74.57V33.71H492l2,4.91a20,20,0,0,1,14.73-5.94c11.4,0,16.39,7.21,16.08,22.33V74.57H514.29V55c0-6.09-.07-13.85-7.68-13.85-3.88,0-8.71,2.13-11.48,9.66V74.57Z"/><path class="cls-1" d="M530.21,19.14h10.61V47.57L554,33.71h14.65L550.88,50.82l19.64,23.75h-13.7L543.2,58.18l-2.38,2.3V74.57H530.21Z"/><path class="cls-1" d="M572.41,24.29a6.18,6.18,0,1,1,6.18,6.18A6.19,6.19,0,0,1,572.41,24.29Zm.88,50.28V33.71H583.9V74.57Z"/><path class="cls-1" d="M630.06,58.18H599c1.19,5.62,5.31,8.95,11.48,8.95,4.59,0,8.24-1.35,10.61-3.8L627.05,70c-4.12,3.56-9.82,5.62-16.55,5.62-13.14,0-22.41-8.71-22.41-21.14,0-13,9.35-21.78,21.78-21.78C622.78,32.68,631.64,42.19,630.06,58.18Zm-10.37-7.44c-.87-6.1-4-9.58-9.82-9.58s-9.74,3.4-10.85,9.58Z"/><path class="cls-1" d="M667.12,62.46c0,6.49-5.07,13.14-16.47,13.14-7,0-13.54-2.06-17.74-5.62l5.7-6.73c2.54,2.53,7,3.88,12,3.88,1.34,0,5.94-.24,5.94-3.56,0-1.83-1-3-7.13-4.2-5.94-1.11-16.55-2.69-16.55-13.46,0-6.58,5.15-13.23,16.55-13.23,7,0,12.83,2.06,17,5.62L660.78,45c-2.53-2.54-6.41-3.88-11.32-3.88-1.43,0-5.94.23-5.94,3.56,0,1.82,2.3,3.17,7.76,4.2C657.22,50.1,667.12,51.69,667.12,62.46Z"/><path class="cls-1" d="M89.34,0H13.14A13.13,13.13,0,0,0,0,13.13V89.34a13.13,13.13,0,0,0,13.14,13.13h76.2a13.13,13.13,0,0,0,13.13-13.13V13.13A13.13,13.13,0,0,0,89.34,0ZM85.88,31.82A21.69,21.69,0,0,0,66.47,51.24H85.88V66.47A21.71,21.71,0,0,0,66.47,85.88H51.24a36.59,36.59,0,0,1,6.93-19.41H46.93A36.92,36.92,0,0,1,16.59,85.88V70.65A21.74,21.74,0,0,0,36,51.24H16.59V36A21.71,21.71,0,0,0,36,16.59H51.24A36.72,36.72,0,0,1,44.31,36H55.55A36.9,36.9,0,0,1,85.88,16.59Z"/></g></g></svg>