<svg width="278" height="157" viewBox="0 0 278 157" fill="none" xmlns="http://www.w3.org/2000/svg">
<g clip-path="url(#clip0_825_590)">
<path d="M26.358 36.6492L-60.8381 78.5438L26.308 123.075V178.393L-111.5 107.374V50.2254L26.268 -21.3931L26.358 36.6383V36.6492Z" fill="#FFE4A9"/>
<path d="M139.962 -21.4424C89.3102 -21.4315 48.2568 23.3287 48.2768 78.5272C48.2868 133.726 89.3603 178.464 140.012 178.442C190.664 178.431 231.717 133.671 231.698 78.4727C231.688 23.2634 190.614 -21.4642 139.972 -21.4424C139.972 -21.4424 139.972 -21.4424 139.962 -21.4424ZM139.962 130.479C113.616 130.479 92.2698 107.205 92.2698 78.5054C92.2698 49.8057 113.626 26.5321 139.962 26.5321C166.298 26.5321 187.655 49.8057 187.655 78.5054C187.655 107.194 166.298 130.446 139.972 130.446V130.49L139.962 130.479Z" fill="#FFE4A9"/>
<path d="M253.616 36.6763L340.782 78.5709L253.676 123.102V178.421L391.344 107.39V50.2417L253.676 -21.4204L253.616 36.6654V36.6763Z" fill="#FFE4A9"/>
</g>
<defs>
<clipPath id="clip0_825_590">
<rect width="278" height="157" fill="white"/>
</clipPath>
</defs>
</svg>
