<svg width="279" height="157" viewBox="0 0 279 157" fill="none" xmlns="http://www.w3.org/2000/svg">
<path d="M27.0246 36.6492L-60.1714 78.5438L26.9747 123.075V178.393L-110.833 107.374V50.2254L26.9346 -21.3931L27.0246 36.6383V36.6492Z" fill="#17BDFF"/>
<path d="M140.629 -21.4424C89.9769 -21.4315 48.9235 23.3287 48.9435 78.5272C48.9535 133.726 90.0269 178.464 140.679 178.442C191.331 178.431 232.384 133.671 232.364 78.4727C232.354 23.2634 191.281 -21.4642 140.639 -21.4424C140.639 -21.4424 140.639 -21.4424 140.629 -21.4424ZM140.629 130.479C114.283 130.479 92.9365 107.205 92.9365 78.5054C92.9365 49.8057 114.293 26.5321 140.629 26.5321C166.965 26.5321 188.321 49.8057 188.321 78.5054C188.321 107.194 166.965 130.446 140.639 130.446V130.49L140.629 130.479Z" fill="#17BDFF"/>
<path d="M254.283 36.6763L341.449 78.5709L254.343 123.102V178.421L392.011 107.39V50.2417L254.343 -21.4204L254.283 36.6654V36.6763Z" fill="#17BDFF"/>
</svg>
