<svg width="279" height="157" viewBox="0 0 279 157" fill="none" xmlns="http://www.w3.org/2000/svg">
<path d="M26.6913 36.6492L-60.5048 78.5438L26.6413 123.075V178.393L-111.167 107.374V50.2254L26.6013 -21.3931L26.6913 36.6383V36.6492Z" fill="#FF005C"/>
<path d="M140.295 -21.4424C89.6436 -21.4315 48.5901 23.3287 48.6101 78.5272C48.6201 133.726 89.6936 178.464 140.345 178.442C190.997 178.431 232.051 133.671 232.031 78.4727C232.021 23.2634 190.947 -21.4642 140.305 -21.4424C140.305 -21.4424 140.305 -21.4424 140.295 -21.4424ZM140.295 130.479C113.95 130.479 92.6031 107.205 92.6031 78.5054C92.6031 49.8057 113.96 26.5321 140.295 26.5321C166.631 26.5321 187.988 49.8057 187.988 78.5054C187.988 107.194 166.631 130.446 140.305 130.446V130.49L140.295 130.479Z" fill="#FF005C"/>
<path d="M253.949 36.6763L341.116 78.5709L254.009 123.102V178.421L391.677 107.39V50.2417L254.009 -21.4204L253.949 36.6654V36.6763Z" fill="#FF005C"/>
</svg>
