<svg width="77" height="44" viewBox="0 0 77 44" fill="none" xmlns="http://www.w3.org/2000/svg">
<path d="M0.826782 10.9945V21.1151H2.44001H4.05324V20.1001V19.0851L4.41695 19.4313C5.40835 20.3758 6.81039 21.074 8.21243 21.3263C8.95745 21.4554 10.1131 21.4436 10.8464 21.2911C15.0525 20.4345 17.5926 15.999 16.3431 11.6985C15.8914 10.1496 14.7651 8.57727 13.4804 7.69135C12.8644 7.26892 11.9434 6.83476 11.2688 6.65875C8.89292 6.03098 6.25896 6.70569 4.41108 8.41299L4.05324 8.74741V4.81064V0.873869H2.44001H0.826782V10.9945ZM9.6966 9.58639C10.5648 9.76827 11.2746 10.1555 11.9141 10.7891C13.3161 12.1796 13.6387 14.1568 12.7529 15.9521C12.5183 16.4215 12.3951 16.5916 11.9434 17.0375C11.3509 17.6301 10.8699 17.941 10.207 18.1522C9.2449 18.4573 8.40015 18.4691 7.45568 18.1992C5.87178 17.7474 4.73959 16.5681 4.34068 14.9547C4.23509 14.544 4.21749 14.3445 4.24096 13.752C4.28789 12.5844 4.6516 11.7337 5.44941 10.9006C6.1123 10.2024 6.84559 9.79174 7.77833 9.58639C8.24763 9.48079 9.2097 9.48079 9.6966 9.58639Z" fill="white"/>
<path d="M72.6887 4.81659V8.75336L72.2957 8.37787C70.1604 6.33028 67.0043 5.84332 64.3879 7.15166C63.5725 7.55649 63.0446 7.93784 62.411 8.57735C61.4372 9.55714 60.7274 10.8948 60.4223 12.3205C60.2463 13.1302 60.2287 14.6673 60.3871 15.4242C60.7215 17.0024 61.4489 18.3459 62.5342 19.4137C65.2503 22.0715 69.5561 22.1008 72.2957 19.4783L72.6887 19.1028V20.106V21.1152H74.39H76.0912V10.9946V0.873955H74.39H72.6887V4.81659ZM69.1338 9.58647C70.2308 9.82115 71.1283 10.3727 71.7795 11.2292C73.2343 13.1302 72.9175 15.8583 71.0696 17.3837C69.6383 18.563 67.4971 18.7214 65.8545 17.7592C65.3617 17.4717 64.5874 16.7032 64.3058 16.2221C63.8717 15.4887 63.6077 14.3798 63.684 13.6054C63.8834 11.5813 65.2738 10.0089 67.2331 9.59234C67.7376 9.48087 68.6293 9.48087 69.1338 9.58647Z" fill="white"/>
<path d="M25.1543 6.44769C23.7229 6.6237 22.5262 7.48028 21.8574 8.81796L21.5935 9.33426V8.03765V6.74104H20.0096H18.4257V13.9281V21.1152H20.1269H21.8281V18.5161C21.8281 15.0605 21.9161 13.9281 22.2798 12.6667C22.5145 11.8336 22.8488 11.2352 23.3533 10.7247C23.8578 10.2143 24.3213 9.95616 25.0135 9.80949C25.7292 9.65695 27.1723 9.78015 27.888 10.0559C27.9818 10.097 27.9877 9.99137 27.9877 8.42487C27.9877 7.50375 27.9642 6.73517 27.9408 6.71757C27.8352 6.65303 26.5329 6.45355 26.0518 6.43009C25.7761 6.41249 25.3772 6.42422 25.1543 6.44769Z" fill="white"/>
<path d="M34.2352 6.43017C33.0796 6.48298 31.8066 6.67659 30.5277 6.98167L29.7475 7.16942V8.80045C29.7475 9.70397 29.7593 10.4373 29.7769 10.4373C29.7945 10.4373 30.1464 10.3317 30.5571 10.2085C32.3228 9.66877 33.6251 9.46929 35.1738 9.51622C36.8223 9.56316 37.6553 9.82718 38.2771 10.5019C38.6701 10.9184 38.7816 11.2353 38.8227 11.9745L38.8579 12.5377L35.7253 12.5671C33.279 12.5905 32.4871 12.614 32.1175 12.6844C30.1464 13.054 28.9321 13.8167 28.3514 15.0606C28.1402 15.5182 28.0522 15.9113 28.0111 16.539C27.8175 19.4667 30.1699 21.4204 33.8833 21.4145C35.825 21.4145 37.3385 20.8278 38.5059 19.6368L38.9576 19.1733V20.1473V21.1153H40.5473H42.1312L42.1078 16.2281C42.0902 11.4934 42.0843 11.3291 41.9611 10.8363C41.4038 8.5423 39.8375 7.16942 37.1684 6.62965C36.6521 6.52404 35.0213 6.3715 34.7045 6.40084C34.64 6.4067 34.4288 6.41844 34.2352 6.43017ZM38.8403 15.395C38.8403 15.6062 38.588 16.2574 38.3651 16.6329C38.0952 17.0788 37.4148 17.7066 36.9513 17.9295C36.1183 18.3402 35.432 18.481 34.2939 18.4752C33.0678 18.4752 32.4167 18.305 31.918 17.8533C31.2376 17.2372 31.2786 16.2164 32.0002 15.7294C32.622 15.3187 33.0737 15.2659 36.3647 15.2542L38.8403 15.2483V15.395Z" fill="white"/>
<path d="M51.5995 6.44767C50.086 6.60608 48.7132 7.26905 47.54 8.40139L47.2291 8.7006V7.72081V6.74102H45.6452H44.0613V13.9281V21.1152H45.7625H47.4579L47.4755 17.2254C47.4989 13.3884 47.4989 13.3355 47.628 12.9073C47.933 11.9099 48.4375 11.1589 49.1943 10.5839C50.2678 9.7684 51.6346 9.44572 52.9076 9.70973C54.0985 9.95028 54.8728 10.7071 55.2483 11.992C55.348 12.3264 55.3539 13.2417 55.3715 28.1674L55.3832 43.9966H57.1138H58.8443V41.597V39.1974L59.5424 38.5813L60.2346 37.9653L63.2499 40.9809L66.2652 43.9966H68.6997H71.1342L66.9398 39.8017L62.7454 35.6067L65.8838 32.4679L69.0223 29.329L66.7051 29.3349L64.3879 29.3408L61.6308 32.1452L58.8736 34.9555L58.8443 23.6791C58.815 13.0833 58.8032 12.3675 58.7035 11.8453C58.2108 9.27557 56.7794 7.5272 54.5385 6.76449C53.7172 6.48287 52.5146 6.3538 51.5995 6.44767Z" fill="white"/>
<path d="M30.9795 23.286C28.8559 23.4855 27.0784 24.6706 26.1926 26.4835C25.8817 27.1289 25.7174 27.7977 25.6646 28.6661L25.6235 29.329H24.638H23.6466V30.8251V32.3212H24.6439H25.6411V38.1589V43.9966H27.3424H29.0436V38.1589V32.3212H31.0968H33.15V30.8251V29.329L31.1144 29.3173L29.0729 29.2997L29.0788 28.801C29.0905 27.4868 29.8355 26.6419 31.2141 26.3838C31.9709 26.243 33.2438 26.4307 34.2587 26.8297C34.4699 26.9118 34.6576 26.9822 34.687 26.9822C34.7104 26.9822 34.7339 26.2547 34.7339 25.3688V23.7612L34.3408 23.6439C33.7601 23.4738 33.1148 23.3564 32.5868 23.3153C31.6423 23.2449 31.4664 23.2449 30.9795 23.286Z" fill="white"/>
<path d="M49.2236 25.486V27.2168H50.9542H52.6847V25.486V23.7553H50.9542H49.2236V25.486Z" fill="white"/>
<path d="M12.9407 29.0709C12.2308 29.1589 10.4651 29.4992 9.97819 29.6459L9.71421 29.7221L9.69661 31.3473C9.69074 32.2391 9.70247 32.9666 9.7318 32.9666C9.75527 32.9666 10.1307 32.861 10.5648 32.726C13.9086 31.7228 16.9767 31.8284 18.144 32.9901C18.5312 33.3773 18.6837 33.7704 18.7072 34.4685L18.7307 35.067L15.6919 35.0963C12.9348 35.1256 12.5828 35.1374 11.9845 35.2489C10.295 35.5598 9.20384 36.1524 8.54682 37.1204C8.11858 37.7423 7.97192 38.241 7.93672 39.1622C7.90152 40.1067 8.00125 40.6406 8.3415 41.333C8.96919 42.612 10.3008 43.4803 12.2367 43.8616C12.9817 44.0083 14.5715 44.0024 15.2578 43.8558C16.5778 43.5742 17.5809 43.0344 18.4432 42.1602L18.8949 41.6967V42.8466V43.9966H20.4495H22.0099L21.9923 38.8747L21.9747 33.7586L21.8163 33.1837C21.1711 30.831 19.3408 29.4522 16.3548 29.065C15.4984 28.9535 13.9027 28.9594 12.9407 29.0709ZM18.7483 38.024C18.5371 39.0213 17.7451 40.0422 16.83 40.494C15.4984 41.1452 13.5097 41.2391 12.2719 40.7052C11.9141 40.5526 11.5328 40.1654 11.4154 39.8369C11.1573 39.1035 11.4565 38.4464 12.1956 38.1178C12.7412 37.8714 13.1049 37.8479 16.0087 37.8421L18.7893 37.8362L18.7483 38.024Z" fill="white"/>
<path d="M42.272 29.065C40.9404 29.3584 39.8316 30.256 39.2509 31.5057L39.0808 31.8812L39.0749 30.6022V29.329H37.491H35.9071V36.6628V43.9966H37.6083H39.3095V41.2508C39.3095 37.6543 39.3917 36.5337 39.7495 35.2841C39.9431 34.5976 40.3479 33.7762 40.6881 33.3949C41.615 32.3447 43.1872 32.0161 44.9881 32.4972C45.2228 32.5618 45.4222 32.6146 45.4398 32.6146C45.4574 32.6146 45.4691 31.8636 45.4691 30.9483V29.2821L45.2169 29.2234C44.2724 28.9829 42.9584 28.9125 42.272 29.065Z" fill="white"/>
<path d="M47.229 30.8545V32.3799H48.2263H49.2235V38.1882V43.9966H50.9541H52.6846V36.6628V29.329H49.9568H47.229V30.8545Z" fill="white"/>
</svg>
