<svg width="1512" height="305" viewBox="0 0 1512 305" fill="none" xmlns="http://www.w3.org/2000/svg">
<path d="M407.409 165.656L136.437 285.124L407.253 412.112V569.86L-21 367.338L-21 204.37L407.129 0.139648L407.409 165.625V165.656Z" fill="#17BDFF"/>
<path d="M756.115 2.26976e-05C598.708 0.0310938 471.13 127.671 471.192 285.078C471.223 442.484 598.864 570.062 756.27 570C913.676 569.969 1041.25 442.329 1041.19 284.922C1041.16 127.485 913.521 -0.0621196 756.146 2.26976e-05C756.146 2.26976e-05 756.146 2.26976e-05 756.115 2.26976e-05ZM756.115 433.225C674.242 433.225 607.905 366.857 607.905 285.016C607.905 203.174 674.273 136.806 756.115 136.806C837.956 136.806 904.324 203.174 904.324 285.016C904.324 366.826 837.956 433.132 756.146 433.132V433.256L756.115 433.225Z" fill="#17BDFF"/>
<path d="M1104.98 165.734L1375.85 285.202L1105.16 412.19V569.938L1532.98 367.385V204.417L1105.16 0.0625L1104.98 165.703V165.734Z" fill="#17BDFF"/>
</svg>
