<svg width="145" height="75" viewBox="0 0 145 75" fill="none" xmlns="http://www.w3.org/2000/svg">
<path d="M22.801 7.93799C22.298 8.00079 21.9416 8.4404 22.0045 8.94282C22.0674 9.44524 22.5076 9.80112 23.0106 9.73831L22.9058 8.83815L22.801 7.93799Z" fill="black"/>
<path d="M53.048 7.93817L52.9432 8.83833C53.0124 8.23753 53.048 7.93817 53.048 7.93817H52.5659C52.2725 7.93817 51.8532 7.93817 51.3502 7.9591C50.365 8.02191 49.0235 8.25218 47.682 8.83833C46.3404 9.42449 44.9989 10.4084 44.0766 12.0203C43.364 13.2345 42.9238 14.7417 42.8609 16.6258H33.0301C32.9672 14.7417 32.506 13.2135 31.8143 12.0203C30.892 10.4293 29.5505 9.44542 28.209 8.83833C26.8884 8.25218 25.5469 8.04284 24.5408 7.9591C24.0377 7.91724 23.6185 7.91724 23.325 7.93817H22.8429L22.9477 8.83833L23.0525 9.7385H23.3879C23.6395 9.7385 23.9958 9.7385 24.415 9.75943C25.2744 9.82223 26.3854 10.0106 27.4754 10.4921C28.5444 10.9736 29.5505 11.7272 30.2422 12.9205C30.7663 13.8206 31.1436 15.0139 31.2274 16.6258C30.1793 16.6886 29.2361 17.2538 28.7121 18.154L24.8971 24.7273C23.7023 26.7788 25.1906 29.3537 27.5802 29.3537H33.0301C33.9314 29.3537 34.7908 29.7514 35.3568 30.4213L37.9979 33.4777L40.639 30.4213C41.2259 29.7514 42.0853 29.3537 42.9867 29.3537H48.5204C50.889 29.3537 52.3773 26.7788 51.2034 24.7273L47.3885 18.154C46.8435 17.191 45.8164 16.6049 44.7055 16.6049H44.6635C44.7264 14.9929 45.1247 13.7997 45.6487 12.8995C46.3404 11.6854 47.3675 10.9317 48.4156 10.4712C49.4846 9.9897 50.5956 9.8013 51.4759 9.7385C51.8952 9.71756 52.2515 9.71756 52.503 9.71756H52.8384C53.3415 9.78036 53.7817 9.40355 53.8446 8.92207C53.9074 8.41965 53.5301 7.98004 53.048 7.91724V7.93817Z" fill="black"/>
<path d="M67.0292 50.8532L55.8149 34.2315C55.207 33.1848 54.0751 32.5359 52.8594 32.5359H44.3491C43.3639 32.5359 42.4207 32.9546 41.7709 33.7082L37.8931 38.1881L34.0152 33.7082C33.3654 32.9546 32.4222 32.5359 31.437 32.5359H23.0106C21.7949 32.5359 20.6839 33.1848 20.0551 34.2315L8.84083 50.8532C8.37968 51.6487 8.25391 52.5907 8.50545 53.4699L10.4968 60.5456C10.916 62.011 12.2575 63.0158 13.7667 63.0158H19.5101C20.7258 63.0158 21.8577 62.3669 22.4656 61.3202L26.9723 50.9369C27.5802 49.8902 28.7121 49.2412 29.9278 49.2412H45.9003C47.116 49.2412 48.2479 49.8902 48.8558 50.9369L53.3624 61.3202C53.9703 62.3669 55.1022 63.0158 56.318 63.0158H62.0613C63.5915 63.0158 64.933 62.011 65.3313 60.5456L67.3226 53.4699C67.5741 52.5907 67.4484 51.6277 66.9872 50.8532H67.0292ZM29.2361 43.5263H27.14C26.8046 43.5263 26.5321 43.7984 26.5321 44.1333V46.2267C26.5321 46.5617 26.2596 46.8338 25.9242 46.8338H24.2473C23.9119 46.8338 23.6394 46.5617 23.6394 46.2267V44.1333C23.6394 43.7984 23.3669 43.5263 23.0316 43.5263H20.9354C20.6001 43.5263 20.3276 43.2541 20.3276 42.9192V41.2444C20.3276 40.9095 20.6001 40.6374 20.9354 40.6374H23.0316C23.3669 40.6374 23.6394 40.3652 23.6394 40.0303V37.9369C23.6394 37.6019 23.9119 37.3298 24.2473 37.3298H25.9242C26.2596 37.3298 26.5321 37.6019 26.5321 37.9369V40.0303C26.5321 40.3652 26.8046 40.6374 27.14 40.6374H29.2361C29.5715 40.6374 29.844 40.9095 29.844 41.2444V42.9192C29.844 43.2541 29.5715 43.5263 29.2361 43.5263ZM51.2663 37.8531C52.1257 37.8531 52.8175 38.4812 52.8175 39.2766C52.8175 40.0721 52.1257 40.7002 51.2663 40.7002C50.4069 40.7002 49.7152 40.0721 49.7152 39.2766C49.7152 38.4812 50.4069 37.8531 51.2663 37.8531ZM48.5414 43.5472C47.7448 43.5472 47.116 42.8564 47.116 41.9981C47.116 41.1398 47.7448 40.449 48.5414 40.449C49.3379 40.449 49.9667 41.1398 49.9667 41.9981C49.9667 42.8564 49.3379 43.5472 48.5414 43.5472ZM51.2663 46.143C50.4069 46.143 49.7152 45.515 49.7152 44.7195C49.7152 43.924 50.4069 43.296 51.2663 43.296C52.1257 43.296 52.8175 43.924 52.8175 44.7195C52.8175 45.515 52.1257 46.143 51.2663 46.143ZM53.9913 43.5472C53.1948 43.5472 52.5659 42.8564 52.5659 41.9981C52.5659 41.1398 53.1948 40.449 53.9913 40.449C54.7878 40.449 55.4166 41.1398 55.4166 41.9981C55.4166 42.8564 54.7878 43.5472 53.9913 43.5472Z" fill="black"/>
<path d="M36.866 66.5118L28.7959 54.6841C28.2299 53.8467 28.8168 52.7163 29.823 52.7163H45.9631C46.9693 52.7163 47.5771 53.8467 46.9902 54.6841L38.9202 66.5118C38.4171 67.2445 37.3481 67.2445 36.845 66.5118H36.866Z" fill="black"/>
<path d="M83.1504 39.3735H80.3416V37.7197H75.1223V17.937H83.1504V25.9338H80.3416V20.7212H77.9101V30.1206L83.1504 28.4878V39.3944V39.3735ZM80.3605 34.9564V32.1512L77.929 32.9258V34.9564H80.3605Z" fill="black"/>
<path d="M93.2118 37.699H85.8963L84.7016 24.1757L90.424 22.4172V20.6378H84.7016V17.8745H93.2328V37.699H93.2118ZM90.4219 34.9567V25.2852L87.6131 26.1853L88.4306 34.9776H90.4219V34.9567Z" fill="black"/>
<path d="M108.073 17.8745V37.699H105.265V21.538L103.001 22.2288V37.699H100.192V21.4961L97.8233 22.2079V37.6781H95.0145V17.8745H97.8233V19.4655L102.98 17.8745V19.4446L108.052 17.8745H108.073Z" fill="black"/>
<path d="M118.701 31.3978L112.936 33.1563V34.9357H118.701V37.7199H110.107V17.8535H117.401L118.701 31.3769V31.3978ZM115.745 29.4719L114.907 20.6587H112.936V30.3302L115.745 29.43V29.4719Z" fill="black"/>
<path d="M128.112 23.9035H125.324L125.031 20.6587H123.04V37.7409H120.231V17.8745H127.525L128.112 23.9035Z" fill="black"/>
<path d="M136.622 37.6988H128.993V28.425L133.814 25.6617V20.7004H131.78V23.6521L128.972 24.8244V17.958H136.601V27.3993L131.78 30.0369V34.9564H133.814V32.0675L136.622 30.6859V37.7407V37.6988Z" fill="black"/>
<path d="M83.0666 60.0143H80.2578V54.1109L77.9101 54.8646V60.0143H75.1013V40.1689H77.9101V52.0803L80.2578 51.3267V40.1479H83.0666V60.0143Z" fill="#FFB800"/>
<path d="M87.8667 43.7696H85.0579V40.1689H87.8667V43.7696ZM87.8667 60.0144H85.0579V46.4492H87.8667V60.0144Z" fill="#FFB800"/>
<path d="M98.4521 40.1689L96.0625 60.0144H91.3882L89.0196 40.1689H91.8074L93.7358 56.4975L95.7062 40.1689H98.494H98.4521Z" fill="#FFB800"/>
<path d="M108.155 53.6923L102.391 55.4507V57.2301H108.155V59.9934H99.5819V40.1479H106.876L108.155 53.6713V53.6923ZM105.181 51.7663L104.342 42.9531H102.372V52.6456L105.181 51.7663Z" fill="#FFB800"/>
</svg>
