<svg width="110" height="56" viewBox="0 0 110 56" fill="none" xmlns="http://www.w3.org/2000/svg">
<path d="M17.5944 5.75C17.2158 5.79727 16.9476 6.12814 16.9949 6.50629C17.0422 6.88443 17.3736 7.15228 17.7522 7.10502L17.6733 6.42751L17.5944 5.75Z" fill="white"/>
<path d="M40.3596 5.75062L40.2807 6.42813C40.3328 5.97593 40.3596 5.75062 40.3596 5.75062H39.9968C39.7759 5.75062 39.4604 5.75062 39.0817 5.76637C38.3402 5.81364 37.3305 5.98696 36.3208 6.42813C35.3112 6.8693 34.3015 7.60983 33.6073 8.82304C33.0709 9.73689 32.7396 10.8713 32.6923 12.2894H25.2931C25.2458 10.8713 24.8987 9.72113 24.3781 8.82304C23.6839 7.62558 22.6742 6.88505 21.6645 6.42813C20.6706 5.98696 19.6609 5.8294 18.9036 5.76637C18.525 5.73486 18.2095 5.73486 17.9886 5.75062H17.6257L17.7046 6.42813L17.7835 7.10564H18.0359C18.2252 7.10564 18.4934 7.10564 18.809 7.12139C19.4558 7.16866 20.292 7.31046 21.1123 7.67285C21.9169 8.03524 22.6742 8.60246 23.1948 9.50055C23.5892 10.1781 23.8732 11.0761 23.9363 12.2894C23.1475 12.3366 22.4376 12.762 22.0431 13.4396L19.1718 18.3869C18.2726 19.931 19.3927 21.869 21.1912 21.869H25.2931C25.9715 21.869 26.6183 22.1684 27.0443 22.6726L29.0321 24.9729L31.02 22.6726C31.4617 22.1684 32.1085 21.869 32.7869 21.869H36.9519C38.7346 21.869 39.8548 19.931 38.9713 18.3869L36.1 13.4396C35.6898 12.7148 34.9167 12.2736 34.0806 12.2736H34.049C34.0964 11.0604 34.3961 10.1623 34.7905 9.48479C35.3112 8.57094 36.0842 8.00373 36.873 7.6571C37.6776 7.29471 38.5138 7.1529 39.1764 7.10564C39.4919 7.08988 39.7601 7.08988 39.9494 7.08988H40.2019C40.5805 7.13715 40.9118 6.85354 40.9591 6.49115C41.0065 6.11301 40.7225 5.78213 40.3596 5.73486V5.75062Z" fill="white"/>
<path d="M50.8825 38.0502L42.4421 25.5399C41.9846 24.7521 41.1327 24.2637 40.2176 24.2637H33.8124C33.0709 24.2637 32.361 24.5788 31.8719 25.146L28.9532 28.5178L26.0346 25.146C25.5455 24.5788 24.8356 24.2637 24.0941 24.2637H17.7519C16.8369 24.2637 16.0008 24.7521 15.5275 25.5399L7.08705 38.0502C6.73997 38.6489 6.64531 39.3579 6.83463 40.0197L8.3334 45.3452C8.64892 46.4481 9.65862 47.2044 10.7945 47.2044H15.1173C16.0323 47.2044 16.8842 46.716 17.3418 45.9282L20.7337 38.1132C21.1912 37.3254 22.0431 36.837 22.9582 36.837H34.9798C35.8949 36.837 36.7468 37.3254 37.2043 38.1132L40.5963 45.9282C41.0538 46.716 41.9057 47.2044 42.8208 47.2044H47.1435C48.2952 47.2044 49.3049 46.4481 49.6046 45.3452L51.1034 40.0197C51.2927 39.3579 51.1981 38.6332 50.851 38.0502H50.8825ZM22.4376 32.5356H20.8599C20.6075 32.5356 20.4024 32.7404 20.4024 32.9925V34.5681C20.4024 34.8202 20.1973 35.025 19.9449 35.025H18.6828C18.4303 35.025 18.2252 34.8202 18.2252 34.5681V32.9925C18.2252 32.7404 18.0201 32.5356 17.7677 32.5356H16.1901C15.9377 32.5356 15.7326 32.3307 15.7326 32.0787V30.8182C15.7326 30.5661 15.9377 30.3612 16.1901 30.3612H17.7677C18.0201 30.3612 18.2252 30.1564 18.2252 29.9043V28.3287C18.2252 28.0766 18.4303 27.8718 18.6828 27.8718H19.9449C20.1973 27.8718 20.4024 28.0766 20.4024 28.3287V29.9043C20.4024 30.1564 20.6075 30.3612 20.8599 30.3612H22.4376C22.69 30.3612 22.8951 30.5661 22.8951 30.8182V32.0787C22.8951 32.3307 22.69 32.5356 22.4376 32.5356ZM39.0186 28.2657C39.6655 28.2657 40.1861 28.7384 40.1861 29.3371C40.1861 29.9358 39.6655 30.4085 39.0186 30.4085C38.3718 30.4085 37.8512 29.9358 37.8512 29.3371C37.8512 28.7384 38.3718 28.2657 39.0186 28.2657ZM36.9677 32.5513C36.3682 32.5513 35.8949 32.0314 35.8949 31.3854C35.8949 30.7394 36.3682 30.2194 36.9677 30.2194C37.5672 30.2194 38.0405 30.7394 38.0405 31.3854C38.0405 32.0314 37.5672 32.5513 36.9677 32.5513ZM39.0186 34.5051C38.3718 34.5051 37.8512 34.0324 37.8512 33.4337C37.8512 32.8349 38.3718 32.3623 39.0186 32.3623C39.6655 32.3623 40.1861 32.8349 40.1861 33.4337C40.1861 34.0324 39.6655 34.5051 39.0186 34.5051ZM41.0696 32.5513C40.4701 32.5513 39.9968 32.0314 39.9968 31.3854C39.9968 30.7394 40.4701 30.2194 41.0696 30.2194C41.6691 30.2194 42.1424 30.7394 42.1424 31.3854C42.1424 32.0314 41.6691 32.5513 41.0696 32.5513Z" fill="white"/>
<path d="M28.1798 49.8358L22.1058 40.9337C21.6799 40.3035 22.1216 39.4526 22.8789 39.4526H35.0268C35.784 39.4526 36.2416 40.3035 35.7998 40.9337L29.7259 49.8358C29.3472 50.3873 28.5426 50.3873 28.164 49.8358H28.1798Z" fill="white"/>
<path d="M63.0155 29.41H60.9015V28.1653H56.9731V13.2759H63.0155V19.2947H60.9015V15.3714H59.0714V22.4459L63.0155 21.2169V29.4258V29.41ZM60.9157 26.0855V23.9742L59.0856 24.5572V26.0855H60.9157Z" fill="white"/>
<path d="M70.5884 28.1499H65.0824L64.1831 17.9716L68.4901 16.6481V15.3088H64.1831V13.229H70.6041V28.1499H70.5884ZM68.4885 26.0859V18.8066L66.3745 19.4841L66.9897 26.1017H68.4885V26.0859Z" fill="white"/>
<path d="M81.7741 13.229V28.1499H79.66V15.9863L77.9561 16.5063V28.1499H75.8421V15.9548L74.0594 16.4905V28.1342H71.9453V13.229H74.0594V14.4265L77.9404 13.229V14.4107L81.7583 13.229H81.7741Z" fill="white"/>
<path d="M89.7733 23.407L85.4348 24.7305V26.0698H89.7733V28.1653H83.3049V13.2129H88.7951L89.7733 23.3913V23.407ZM87.5488 21.9575L86.9177 15.3242H85.4348V22.6035L87.5488 21.926V21.9575Z" fill="white"/>
<path d="M96.8568 17.7667H94.7585L94.5376 15.3246H93.0389V28.1815H90.9248V13.229H96.415L96.8568 17.7667Z" fill="white"/>
<path d="M103.262 28.1499H97.5197V21.17L101.148 19.0902V15.356H99.6179V17.5776L97.5039 18.46V13.292H103.247V20.398L99.6179 22.3832V26.0859H101.148V23.9115L103.262 22.8716V28.1814V28.1499Z" fill="white"/>
<path d="M62.9528 44.9456H60.8388V40.5024L59.0718 41.0696V44.9456H56.9578V30.0089H59.0718V38.9741L60.8388 38.4069V29.9932H62.9528V44.9456Z" fill="#FFB800"/>
<path d="M66.5657 32.7188H64.4517V30.0088H66.5657V32.7188ZM66.5657 44.9455H64.4517V34.7356H66.5657V44.9455Z" fill="#FFB800"/>
<path d="M74.5328 30.0088L72.7342 44.9455H69.2161L67.4333 30.0088H69.5316L70.9831 42.2985L72.466 30.0088H74.5643H74.5328Z" fill="#FFB800"/>
<path d="M81.8361 40.1873L77.4976 41.5108V42.8501H81.8361V44.9299H75.3835V29.9932H80.8738L81.8361 40.1715V40.1873ZM79.5974 38.7377L78.9664 32.1045H77.4834V39.3995L79.5974 38.7377Z" fill="#FFB800"/>
</svg>
