<svg width="821" height="746" viewBox="0 0 821 746" fill="none" xmlns="http://www.w3.org/2000/svg">
<g clip-path="url(#clip0_312_652)">
<g filter="url(#filter0_iii_312_652)">
<path d="M484.116 316.944C486.671 317.35 489.286 316.796 491.456 315.388C493.627 313.98 495.199 311.819 495.87 309.32L512.057 248.911C512.434 247.497 512.511 246.019 512.282 244.572C512.053 243.126 511.524 241.744 510.727 240.516C509.931 239.287 508.886 238.239 507.659 237.44C506.432 236.64 505.052 236.107 503.606 235.874L383.177 216.611C378.061 215.792 372.823 216.9 368.477 219.719C364.13 222.538 360.983 226.868 359.644 231.873L286.465 504.978L343.821 520.347L398.179 317.479C399.185 313.726 401.546 310.479 404.807 308.366C408.068 306.253 411.996 305.424 415.832 306.039L484.116 316.944Z" fill="url(#paint0_linear_312_652)"/>
</g>
<path d="M484.116 316.944C486.671 317.35 489.286 316.796 491.456 315.388C493.627 313.98 495.199 311.819 495.87 309.32L512.057 248.911C512.434 247.497 512.511 246.019 512.282 244.572C512.053 243.126 511.524 241.744 510.727 240.516C509.931 239.287 508.886 238.239 507.659 237.44C506.432 236.64 505.052 236.107 503.606 235.874L383.177 216.611C378.061 215.792 372.823 216.9 368.477 219.719C364.13 222.538 360.983 226.868 359.644 231.873L286.465 504.978L343.821 520.347L398.179 317.479C399.185 313.726 401.546 310.479 404.807 308.366C408.068 306.253 411.996 305.424 415.832 306.039L484.116 316.944Z" fill="url(#paint1_radial_312_652)"/>
<g filter="url(#filter1_iii_312_652)">
<path d="M710.766 285.053C713.324 285.465 715.943 284.914 718.117 283.507C720.292 282.099 721.868 279.936 722.54 277.435L738.727 217.025C739.109 215.608 739.188 214.126 738.96 212.676C738.733 211.226 738.202 209.84 737.404 208.608C736.606 207.376 735.557 206.326 734.327 205.526C733.097 204.726 731.712 204.193 730.262 203.962L609.832 184.699C604.716 183.881 599.479 184.988 595.132 187.807C590.786 190.626 587.639 194.957 586.299 199.961L513.115 473.087L570.471 488.456L624.834 285.568C625.84 281.815 628.202 278.568 631.462 276.455C634.723 274.342 638.651 273.513 642.488 274.128L710.766 285.053Z" fill="url(#paint2_linear_312_652)"/>
</g>
<g filter="url(#filter2_iii_312_652)">
<path d="M710.766 285.053C713.324 285.465 715.943 284.914 718.117 283.507C720.292 282.099 721.868 279.936 722.54 277.435L738.727 217.025C739.109 215.608 739.188 214.126 738.96 212.676C738.733 211.226 738.202 209.84 737.404 208.608C736.606 207.376 735.557 206.326 734.327 205.526C733.097 204.726 731.712 204.193 730.262 203.962L609.832 184.699C604.716 183.881 599.479 184.988 595.132 187.807C590.786 190.626 587.639 194.957 586.299 199.961L513.115 473.087L570.471 488.456L624.834 285.568C625.84 281.815 628.202 278.568 631.462 276.455C634.723 274.342 638.651 273.513 642.488 274.128L710.766 285.053Z" fill="url(#paint3_linear_312_652)"/>
</g>
<g filter="url(#filter3_iii_312_652)">
<path d="M420.996 153.046C423.553 153.458 426.173 152.907 428.347 151.499C430.522 150.092 432.098 147.929 432.77 145.428L448.957 85.0183C449.335 83.6019 449.412 82.1218 449.182 80.6739C448.953 79.2259 448.421 77.8423 447.623 76.6127C446.824 75.3832 445.776 74.3351 444.547 73.5362C443.318 72.7374 441.934 72.2058 440.486 71.9756L320.057 52.7122C314.944 51.8945 309.711 52.9998 305.366 55.8146C301.02 58.6295 297.872 62.9543 296.529 67.9541L234.015 301.259L291.371 316.627L335.064 153.561C336.07 149.808 338.432 146.561 341.692 144.448C344.953 142.335 348.881 141.505 352.718 142.121L420.996 153.046Z" fill="url(#paint4_linear_312_652)"/>
</g>
<path d="M420.996 153.046C423.553 153.458 426.173 152.907 428.347 151.499C430.522 150.092 432.098 147.929 432.77 145.428L448.957 85.0183C449.335 83.6019 449.412 82.1218 449.182 80.6739C448.953 79.2259 448.421 77.8423 447.623 76.6127C446.824 75.3832 445.776 74.3351 444.547 73.5362C443.318 72.7374 441.934 72.2058 440.486 71.9756L320.057 52.7122C314.944 51.8945 309.711 52.9998 305.366 55.8146C301.02 58.6295 297.872 62.9543 296.529 67.9541L234.015 301.259L291.371 316.627L335.064 153.561C336.07 149.808 338.432 146.561 341.692 144.448C344.953 142.335 348.881 141.505 352.718 142.121L420.996 153.046Z" fill="url(#paint5_linear_312_652)"/>
<path d="M420.996 153.046C423.553 153.458 426.173 152.907 428.347 151.499C430.522 150.092 432.098 147.929 432.77 145.428L448.957 85.0183C449.335 83.6019 449.412 82.1218 449.182 80.6739C448.953 79.2259 448.421 77.8423 447.623 76.6127C446.824 75.3832 445.776 74.3351 444.547 73.5362C443.318 72.7374 441.934 72.2058 440.486 71.9756L320.057 52.7122C314.944 51.8945 309.711 52.9998 305.366 55.8146C301.02 58.6295 297.872 62.9543 296.529 67.9541L234.015 301.259L291.371 316.627L335.064 153.561C336.07 149.808 338.432 146.561 341.692 144.448C344.953 142.335 348.881 141.505 352.718 142.121L420.996 153.046Z" fill="url(#paint6_radial_312_652)"/>
<path d="M232.867 588.679C280.594 601.468 329.652 573.144 342.44 525.417C355.229 477.69 326.905 428.633 279.178 415.844C231.451 403.056 182.394 431.379 169.605 479.106C156.817 526.833 185.14 575.891 232.867 588.679Z" fill="url(#paint7_radial_312_652)"/>
<path d="M232.867 588.679C280.594 601.468 329.652 573.144 342.44 525.417C355.229 477.69 326.905 428.633 279.178 415.844C231.451 403.056 182.394 431.379 169.605 479.106C156.817 526.833 185.14 575.891 232.867 588.679Z" fill="url(#paint8_radial_312_652)"/>
<path d="M232.867 588.679C280.594 601.468 329.652 573.144 342.44 525.417C355.229 477.69 326.905 428.633 279.178 415.844C231.451 403.056 182.394 431.379 169.605 479.106C156.817 526.833 185.14 575.891 232.867 588.679Z" fill="url(#paint9_radial_312_652)"/>
<path d="M232.867 588.679C280.594 601.468 329.652 573.144 342.44 525.417C355.229 477.69 326.905 428.633 279.178 415.844C231.451 403.056 182.394 431.379 169.605 479.106C156.817 526.833 185.14 575.891 232.867 588.679Z" fill="url(#paint10_radial_312_652)"/>
<path d="M232.867 588.679C280.594 601.468 329.652 573.144 342.44 525.417C355.229 477.69 326.905 428.633 279.178 415.844C231.451 403.056 182.394 431.379 169.605 479.106C156.817 526.833 185.14 575.891 232.867 588.679Z" fill="url(#paint11_radial_312_652)"/>
<path d="M183.859 376.887C230.872 389.484 279.194 361.585 291.791 314.572C304.388 267.56 276.489 219.238 229.477 206.641C182.465 194.044 134.142 221.943 121.545 268.955C108.948 315.967 136.847 364.29 183.859 376.887Z" fill="url(#paint12_radial_312_652)"/>
<path d="M183.859 376.887C230.872 389.484 279.194 361.585 291.791 314.572C304.388 267.56 276.489 219.238 229.477 206.641C182.465 194.044 134.142 221.943 121.545 268.955C108.948 315.967 136.847 364.29 183.859 376.887Z" fill="url(#paint13_radial_312_652)"/>
<path d="M183.859 376.887C230.872 389.484 279.194 361.585 291.791 314.572C304.388 267.56 276.489 219.238 229.477 206.641C182.465 194.044 134.142 221.943 121.545 268.955C108.948 315.967 136.847 364.29 183.859 376.887Z" fill="url(#paint14_radial_312_652)"/>
<path d="M183.859 376.887C230.872 389.484 279.194 361.585 291.791 314.572C304.388 267.56 276.489 219.238 229.477 206.641C182.465 194.044 134.142 221.943 121.545 268.955C108.948 315.967 136.847 364.29 183.859 376.887Z" fill="url(#paint15_radial_312_652)"/>
<path d="M183.859 376.887C230.872 389.484 279.194 361.585 291.791 314.572C304.388 267.56 276.489 219.238 229.477 206.641C182.465 194.044 134.142 221.943 121.545 268.955C108.948 315.967 136.847 364.29 183.859 376.887Z" fill="url(#paint16_radial_312_652)"/>
<path d="M459.164 558.19C506.891 570.978 555.948 542.655 568.737 494.928C581.525 447.201 553.202 398.143 505.475 385.355C457.748 372.566 408.69 400.89 395.902 448.617C383.113 496.344 411.437 545.401 459.164 558.19Z" fill="url(#paint17_radial_312_652)"/>
<path d="M459.164 558.19C506.891 570.978 555.948 542.655 568.737 494.928C581.525 447.201 553.202 398.143 505.475 385.355C457.748 372.566 408.69 400.89 395.902 448.617C383.113 496.344 411.437 545.401 459.164 558.19Z" fill="url(#paint18_radial_312_652)"/>
<path d="M459.164 558.19C506.891 570.978 555.948 542.655 568.737 494.928C581.525 447.201 553.202 398.143 505.475 385.355C457.748 372.566 408.69 400.89 395.902 448.617C383.113 496.344 411.437 545.401 459.164 558.19Z" fill="url(#paint19_radial_312_652)"/>
<path d="M459.164 558.19C506.891 570.978 555.948 542.655 568.737 494.928C581.525 447.201 553.202 398.143 505.475 385.355C457.748 372.566 408.69 400.89 395.902 448.617C383.113 496.344 411.437 545.401 459.164 558.19Z" fill="url(#paint20_radial_312_652)"/>
</g>
<defs>
<filter id="filter0_iii_312_652" x="286.165" y="215.898" width="226.696" height="304.899" filterUnits="userSpaceOnUse" color-interpolation-filters="sRGB">
<feFlood flood-opacity="0" result="BackgroundImageFix"/>
<feBlend mode="normal" in="SourceGraphic" in2="BackgroundImageFix" result="shape"/>
<feColorMatrix in="SourceAlpha" type="matrix" values="0 0 0 0 0 0 0 0 0 0 0 0 0 0 0 0 0 0 127 0" result="hardAlpha"/>
<feOffset dx="0.75" dy="0.45"/>
<feGaussianBlur stdDeviation="0.225"/>
<feComposite in2="hardAlpha" operator="arithmetic" k2="-1" k3="1"/>
<feColorMatrix type="matrix" values="0 0 0 0 0.239216 0 0 0 0 0.211765 0 0 0 0 0.266667 0 0 0 1 0"/>
<feBlend mode="normal" in2="shape" result="effect1_innerShadow_312_652"/>
<feColorMatrix in="SourceAlpha" type="matrix" values="0 0 0 0 0 0 0 0 0 0 0 0 0 0 0 0 0 0 127 0" result="hardAlpha"/>
<feOffset dx="-0.3"/>
<feGaussianBlur stdDeviation="0.15"/>
<feComposite in2="hardAlpha" operator="arithmetic" k2="-1" k3="1"/>
<feColorMatrix type="matrix" values="0 0 0 0 0.317647 0 0 0 0 0.298039 0 0 0 0 0.341176 0 0 0 1 0"/>
<feBlend mode="normal" in2="effect1_innerShadow_312_652" result="effect2_innerShadow_312_652"/>
<feColorMatrix in="SourceAlpha" type="matrix" values="0 0 0 0 0 0 0 0 0 0 0 0 0 0 0 0 0 0 127 0" result="hardAlpha"/>
<feOffset dy="-0.45"/>
<feGaussianBlur stdDeviation="0.225"/>
<feComposite in2="hardAlpha" operator="arithmetic" k2="-1" k3="1"/>
<feColorMatrix type="matrix" values="0 0 0 0 0.211765 0 0 0 0 0.129412 0 0 0 0 0.278431 0 0 0 1 0"/>
<feBlend mode="normal" in2="effect2_innerShadow_312_652" result="effect3_innerShadow_312_652"/>
</filter>
<filter id="filter1_iii_312_652" x="512.815" y="183.986" width="226.722" height="304.92" filterUnits="userSpaceOnUse" color-interpolation-filters="sRGB">
<feFlood flood-opacity="0" result="BackgroundImageFix"/>
<feBlend mode="normal" in="SourceGraphic" in2="BackgroundImageFix" result="shape"/>
<feColorMatrix in="SourceAlpha" type="matrix" values="0 0 0 0 0 0 0 0 0 0 0 0 0 0 0 0 0 0 127 0" result="hardAlpha"/>
<feOffset dx="0.75" dy="0.45"/>
<feGaussianBlur stdDeviation="0.225"/>
<feComposite in2="hardAlpha" operator="arithmetic" k2="-1" k3="1"/>
<feColorMatrix type="matrix" values="0 0 0 0 0.239216 0 0 0 0 0.211765 0 0 0 0 0.266667 0 0 0 1 0"/>
<feBlend mode="normal" in2="shape" result="effect1_innerShadow_312_652"/>
<feColorMatrix in="SourceAlpha" type="matrix" values="0 0 0 0 0 0 0 0 0 0 0 0 0 0 0 0 0 0 127 0" result="hardAlpha"/>
<feOffset dx="-0.3"/>
<feGaussianBlur stdDeviation="0.15"/>
<feComposite in2="hardAlpha" operator="arithmetic" k2="-1" k3="1"/>
<feColorMatrix type="matrix" values="0 0 0 0 0.317647 0 0 0 0 0.298039 0 0 0 0 0.341176 0 0 0 1 0"/>
<feBlend mode="normal" in2="effect1_innerShadow_312_652" result="effect2_innerShadow_312_652"/>
<feColorMatrix in="SourceAlpha" type="matrix" values="0 0 0 0 0 0 0 0 0 0 0 0 0 0 0 0 0 0 127 0" result="hardAlpha"/>
<feOffset dy="-0.45"/>
<feGaussianBlur stdDeviation="0.225"/>
<feComposite in2="hardAlpha" operator="arithmetic" k2="-1" k3="1"/>
<feColorMatrix type="matrix" values="0 0 0 0 0.211765 0 0 0 0 0.129412 0 0 0 0 0.278431 0 0 0 1 0"/>
<feBlend mode="normal" in2="effect2_innerShadow_312_652" result="effect3_innerShadow_312_652"/>
</filter>
<filter id="filter2_iii_312_652" x="512.815" y="183.986" width="226.722" height="304.92" filterUnits="userSpaceOnUse" color-interpolation-filters="sRGB">
<feFlood flood-opacity="0" result="BackgroundImageFix"/>
<feBlend mode="normal" in="SourceGraphic" in2="BackgroundImageFix" result="shape"/>
<feColorMatrix in="SourceAlpha" type="matrix" values="0 0 0 0 0 0 0 0 0 0 0 0 0 0 0 0 0 0 127 0" result="hardAlpha"/>
<feOffset dx="0.75" dy="0.45"/>
<feGaussianBlur stdDeviation="0.225"/>
<feComposite in2="hardAlpha" operator="arithmetic" k2="-1" k3="1"/>
<feColorMatrix type="matrix" values="0 0 0 0 0.239216 0 0 0 0 0.211765 0 0 0 0 0.266667 0 0 0 1 0"/>
<feBlend mode="normal" in2="shape" result="effect1_innerShadow_312_652"/>
<feColorMatrix in="SourceAlpha" type="matrix" values="0 0 0 0 0 0 0 0 0 0 0 0 0 0 0 0 0 0 127 0" result="hardAlpha"/>
<feOffset dx="-0.3"/>
<feGaussianBlur stdDeviation="0.15"/>
<feComposite in2="hardAlpha" operator="arithmetic" k2="-1" k3="1"/>
<feColorMatrix type="matrix" values="0 0 0 0 0.341176 0 0 0 0 0.298039 0 0 0 0 0.298039 0 0 0 1 0"/>
<feBlend mode="normal" in2="effect1_innerShadow_312_652" result="effect2_innerShadow_312_652"/>
<feColorMatrix in="SourceAlpha" type="matrix" values="0 0 0 0 0 0 0 0 0 0 0 0 0 0 0 0 0 0 127 0" result="hardAlpha"/>
<feOffset dy="-0.45"/>
<feGaussianBlur stdDeviation="0.225"/>
<feComposite in2="hardAlpha" operator="arithmetic" k2="-1" k3="1"/>
<feColorMatrix type="matrix" values="0 0 0 0 0.392195 0 0 0 0 0.00780488 0 0 0 0 0.109268 0 0 0 1 0"/>
<feBlend mode="normal" in2="effect2_innerShadow_312_652" result="effect3_innerShadow_312_652"/>
</filter>
<filter id="filter3_iii_312_652" x="233.715" y="51.9992" width="216.047" height="265.078" filterUnits="userSpaceOnUse" color-interpolation-filters="sRGB">
<feFlood flood-opacity="0" result="BackgroundImageFix"/>
<feBlend mode="normal" in="SourceGraphic" in2="BackgroundImageFix" result="shape"/>
<feColorMatrix in="SourceAlpha" type="matrix" values="0 0 0 0 0 0 0 0 0 0 0 0 0 0 0 0 0 0 127 0" result="hardAlpha"/>
<feOffset dx="0.75" dy="0.45"/>
<feGaussianBlur stdDeviation="0.225"/>
<feComposite in2="hardAlpha" operator="arithmetic" k2="-1" k3="1"/>
<feColorMatrix type="matrix" values="0 0 0 0 0.239216 0 0 0 0 0.211765 0 0 0 0 0.266667 0 0 0 1 0"/>
<feBlend mode="normal" in2="shape" result="effect1_innerShadow_312_652"/>
<feColorMatrix in="SourceAlpha" type="matrix" values="0 0 0 0 0 0 0 0 0 0 0 0 0 0 0 0 0 0 127 0" result="hardAlpha"/>
<feOffset dx="-0.3"/>
<feGaussianBlur stdDeviation="0.15"/>
<feComposite in2="hardAlpha" operator="arithmetic" k2="-1" k3="1"/>
<feColorMatrix type="matrix" values="0 0 0 0 0.317647 0 0 0 0 0.298039 0 0 0 0 0.341176 0 0 0 1 0"/>
<feBlend mode="normal" in2="effect1_innerShadow_312_652" result="effect2_innerShadow_312_652"/>
<feColorMatrix in="SourceAlpha" type="matrix" values="0 0 0 0 0 0 0 0 0 0 0 0 0 0 0 0 0 0 127 0" result="hardAlpha"/>
<feOffset dy="-0.45"/>
<feGaussianBlur stdDeviation="0.225"/>
<feComposite in2="hardAlpha" operator="arithmetic" k2="-1" k3="1"/>
<feColorMatrix type="matrix" values="0 0 0 0 0.211765 0 0 0 0 0.129412 0 0 0 0 0.278431 0 0 0 1 0"/>
<feBlend mode="normal" in2="effect2_innerShadow_312_652" result="effect3_innerShadow_312_652"/>
</filter>
<linearGradient id="paint0_linear_312_652" x1="418.764" y1="304.158" x2="359.697" y2="524.601" gradientUnits="userSpaceOnUse">
<stop stop-color="#FFAA00"/>
<stop offset="1" stop-color="#FF7C02"/>
</linearGradient>
<radialGradient id="paint1_radial_312_652" cx="0" cy="0" r="1" gradientUnits="userSpaceOnUse" gradientTransform="translate(324.522 462.936) rotate(-32.8157) scale(17.8362 49.7596)">
<stop offset="0.428" stop-color="#FF7B03"/>
<stop offset="1" stop-color="#FF7B03" stop-opacity="0"/>
</radialGradient>
<linearGradient id="paint2_linear_312_652" x1="645.44" y1="272.252" x2="586.367" y2="492.715" gradientUnits="userSpaceOnUse">
<stop stop-color="#473B53"/>
<stop offset="1" stop-color="#433D4A"/>
</linearGradient>
<linearGradient id="paint3_linear_312_652" x1="645.44" y1="272.252" x2="586.367" y2="492.715" gradientUnits="userSpaceOnUse">
<stop stop-color="#FF005C"/>
<stop offset="1" stop-color="#C90438"/>
</linearGradient>
<linearGradient id="paint4_linear_312_652" x1="358.634" y1="129.183" x2="307.267" y2="320.887" gradientUnits="userSpaceOnUse">
<stop stop-color="#00A863"/>
<stop offset="1" stop-color="#007144"/>
</linearGradient>
<linearGradient id="paint5_linear_312_652" x1="262.873" y1="184.744" x2="273.045" y2="187.47" gradientUnits="userSpaceOnUse">
<stop stop-color="#5C5A5F"/>
<stop offset="1" stop-color="#5C5A5F" stop-opacity="0"/>
</linearGradient>
<radialGradient id="paint6_radial_312_652" cx="0" cy="0" r="1" gradientUnits="userSpaceOnUse" gradientTransform="translate(272.498 250.184) rotate(-32.8833) scale(20.3227 48.7674)">
<stop offset="0.428" stop-color="#007144"/>
<stop offset="1" stop-color="#007144" stop-opacity="0"/>
</radialGradient>
<radialGradient id="paint7_radial_312_652" cx="0" cy="0" r="1" gradientUnits="userSpaceOnUse" gradientTransform="translate(235.203 579.963) rotate(-75) scale(101.652 139.772)">
<stop stop-color="#FF7A02"/>
<stop offset="1" stop-color="#FFAA00"/>
</radialGradient>
<radialGradient id="paint8_radial_312_652" cx="0" cy="0" r="1" gradientUnits="userSpaceOnUse" gradientTransform="translate(307.501 490.226) rotate(145.389) scale(82.7957)">
<stop stop-color="#FAEAC8"/>
<stop offset="1" stop-color="#FAEAC8" stop-opacity="0"/>
</radialGradient>
<radialGradient id="paint9_radial_312_652" cx="0" cy="0" r="1" gradientUnits="userSpaceOnUse" gradientTransform="translate(286.485 517.686) rotate(-154.765) scale(137.728 141.6)">
<stop offset="0.619" stop-color="#FFAA00" stop-opacity="0"/>
<stop offset="1" stop-color="#FFAA00"/>
</radialGradient>
<radialGradient id="paint10_radial_312_652" cx="0" cy="0" r="1" gradientUnits="userSpaceOnUse" gradientTransform="translate(236.405 497.005) rotate(15) scale(123.347 163.947)">
<stop offset="0.796" stop-color="#FFAA00" stop-opacity="0"/>
<stop offset="0.955" stop-color="#FFAA00"/>
</radialGradient>
<radialGradient id="paint11_radial_312_652" cx="0" cy="0" r="1" gradientUnits="userSpaceOnUse" gradientTransform="translate(258.245 493.97) rotate(105) scale(101.704 103.104)">
<stop offset="0.881" stop-color="#FFAA00" stop-opacity="0"/>
<stop offset="1" stop-color="#FFAA00"/>
</radialGradient>
<radialGradient id="paint12_radial_312_652" cx="0" cy="0" r="1" gradientUnits="userSpaceOnUse" gradientTransform="translate(186.163 368.292) rotate(-75) scale(100.119 137.664)">
<stop stop-color="#00A863"/>
<stop offset="1" stop-color="#007144"/>
</radialGradient>
<radialGradient id="paint13_radial_312_652" cx="0" cy="0" r="1" gradientUnits="userSpaceOnUse" gradientTransform="translate(257.373 279.862) rotate(145.389) scale(81.547 81.547)">
<stop stop-color="#0EDE8B"/>
<stop offset="1" stop-color="#0EDE8B" stop-opacity="0"/>
</radialGradient>
<radialGradient id="paint14_radial_312_652" cx="0" cy="0" r="1" gradientUnits="userSpaceOnUse" gradientTransform="translate(236.678 306.973) rotate(-154.765) scale(135.651 139.464)">
<stop offset="0.619" stop-color="#004C2F" stop-opacity="0"/>
<stop offset="1" stop-color="#004C2F"/>
</radialGradient>
<radialGradient id="paint15_radial_312_652" cx="0" cy="0" r="1" gradientUnits="userSpaceOnUse" gradientTransform="translate(187.354 286.589) rotate(15) scale(121.487 161.475)">
<stop offset="0.796" stop-color="#575658" stop-opacity="0"/>
<stop offset="0.955" stop-color="#575658"/>
</radialGradient>
<radialGradient id="paint16_radial_312_652" cx="0" cy="0" r="1" gradientUnits="userSpaceOnUse" gradientTransform="translate(208.857 283.593) rotate(105) scale(100.17 101.549)">
<stop offset="0.881" stop-color="#007144" stop-opacity="0"/>
<stop offset="1" stop-color="#007144"/>
</radialGradient>
<radialGradient id="paint17_radial_312_652" cx="0" cy="0" r="1" gradientUnits="userSpaceOnUse" gradientTransform="translate(461.505 549.453) rotate(-75) scale(101.652 139.772)">
<stop stop-color="#FF005C"/>
<stop offset="1" stop-color="#C90438"/>
</radialGradient>
<radialGradient id="paint18_radial_312_652" cx="0" cy="0" r="1" gradientUnits="userSpaceOnUse" gradientTransform="translate(533.788 459.682) rotate(145.389) scale(82.7957)">
<stop stop-color="#F9699D"/>
<stop offset="1" stop-color="#F9699D" stop-opacity="0"/>
</radialGradient>
<radialGradient id="paint19_radial_312_652" cx="0" cy="0" r="1" gradientUnits="userSpaceOnUse" gradientTransform="translate(462.702 466.516) rotate(15) scale(123.347 163.947)">
<stop offset="0.796" stop-color="#C90438" stop-opacity="0"/>
<stop offset="0.955" stop-color="#C90438"/>
</radialGradient>
<radialGradient id="paint20_radial_312_652" cx="0" cy="0" r="1" gradientUnits="userSpaceOnUse" gradientTransform="translate(484.546 463.46) rotate(105) scale(101.704 103.104)">
<stop offset="0.881" stop-color="#C90438" stop-opacity="0"/>
<stop offset="1" stop-color="#C90438"/>
</radialGradient>
<clipPath id="clip0_312_652">
<rect width="670" height="670" fill="white" transform="translate(173.619 -75.2896) rotate(15)"/>
</clipPath>
</defs>
</svg>
