<svg width="21" height="21" viewBox="0 0 21 21" fill="none" xmlns="http://www.w3.org/2000/svg">
<path d="M19.5 5.75C18.3069 5.74876 17.163 5.27425 16.3194 4.43061C15.4757 3.58697 15.0012 2.44309 15 1.25C15 1.05109 14.921 0.860322 14.7803 0.71967C14.6397 0.579018 14.4489 0.5 14.25 0.5H10.5C10.3011 0.5 10.1103 0.579018 9.96967 0.71967C9.82902 0.860322 9.75 1.05109 9.75 1.25V13.625C9.74985 13.9605 9.65967 14.2898 9.48887 14.5786C9.31807 14.8674 9.07291 15.1051 8.77896 15.2668C8.48501 15.4286 8.15304 15.5085 7.81768 15.4983C7.48232 15.488 7.15586 15.388 6.87234 15.2085C6.58883 15.0291 6.35865 14.7769 6.20582 14.4782C6.05299 14.1795 5.9831 13.8453 6.00345 13.5104C6.0238 13.1755 6.13364 12.8522 6.32151 12.5742C6.50939 12.2962 6.76841 12.0738 7.07156 11.93C7.1998 11.8691 7.30813 11.7731 7.38397 11.6532C7.45981 11.5332 7.50005 11.3941 7.5 11.2522V7.25C7.50005 7.14037 7.47606 7.03206 7.42972 6.9327C7.38339 6.83334 7.31584 6.74535 7.23182 6.67492C7.1478 6.60449 7.04937 6.55333 6.94345 6.52505C6.83752 6.49678 6.72669 6.49206 6.61875 6.51125C3.27281 7.1075 0.75 10.1656 0.75 13.625C0.75 15.5147 1.50067 17.3269 2.83686 18.6631C4.17306 19.9993 5.98533 20.75 7.875 20.75C9.76467 20.75 11.5769 19.9993 12.9131 18.6631C14.2493 17.3269 15 15.5147 15 13.625V9.90219C16.389 10.6269 17.9333 11.0036 19.5 11C19.6989 11 19.8897 10.921 20.0303 10.7803C20.171 10.6397 20.25 10.4489 20.25 10.25V6.5C20.25 6.30109 20.171 6.11032 20.0303 5.96967C19.8897 5.82902 19.6989 5.75 19.5 5.75ZM18.75 9.46625C17.2844 9.33633 15.8809 8.81325 14.6878 7.95219C14.5757 7.87156 14.4434 7.82347 14.3057 7.81321C14.168 7.80295 14.0301 7.83092 13.9072 7.89404C13.7844 7.95716 13.6814 8.05298 13.6095 8.17093C13.5376 8.28888 13.4997 8.42438 13.5 8.5625V13.625C13.5 15.1168 12.9074 16.5476 11.8525 17.6025C10.7976 18.6574 9.36684 19.25 7.875 19.25C6.38316 19.25 4.95242 18.6574 3.89752 17.6025C2.84263 16.5476 2.25 15.1168 2.25 13.625C2.25 11.1969 3.81 9.01906 6 8.225V10.8191C5.51517 11.143 5.12254 11.587 4.86037 12.1079C4.59821 12.6287 4.47545 13.2086 4.50407 13.7909C4.53268 14.3733 4.7117 14.9384 5.02366 15.431C5.33562 15.9236 5.76989 16.327 6.28414 16.6018C6.79839 16.8767 7.37508 17.0136 7.958 16.9993C8.54091 16.9849 9.11017 16.8198 9.61028 16.52C10.1104 16.2202 10.5243 15.796 10.8117 15.2886C11.099 14.7812 11.2501 14.2081 11.25 13.625V2H13.5469C13.7155 3.32101 14.318 4.54866 15.2597 5.49034C16.2013 6.43203 17.429 7.03446 18.75 7.20312V9.46625Z" fill="#171C17"/>
</svg>
