<svg width="21" height="20" viewBox="0 0 21 20" fill="none" xmlns="http://www.w3.org/2000/svg">
<path d="M17.5508 2.91005C16.6338 1.98416 15.5418 1.25002 14.3383 0.750416C13.1348 0.250812 11.8439 -0.00426317 10.5408 5.38951e-05C5.08078 5.38951e-05 0.630781 4.45005 0.630781 9.91005C0.630781 11.6601 1.09078 13.3601 1.95078 14.8601L0.550781 20.0001L5.80078 18.6201C7.25078 19.4101 8.88078 19.8301 10.5408 19.8301C16.0008 19.8301 20.4508 15.3801 20.4508 9.92005C20.4508 7.27005 19.4208 4.78005 17.5508 2.91005ZM10.5408 18.1501C9.06078 18.1501 7.61078 17.7501 6.34078 17.0001L6.04078 16.8201L2.92078 17.6401L3.75078 14.6001L3.55078 14.2901C2.72833 12.9771 2.29171 11.4593 2.29078 9.91005C2.29078 5.37005 5.99078 1.67005 10.5308 1.67005C12.7308 1.67005 14.8008 2.53005 16.3508 4.09005C17.1184 4.85392 17.7267 5.7626 18.1404 6.76338C18.5541 7.76417 18.765 8.83714 18.7608 9.92005C18.7808 14.4601 15.0808 18.1501 10.5408 18.1501ZM15.0608 11.9901C14.8108 11.8701 13.5908 11.2701 13.3708 11.1801C13.1408 11.1001 12.9808 11.0601 12.8108 11.3001C12.6408 11.5501 12.1708 12.1101 12.0308 12.2701C11.8908 12.4401 11.7408 12.4601 11.4908 12.3301C11.2408 12.2101 10.4408 11.9401 9.50078 11.1001C8.76078 10.4401 8.27078 9.63005 8.12078 9.38005C7.98078 9.13005 8.10078 9.00005 8.23078 8.87005C8.34078 8.76005 8.48078 8.58005 8.60078 8.44005C8.72078 8.30005 8.77078 8.19005 8.85078 8.03005C8.93078 7.86005 8.89078 7.72005 8.83078 7.60005C8.77078 7.48005 8.27078 6.26005 8.07078 5.76005C7.87078 5.28005 7.66078 5.34005 7.51078 5.33005H7.03078C6.86078 5.33005 6.60078 5.39005 6.37078 5.64005C6.15078 5.89005 5.51078 6.49005 5.51078 7.71005C5.51078 8.93005 6.40078 10.1101 6.52078 10.2701C6.64078 10.4401 8.27078 12.9401 10.7508 14.0101C11.3408 14.2701 11.8008 14.4201 12.1608 14.5301C12.7508 14.7201 13.2908 14.6901 13.7208 14.6301C14.2008 14.5601 15.1908 14.0301 15.3908 13.4501C15.6008 12.8701 15.6008 12.3801 15.5308 12.2701C15.4608 12.1601 15.3108 12.1101 15.0608 11.9901Z" fill="#171C17"/>
</svg>
