<svg xmlns="http://www.w3.org/2000/svg" viewBox="0 0 195.88 86.17"><defs><style>.cls-1{fill:#131d45;}.cls-2{fill:#2bbbb6;}.cls-3{fill:#141f45;}.cls-4{fill:#111c44;}.cls-5{fill:#3bbba9;}.cls-6{fill:#3abba4;}.cls-7{fill:#37b8ac;}.cls-8{fill:#48bb98;}.cls-9{fill:#28b8bb;}.cls-10{fill:#24bac0;}.cls-11{fill:#e4851a;}.cls-12{fill:#2ebbae;}.cls-13{fill:#1bb9cb;}</style></defs><g id="Layer_2" data-name="Layer 2"><g id="Layer_1-2" data-name="Layer 1"><path class="cls-1" d="M165.29,72.06c1.59,2.13,3,4.36,4.71,6.3a3.82,3.82,0,0,0,2.48,1.19c.4,0,.77.13.71.69s-.47.34-.74.34c-1.2,0-2.4,0-3.59,0a1.28,1.28,0,0,1-1.19-.64c-1.65-2.32-3.34-4.61-5-6.9-.18-.25-.31-.56-.68-.64-1-.2-1.27,0-1.27,1,0,1.46,0,2.92,0,4.37s.34,1.74,1.78,1.84c.35,0,.73-.07.75.48s-.43.46-.75.46h-6.6c-.35,0-.74.09-.73-.49s.34-.44.67-.46c1.61-.12,1.87-.31,1.88-1.93,0-4.14,0-8.28,0-12.43,0-1.34-.36-1.61-1.7-1.66-.35,0-.84.17-.81-.5s.45-.45.78-.45c2.78,0,5.57-.11,8.35.11a6.7,6.7,0,0,1,2.26.51,4.42,4.42,0,0,1,.39,8.06C166.46,71.62,165.91,71.8,165.29,72.06Zm-3-7.93a1.58,1.58,0,0,1-.37,0c-.94-.07-1.31.28-1.22,1.29s0,2.31,0,3.48c0,2.5.28,2.7,2.71,1.95a3.45,3.45,0,0,0,2.59-4C165.72,65.16,164.33,64.1,162.26,64.13Z"/><path class="cls-2" d="M85.85,40.08A17.26,17.26,0,0,1,84,36.93a1,1,0,0,0-1-.64q-5.19.08-10.38.12c-1.36,0-2.72.09-4.07,0-2-.11-2-.15-1.85,1.8,0,.19,0,.39,0,.58,0,.4.16.85-.27,1.3a9.59,9.59,0,0,0-.67-2.65,6.11,6.11,0,0,1-.61-3.11c0-.32.16-.75-.38-.85.13-1.25.58-1.83,1.55-1.94h0a3.67,3.67,0,0,1-.3,1.76.85.85,0,0,0,.63,1.33A11.54,11.54,0,0,0,69.8,35c4-.2,8,.45,11.92-.38a21.39,21.39,0,0,0,2.91.08,3.79,3.79,0,0,1,2.77.33c.15.1.44.19.53.12A2,2,0,0,1,90.07,35h0c0,.53.47.35.77.38h0c0,.64.27.75.78.38.61.5,1.47.65,1.94,1.36.1.88.83.83,1.41.89.16,0,.85-.31.14-.69a1.8,1.8,0,0,1,.72-1.2,1.21,1.21,0,0,0,.46-1.1l0,0h.36a.36.36,0,0,0,.39-.38l.57-.4a.39.39,0,0,0,.2-.39.36.36,0,0,1,.39-.39c.51,0,.91,0,.64.74a.57.57,0,0,0,.63.76c2-.43,3.9.32,5.85,0a12.88,12.88,0,0,1,2.4-.19c.66,0,1,.26,1,1a5.75,5.75,0,0,1,.18,1.94c-.35.18,0,.68-.44.91a.74.74,0,0,0-.92-.52c-.18-.33-.37-.58-.82-.41s-.72.29-.64.58c.15.54-.25.89-.29,1.35-.21.13-.19.35-.21.56l0,0c-.32.2-.73.24-.8.79a1.38,1.38,0,0,1-.71,1c0-.7-.25-1.53.68-1.92.19-.08.49,0,.41-.39s-.32-.15-.47-.23c-.87-.45-1.76,0-2.66-.06a15,15,0,0,0-5.66.15.82.82,0,0,1-1-.17A1.59,1.59,0,0,0,93.83,39c-1.28.22-2.55.74-3.89.33a.44.44,0,0,0-.57.25.71.71,0,0,0,.08.81,5.33,5.33,0,0,1,.49.46.68.68,0,0,1,0,.81c-.18.24-.41.06-.62,0a4.24,4.24,0,0,1-1.74-1.12,4,4,0,0,1-.8-1.76l-.24.06v1.62C86.31,40.39,86.33,39.8,85.85,40.08Z"/><path class="cls-3" d="M119.23,71.66c0-2.1,0-4.21,0-6.31,0-1.42-.3-1.67-1.72-1.73-.34,0-.84.18-.8-.5s.45-.45.78-.45H130c.52,0,.74.13.75.7,0,1,.11,1.94.15,2.91,0,.28.18.67-.37.71s-.62-.18-.68-.6a5.79,5.79,0,0,0-.25-.93A1.74,1.74,0,0,0,128,64.16c-1.74,0-3.49,0-5.24,0-.45,0-.54.2-.53.59,0,1.74,0,3.49,0,5.24,0,.39.1.61.53.6,1.26,0,2.53,0,3.78-.07s1.6-.52,1.78-1.76c.06-.4,0-.79.62-.73s.39.51.39.8c0,1.68,0,3.37,0,5,0,.29.13.66-.4.7s-.55-.24-.62-.63c-.3-1.71-.61-2-2.38-2-1,0-2.07,0-3.1,0-.48,0-.62.14-.61.61,0,1.87,0,3.75,0,5.63,0,.74.34,1,1.08,1a24.4,24.4,0,0,1,3.2,0,4.18,4.18,0,0,0,4.38-2.53,3.4,3.4,0,0,1,.45-.74.7.7,0,0,1,.81-.11c.26.13.07.4,0,.61-.42,1.18-.86,2.37-1.24,3.57a.78.78,0,0,1-.88.65c-4.21,0-8.41,0-12.62,0-.3,0-.67.13-.68-.41s.29-.52.68-.55c1.56-.09,1.84-.39,1.85-1.95C119.24,75.67,119.23,73.67,119.23,71.66Z"/><path class="cls-4" d="M101.54,71.66c0-2.1,0-4.2,0-6.31,0-1.36-.38-1.68-1.76-1.73-.31,0-.73.2-.75-.43s.43-.52.78-.52c2.68,0,5.37-.16,8,.14a5.19,5.19,0,0,1,4.7,3.22,4.85,4.85,0,0,1-4.34,6.67,10.07,10.07,0,0,1-3-.13c-.52-.13-.76,0-.74.59,0,1.49,0,3,0,4.46s.35,1.9,1.94,2c.35,0,.61,0,.61.51s-.34.44-.65.44h-6.7c-.31,0-.64.1-.67-.43s.32-.49.68-.52c1.55-.1,1.84-.4,1.84-2C101.55,75.67,101.54,73.67,101.54,71.66Zm2.95-3.89v2.91c0,.31,0,.53.4.65a3.49,3.49,0,0,0,3.87-1,4.47,4.47,0,0,0,0-4.76A3.64,3.64,0,0,0,105,64.26c-.42.11-.49.34-.48.7Z"/><path class="cls-5" d="M39.39,32.92q0-7.43-.11-14.84c0-.49.17-.73.66-.74h.19C42,17.21,42,17.21,42,19c0,3,0,6.07,0,9.11,0,.3,0,.63.33.75s.44-.2.61-.37c3.11-3,6.79-3.39,10.71-2.23a5.47,5.47,0,0,1,4,5.42c.21,4.78.11,9.58.16,14.37,0,.63-.25.86-.85.88-1.77.07-1.78.08-1.79-1.7q0-5.77,0-11.55a8.89,8.89,0,0,0-.5-3.13,4.27,4.27,0,0,0-4.09-2.75,8.87,8.87,0,0,0-4.37.53,7.7,7.7,0,0,0-3.9,4.1,3.44,3.44,0,0,0-.11,1.25c0,4.07,0,8.15,0,12.23,0,.17.13.38-.09.52q0-6.3,0-12.59c0-.18.07-.53-.08-.51-.88.12-.37-.53-.47-.81a2,2,0,0,1,0-.77.6.6,0,0,0-.41-.68.37.37,0,0,0-.26,0c-.2.27-.1.54,0,.83s.51.54.28.74c-.53.45-.31,1-.36,1.52,0,.29,0,.61-.39.66,0-1.34,0-2.68,0-4,0-.32.15-.74-.38-.83a1.93,1.93,0,0,1-.2-1c0-1.44,0-2.87,0-4.31v-1.8C39.57,26.22,39.27,29.57,39.39,32.92Zm16.33.51c-.14.26-.2.31-.2.37,0,3.88,0,7.76,0,11.65,0,1.31.93.69,1.55.68.37,0,.38,0,.38-.69,0-3.52.15-7-.22-10.56a9.75,9.75,0,0,0-.39-3.21c-.14,1.62-.71,3.17-.72,4.81C55.71,35.55,56.07,34.54,55.72,33.43Zm-16-15.19-.1-.08v3.45h.1Z"/><path class="cls-6" d="M97.64,34.27l-.57.4H96.7l0,0a39.56,39.56,0,0,1,3.54-4.31c2.14-2.61,4.37-5.14,6.58-7.7a22.59,22.59,0,0,1,2.35-2.54,2.32,2.32,0,0,0,1.62-1.44,1.55,1.55,0,0,1,1.75-.79.83.83,0,0,0,1-.52c.42-.77,1.4-1.1,1.89-.75a2.1,2.1,0,0,1,.73,2.35,2.73,2.73,0,0,0,0,.76l-.06.18A2.3,2.3,0,0,0,114.93,22a18.88,18.88,0,0,1-1.37,2.87c-.14.26-.38.53-.19.79s.53.1.8,0c3.36-.81,6.53-.56,9.38,1.6a3.2,3.2,0,0,1,1.08,1.2v.71c-.55-.21-.53-.86-1-1.2a9.06,9.06,0,0,0-3.22-1.66c-.6-.14-1.3,0-1.83-.48a.59.59,0,0,0-.72-.09c-.37.28.3.42.17.71a9.6,9.6,0,0,0-3,.26c1-.29,2,.18,3-.26.79.06,1.49.58,2.32.43.09,0,.23.11.32.19.74.7,1.5,1.38,2.21,2.11a2.65,2.65,0,0,1,.93,2.6,6.88,6.88,0,0,0-7-4.71,8.28,8.28,0,0,0-4.92,2c-.13-.67,0-1.22.73-1.45.2-.06.42-.12.33-.36a1.74,1.74,0,0,0-.4-.63c-.22-.22-.34.06-.46.17-.31.32-.59.68-.92,1-.59.55-1.19.52-1.6-.16-.22-.37-.45-.48-.77-.37a7.43,7.43,0,0,1-2.2.16c-.32,0-.67-.06-.89.26-.33.52-.84.5-1.37.53a3.18,3.18,0,0,0-3,1.62c-.1.19-.32.31-.47.48l-2.59,3.13a.36.36,0,0,0-.39.39A.42.42,0,0,0,97.64,34.27Zm7.93-8c0-.21-.14-.28-.32-.3s-.49.06-.52.31.23.25.41.26S105.53,26.47,105.57,26.23Z"/><path class="cls-4" d="M182.56,76.28l-6,3.86c.28-.81,9-17,9.64-17.88L195.88,80l-.11.13-5.47-3.55c.37-.4,0-.73-.14-1-.79-1.36-1.61-2.7-2.42-4a12,12,0,0,0-1.44-2.29Z"/><path class="cls-7" d="M1.51,44.35C-.26,42.91-.42,39.08.75,37.29c1.57-2.37,4-3,6.47-3.26a25.48,25.48,0,0,1,7.24.25c1.22.24,1.62-.19,1.39-1.42a5.61,5.61,0,0,0-4.25-4.61,11.52,11.52,0,0,0-7.71.8c-1,.5-1.63.15-1.9-1a.5.5,0,0,1,.34-.68c3.77-1.55,7.64-2.29,11.54-.69a6.71,6.71,0,0,1,4.23,5.88c0,4.49,0,9,0,13.48,0,.57,0,1-.77.86s-1.65.54-1.57-.85a3.88,3.88,0,0,0,0-.59c0-.31-.06-.68-.42-.8s-.51.18-.73.37a7.84,7.84,0,0,1-4.58,2,.35.35,0,0,1,.3-.33,8.94,8.94,0,0,0,4.07-2.05c.44-.42.57-1.18,1.33-1.33.23.54,0,1.1.15,1.62.31,0,0-.48.35-.54,0,.51,0,1,0,1.48a.9.9,0,0,0,.65.77c.34.13.52-.18.73-.36.65-.55.16-1.21.16-1.82a56.6,56.6,0,0,0-.38-9.11c0-.21.1-.52-.19-.59a.47.47,0,0,0-.53.45c-.06,1.16-.55.82-1.16.17-.05.75-.08,1.31-.11,1.88a4.66,4.66,0,0,0-3.11-1.77,23.47,23.47,0,0,0-4.74.06,7.62,7.62,0,0,0-3.7,1.29A4.44,4.44,0,0,0,3,42.79c-.23,0-.47.09-.61-.17-.7-1.31-.74-4,.35-5.29a1.16,1.16,0,0,0,.22-1.41A4.1,4.1,0,0,0,.77,39.18c-.16,1.48-.34,3,.61,4.42C1.51,43.79,1.47,44.1,1.51,44.35Z"/><path class="cls-3" d="M68.2,78.15c-.37.38-.23.65-.27.89s.21.89-.15,1.09a2.63,2.63,0,0,1-1.71.05c-.45-.08-.24-.53-.25-.82,0-4.53,0-9.06,0-13.6a10.12,10.12,0,0,0,0-1.35c-.15-1,.23-1.18,1.16-1.17s1,.28,1,1.05c0,1.77,0,3.54,0,5.24.17.18.25.07.3,0a5.48,5.48,0,0,1,6-1.84,5.6,5.6,0,0,1,4.14,4.56,7,7,0,0,1-2.49,7.19,5.82,5.82,0,0,1-7.58-.93A1.15,1.15,0,0,1,68.2,78.15Zm-.27-4.26c0,2.72,1.75,4.67,4.23,4.69s4.23-1.9,4.26-4.65a4.31,4.31,0,0,0-4.26-4.65A4.36,4.36,0,0,0,67.93,73.89Z"/><path class="cls-1" d="M143.88,62.67c2.17,0,4.34,0,6.5,0,.62,0,.87.16.87.81,0,1.1.08,2.2.14,3.29,0,.26,0,.48-.31.48s-.61.12-.67-.33c0-.19-.07-.38-.11-.57A2.37,2.37,0,0,0,148,64.25c-.74,0-1.49,0-2.23,0-.46,0-.52.21-.52.59,0,4.43,0,8.87,0,13.3,0,1.14.38,1.44,1.66,1.54.38,0,.83-.09.79.54s-.5.39-.81.4q-3.15,0-6.31,0c-.33,0-.81.22-.82-.47s.42-.43.74-.46c1.43-.13,1.73-.37,1.74-1.77,0-4.34,0-8.68,0-13,0-.54-.21-.67-.69-.65s-1.23,0-1.84,0a2.31,2.31,0,0,0-2.5,2.19,5.23,5.23,0,0,1-.12.57c-.09.31-.35.21-.57.23s-.36-.17-.34-.43c.06-1.2.14-2.39.17-3.59,0-.6.4-.55.8-.55Z"/><path class="cls-5" d="M93.57,37.18c-.47-.71-1.33-.86-1.94-1.36a1,1,0,0,0-.78-.38h0c-.07-.51-.47-.35-.77-.38h0c-.31-.66-1-.75-1.55-1.16-.36-.76-1-.23-1.55-.39h0c0-.27.09-.57-.19-.77a16.65,16.65,0,0,0-1.94-1.17h-.2c0-.35-.45-.3-.51-.44-.48-1.08-.88-.5-1.31,0a.43.43,0,0,1-.51.17.58.58,0,0,1-.28-.56c.72-.92-.37-1.23-.63-1.77-.14-.29-.48-.88-1-.72-.25.08-.82,0-.79.52a1.13,1.13,0,0,0,.7,1c1.31.36.55,1,.32,1.65a1.74,1.74,0,0,1-.29-.38,6.64,6.64,0,0,0-6.59-3.66,7.62,7.62,0,0,0-7,6.24c-.14.62,0,.91.67.9q6.5-.09,13-.13c.63,0,.75-.28.7-.84s-.49-1.27-.41-2c.36.57.83.36,1.45.13a2.15,2.15,0,0,0-.37,2.52c.05.12-.06.3-.1.46-4,.83-8,.18-11.92.38a11.54,11.54,0,0,1-3.09-.39.85.85,0,0,1-.63-1.33,3.67,3.67,0,0,0,.3-1.76c.51-.1.81-.37.73-.92a.28.28,0,0,0-.37-.22c-.62.15-.27.68-.37,1a.33.33,0,0,0,0,.1c-1,.11-1.42.69-1.55,1.94h0c-.16,0-.32,0-.35.24s.15.31.35.34v.58a1.21,1.21,0,0,0-.39,1l0,3.44v.4a.2.2,0,0,0,0,.13h0a3.53,3.53,0,0,1-.57-2.37,13.52,13.52,0,0,1,1-6A10.41,10.41,0,0,1,76.1,25.62a9.06,9.06,0,0,1,5.74,3.08,14.48,14.48,0,0,0,3.56,2.48C88.16,33,91,34.73,93.68,36.57A.92.92,0,0,0,95,36.39a6.57,6.57,0,0,1,1.27-1.31,1.21,1.21,0,0,1-.46,1.1,1.8,1.8,0,0,0-.72,1.2A3.88,3.88,0,0,1,93.57,37.18Z"/><path class="cls-4" d="M81.25,86.12c.72-1.79,1.36-3.47,2.08-5.12a2.11,2.11,0,0,0,0-1.82c-1.58-3.77-3.1-7.57-4.7-11.5.72,0,1.35,0,2,0s.52.44.63.73c1.14,2.88,2.25,5.77,3.37,8.66.07.17.15.34.29.68,1-2.52,1.88-4.88,2.78-7.24.15-.39.3-.79.44-1.18.68-1.82.68-1.82,2.76-1.57-.81,2-1.61,4-2.42,6-1.52,3.7-3.1,7.38-4.54,11.11-.38,1-.83,1.43-1.86,1.25A5.31,5.31,0,0,0,81.25,86.12Z"/><path class="cls-8" d="M116.11,19.72a2.73,2.73,0,0,1,0-.76,2.1,2.1,0,0,0-.73-2.35c-.49-.35-1.47,0-1.89.75a.83.83,0,0,1-1,.52,1.55,1.55,0,0,0-1.75.79,2.32,2.32,0,0,1-1.62,1.44,59.31,59.31,0,0,1,4-4.92c3-3.51,6-6.95,8.94-10.52a23.69,23.69,0,0,0,2.45-3.17A6.1,6.1,0,0,1,126.21,0a11.45,11.45,0,0,1-1.14,2.63c-.78,1.27-1.44,2.64-2.11,4-1.84,3.73-3.79,7.4-5.7,11.09a3.09,3.09,0,0,1-.36.45c-.1,0-.16.06-.08.17A3.29,3.29,0,0,1,116.11,19.72Z"/><path class="cls-5" d="M20.94,41.54a3.75,3.75,0,0,1-1-2.22A10.65,10.65,0,0,1,27.82,26a9.64,9.64,0,0,1,9.78,3.29c.22.26.59.59.28.92s-.77,1.07-1.43,1.25c-.27.07-.44-.26-.56-.47-1.64-2.75-6.33-3.78-9.28-2.33a9.13,9.13,0,0,0-4.48,9.22,12.06,12.06,0,0,0,2.54,5c-.93.07-.89-.88-1.36-1.29a3.62,3.62,0,0,1-1.23-2.81c0-.12.18-.41-.22-.35s-.57-.31-.54-.68c.08-.85-.21-1.71.31-2.54.2-.3.06-.82.06-1.23,0-.22-.08-.38-.32-.41s-.39.13-.45.38a4,4,0,0,1-.36,1,4.77,4.77,0,0,0-.2,3.89A7.34,7.34,0,0,1,20.94,41.54Z"/><path class="cls-9" d="M20.94,41.54a7.34,7.34,0,0,0-.58-2.76,4.77,4.77,0,0,1,.2-3.89,4,4,0,0,0,.36-1c.06-.25.16-.41.45-.38s.32.19.32.41c0,.41.14.93-.06,1.23-.52.83-.23,1.69-.31,2.54,0,.37,0,.76.54.68s.21.23.22.35a3.62,3.62,0,0,0,1.23,2.81c.47.41.43,1.36,1.36,1.29a8.38,8.38,0,0,0,4.62,2,7.28,7.28,0,0,0,6.78-3.32c.43-.62.64-.49,1.1-.1,1.36,1.16,1.4,1.18.15,2.47A9.9,9.9,0,0,1,28.55,47a9.58,9.58,0,0,1-6.84-4.22c-.06-.49.24-1.2-.71-1.15C20.94,41.62,20.93,41.59,20.94,41.54Z"/><path class="cls-10" d="M1.51,44.35c0-.25,0-.56-.13-.75C.43,42.23.61,40.66.77,39.18a4.1,4.1,0,0,1,2.14-3.26,1.16,1.16,0,0,1-.22,1.41c-1.09,1.28-1,4-.35,5.29.14.26.38.18.61.17l.11.19c-.07.44.18.7.5,1A7.06,7.06,0,0,0,8.9,45.29c.48,0,1.19.16,1.53-.49a12.85,12.85,0,0,0,3.62-2A1.62,1.62,0,0,0,15.46,41a.06.06,0,0,1,0-.09.86.86,0,0,0,1.07-.72c.09-1.15,0-2.31,0-3.68-.43.53-.51,1.05-1.05,1.1l-.1-.31.11-1.88c.61.65,1.1,1,1.16-.17a.47.47,0,0,1,.53-.45c.29.07.15.38.19.59a56.6,56.6,0,0,1,.38,9.11c0,.61.49,1.27-.16,1.82-.21.18-.39.49-.73.36a.9.9,0,0,1-.65-.77c0-.48,0-1,0-1.48-.37.06,0,.49-.35.54-.13-.52.08-1.08-.15-1.62-.76.15-.89.91-1.33,1.33a8.94,8.94,0,0,1-4.07,2.05.35.35,0,0,0-.3.33l-.64,0a.88.88,0,0,0-.77-.4c-1.25,0-2.58.36-3.73-.4a2.91,2.91,0,0,0-1.53-.39l-.18-.06c-.16-1-.93-1.22-1.7-1.47Z"/><path class="cls-10" d="M64.82,34.66V33.5h0c.54.1.38.53.38.85a6.11,6.11,0,0,0,.61,3.11,9.59,9.59,0,0,1,.67,2.65c.43-.45.24-.9.27-1.3a10.62,10.62,0,0,0,2,3.58,7.69,7.69,0,0,0,5.15,2.51A10.61,10.61,0,0,0,80,43.69c.1.05.15,0,.18-.09a4.88,4.88,0,0,1,1.19-1.12c.75-.65,1.13.27,1.6.54s.05.66-.22.93a8.86,8.86,0,0,1-4.3,2.47c-2.91.62-5.81.92-8.58-.57.08-.43-.26-.53-.53-.7a14.84,14.84,0,0,1-3-2.33.42.42,0,0,0-.19-.4c-.07-.45-.22-.82-.78-.78,0-.07-.08-.14-.15,0h0a3.8,3.8,0,0,1-.76-2h0l.06,0-.07-.1c0-.13,0-.27,0-.4.47-.09.35-.47.36-.77A30.45,30.45,0,0,1,64.82,34.66Zm.63,3.48c-.43.55,0,1.12-.39,1.51-.18.2-.29.42,0,.5a.38.38,0,0,0,.47-.37A4,4,0,0,0,65.45,38.14Zm9.21,7.23c.44.14.87.3,1.29-.09A1.38,1.38,0,0,0,74.66,45.37ZM67.58,42c0,.46.17.68.51.76.15,0,.21-.13.21-.26C68.32,42,68,42,67.58,42Zm4,3.11c.2.09.38.11.51-.08,0,0,0-.15-.06-.16A.38.38,0,0,0,71.59,45.08Zm-4.3-3.92c-.05.1-.12.17-.11.22s.1.13.15.19.14-.12.14-.17S67.37,41.26,67.29,41.16ZM67,40.8s.07-.12.06-.16-.1,0-.16-.07-.07.12-.06.16S67,40.78,67,40.8ZM77.71,45c.06,0,.12.07.16.06s0-.1.08-.16-.12-.07-.16-.06S77.74,45,77.71,45Zm2.79-1.34-.07.17s.12.07.16.06,0-.1.07-.16Z"/><path class="cls-9" d="M107.55,38.16a.74.74,0,0,1,.92.52c.42-.23.09-.73.44-.91a.39.39,0,0,1,.2.38l.17.2c.08.47.14.95.23,1.42a4.47,4.47,0,0,0,2.63,3.07,9.89,9.89,0,0,0,6.32,1.88,8.41,8.41,0,0,0,5.65-2.35c.78-.79,1.19,0,1.67.39.64.5,0,.81-.27,1.06a10.41,10.41,0,0,1-8.11,2.83,8.21,8.21,0,0,1-4-.76c-.58-.93-1.7-1.08-2.51-1.75A8.08,8.08,0,0,1,107.55,38.16Z"/><path class="cls-5" d="M60.17,46.84c-.31-.23-.26-.55-.26-.88q0-9.65,0-19.29c0-.38-.22-.91.34-1.09a2.64,2.64,0,0,1,1.71,0c.36.13.27.56.25.87-.11,2.71.08,5.42.1,8.13,0,3.58,0,7.17.07,10.75,0,1.88.23,1.58-1.67,1.61a1.93,1.93,0,0,1-.47-.08l.34,0c.12,0,.24-.1.36-.13,1.2-.22,1.27-.34,1.07-1.5a3.77,3.77,0,0,1,0-1.25c.34-2,0-4.06.18-6.08.12-1.44-1-2.18-1.56-3.24-.43-.45,0-1.08-.38-1.68Zm.15-17.77h-.1v3.22h.1Z"/><path class="cls-11" d="M182.56,76.28l3.74-7.13a12,12,0,0,1,1.44,2.29c.81,1.35,1.63,2.69,2.42,4,.17.31.51.64.14,1L184,76.47A3,3,0,0,1,182.56,76.28Z"/><path class="cls-7" d="M109.11,38.15a.39.39,0,0,0-.2-.38,5.75,5.75,0,0,0-.18-1.94c.37,0,.71.31,1.12.09a4.52,4.52,0,0,1,2.73-.53,33.64,33.64,0,0,0,4,.07c2.87,0,5.75.1,8.62.18.68,0,1-.2,1-.93.06-.93-.38-1.84,0-2.76,0-.27-.11-.39-.36-.4a2.17,2.17,0,0,1-.21-1.15l-.21-.76h0a5,5,0,0,1,1.06,2.71,18.22,18.22,0,0,1,.25,2.87c0,.83-.29.89-.93.89l-12.6,0c-.91,0-1.82,0-2.72,0-.6,0-.75.25-.78.81a6.89,6.89,0,0,0,1.89,5.11,8.94,8.94,0,0,1,.58.76,4.47,4.47,0,0,1-2.63-3.07c-.09-.47-.15-1-.23-1.42Z"/><path class="cls-9" d="M85.85,40.08c.48-.28.46.31.72.41v.19c0,.28,0,.56.38.58,0,.07,0,.13,0,.19,0,.26,0,.54.33.58.54.06.41.46.45.79,0,.1.08.27.15.29s.2-.15.23-.29c.32,0,.43.2.32.5s-.2.47.07.66c0,.31-.14.72.39.78.62-.42.88-.25.77.49a2.8,2.8,0,0,0,0,.29c-.14,0-.33,0-.29.23s.19.1.29.15h0c.29.59.21,1.45,1.16,1.55,0,.37-.06.77.38,1,.32,1,1.08,1.75,1.42,2.68s.48,1.51,1.73,1c-.34.51-.53.87-.41,1.25A16.69,16.69,0,0,0,96,57c.29.44.57.46.73-.18a3,3,0,0,1,1.14-1.73l.16.1A23.37,23.37,0,0,1,96.62,58c-.2.47-.44.5-.72,0-.71-1.26-1.44-2.5-2.15-3.75Q90.17,48,86.58,41.64A5,5,0,0,1,85.85,40.08Z"/><path class="cls-12" d="M39.39,32.92c-.12-3.35.18-6.7.38-10.06v1.8c0,1.44,0,2.87,0,4.31a1.93,1.93,0,0,0,.2,1c-.44,1.24,0,2.48,0,3.73,0,3.68,0,7.37,0,11.05a5.26,5.26,0,0,1-.19,1.53c-.11.07-.21.17-.1.28s.22,0,.29-.08h1.55v0c-.46.72-1.16.23-1.75.34-.52-.21-.24-.66-.27-1a8.83,8.83,0,0,0-.11-1.78v-.57a7.77,7.77,0,0,0,0-2.5v-.66A73.65,73.65,0,0,0,39.39,32.92Z"/><path class="cls-12" d="M40.35,34.85c.42-.05.36-.37.39-.66,0-.51-.17-1.07.36-1.52.23-.2-.21-.47-.28-.74s-.17-.56,0-.83a.37.37,0,0,1,.26,0,.6.6,0,0,1,.41.68,2,2,0,0,0,0,.77c.1.28-.41.93.47.81.15,0,.08.33.08.51q0,6.28,0,12.59c0,.14,0,.27-.18.33,0-.21-.18-.26-.37-.25V34.79l-.23,0-.79,1.67A4.44,4.44,0,0,1,40.35,34.85Z"/><path class="cls-6" d="M59.84,19.15v-.51c0-1.28.67-1.72,1.94-1.32.47.14.36.51.32.78-.13.81.44,1.8-.32,2.4a2,2,0,0,1-1.67,0C59.49,20.25,60.07,19.51,59.84,19.15Z"/><path class="cls-7" d="M107.55,38.16a8.08,8.08,0,0,0,3.32,6c.81.67,1.93.82,2.51,1.75-.77-.36-1.74-.31-2.26-1.16l0-.06,0,0,0,0A3.79,3.79,0,0,1,109,43a7.27,7.27,0,0,1-1.79-3.65.51.51,0,0,0-.38-.5c-.32-.06-.46.15-.55.41a.6.6,0,0,1-.44.47h0c0-.46.44-.81.29-1.35-.08-.29.33-.47.64-.58S107.37,37.83,107.55,38.16Z"/><path class="cls-5" d="M104.06,42a1.38,1.38,0,0,0,.71-1c.07-.55.48-.59.8-.79a11.61,11.61,0,0,1-1.36,3.05c-1.22,2.51-2.56,5-3.86,7.45,0,.08-.15.11-.23.17h0c0-.17-.35-.23-.1-.47a6.27,6.27,0,0,0,1.12-2.43l.2-.58a.39.39,0,0,1,.2-.38c.83-.82,1.07-2,1.69-2.91A3.26,3.26,0,0,0,104.06,42Z"/><path class="cls-7" d="M65.4,41.64c.56,0,.71.33.78.78-.29.31-.06.36.19.4a14.84,14.84,0,0,0,3,2.33c.27.17.61.27.53.7a7.4,7.4,0,0,1-4.63-4.22h0A.26.26,0,0,0,65.4,41.64Z"/><path class="cls-7" d="M3.4,45.89a2.91,2.91,0,0,1,1.53.39c1.15.76,2.48.35,3.73.4a.88.88,0,0,1,.77.4,5.85,5.85,0,0,1-2.6,0c.23,0,.49.11.73-.13A2.48,2.48,0,0,0,6.18,47,4.85,4.85,0,0,1,3.4,45.89Z"/><path class="cls-2" d="M98,55.15l-.16-.1a5.91,5.91,0,0,1,1.72-3.32h0A9.83,9.83,0,0,1,98,55.15Z"/><path class="cls-7" d="M1.52,44.36c.77.25,1.54.5,1.7,1.47A3.15,3.15,0,0,1,1.52,44.36Z"/><path class="cls-8" d="M114.93,22a2.3,2.3,0,0,1,1.12-2.12A6.26,6.26,0,0,1,114.93,22Z"/><path class="cls-5" d="M21,41.63c.95-.05.65.66.71,1.15C21.26,42.53,21.16,42.06,21,41.63Z"/><path class="cls-7" d="M124.64,29.22v-.71a1.54,1.54,0,0,1,.76,1.13h0l-.36,0h0a.35.35,0,0,0-.38-.39Z"/><path class="cls-5" d="M41.52,46.52c.19,0,.34,0,.37.25a3.09,3.09,0,0,1-2.12.09C40.36,46.75,41.06,47.24,41.52,46.52Z"/><path class="cls-5" d="M39.39,40.35V41a.47.47,0,0,1,0,.17c0,.09,0,.08,0,0,0-.28,0-.56,0-.85v-.09Z"/><path class="cls-5" d="M39.39,43.51v.57l0,.18c0,.11,0,.12,0,0a8.42,8.42,0,0,1,0-.87s0-.06,0-.09Z"/><path class="cls-5" d="M100.12,51a.74.74,0,0,1-.54.78h0c0-.37.31-.56.56-.77Z"/><path class="cls-10" d="M6.18,47a2.48,2.48,0,0,1,1.38-.07c-.24.24-.5.1-.73.13Z"/><path class="cls-5" d="M105.8,39.68h0a.44.44,0,0,1-.24.55C105.61,40,105.59,39.81,105.8,39.68Z"/><path class="cls-6" d="M96.68,35.05h-.36a.42.42,0,0,1,.35-.4l0,0C96.69,34.81,96.68,34.93,96.68,35.05Z"/><path class="cls-2" d="M80.17,43.6c0,.09-.08.14-.18.09Z"/><path class="cls-6" d="M116.82,18.33c-.08-.11,0-.15.08-.17Z"/><path class="cls-12" d="M125.6,30.4a2.17,2.17,0,0,0,.21,1.15.36.36,0,0,0,.36.4c-.33.92.11,1.83,0,2.76,0,.73-.32.95-1,.93-2.87-.08-5.75-.2-8.62-.18a33.64,33.64,0,0,1-4-.07,4.52,4.52,0,0,0-2.73.53c-.41.22-.75-.06-1.12-.09.07-.72-.32-1-1-1a12.88,12.88,0,0,0-2.4.19c-1.95.27-3.89-.48-5.85,0a.57.57,0,0,1-.63-.76c.27-.74-.13-.76-.64-.74l2.59-3.13c.15-.17.37-.29.47-.48a3.18,3.18,0,0,1,3-1.62c.53,0,1,0,1.37-.53.22-.32.57-.24.89-.26a7.43,7.43,0,0,0,2.2-.16c.32-.11.55,0,.77.37.41.68,1,.71,1.6.16.33-.31.61-.67.92-1,.12-.11.24-.39.46-.17a1.74,1.74,0,0,1,.4.63c.09.24-.13.3-.33.36-.74.23-.86.78-.73,1.45l-.13.14a.83.83,0,0,0-.84.3,4.28,4.28,0,0,0-1.38,2.88c0,.47-.52,1,0,1.44.14.58.62.37,1,.37,3.75,0,7.5,0,11.26,0,2.44,0,2.44,0,2.09-2.4a2.65,2.65,0,0,0-.93-2.6c-.71-.73-1.47-1.41-2.21-2.11-.09-.08-.23-.2-.32-.19-.83.15-1.53-.37-2.32-.43h0c.13-.29-.54-.43-.17-.71a.59.59,0,0,1,.72.09c.53.45,1.23.34,1.83.48A9.06,9.06,0,0,1,123.64,28c.47.34.45,1,1,1.2h0a.35.35,0,0,0,.38.39h0C125,30,125,30.43,125.6,30.4Z"/><path class="cls-10" d="M104.06,42a3.26,3.26,0,0,1-.83,2.15c-.62.94-.86,2.09-1.69,2.91-.18-.37.39-.86-.1-1.14a1.1,1.1,0,0,0-1.66,1c0,.26.13.58-.22.81a.62.62,0,0,1-.16-.61c.14-1-.28-1.3-1.26-1.25-1.61.07-3.23,0-4.84,0a1,1,0,0,0-1.1.55c-.43.74-1.16.76-1.47,0s-.61-.53-1-.54h0v-.38a2.8,2.8,0,0,1,0-.29c.11-.74-.15-.91-.77-.49,0-.31.13-.72-.39-.78-.27-.19-.16-.42-.07-.66s0-.47-.32-.5c.16-.93-.24-1.36-1.16-1.37,0-.06,0-.12,0-.19s.33-.77-.38-.58V38.87l.24-.06a4,4,0,0,0,.8,1.76,4.24,4.24,0,0,0,1.74,1.12c.21.07.44.25.62,0a.68.68,0,0,0,0-.81,5.33,5.33,0,0,0-.49-.46.71.71,0,0,1-.08-.81.44.44,0,0,1,.57-.25c1.34.41,2.61-.11,3.89-.33a1.59,1.59,0,0,1,1.58.38.82.82,0,0,0,1,.17,15,15,0,0,1,5.66-.15c.9.1,1.79-.39,2.66.06.15.08.42,0,.47.23s-.22.31-.41.39C103.81,40.51,104.1,41.34,104.06,42Z"/><path class="cls-12" d="M84.83,31.55a16.65,16.65,0,0,1,1.94,1.17c0,.6-.72.19-.89.66a2.37,2.37,0,0,0,1.08.11h0c-.11.9.66.77,1.13.92s.4-.25.42-.53c.5.41,1.24.5,1.55,1.16a2,2,0,0,0-2.14.15c-.09.07-.38,0-.53-.12a3.79,3.79,0,0,0-2.77-.33,21.39,21.39,0,0,1-2.91-.08c0-.16.15-.34.1-.46a2.15,2.15,0,0,1,.37-2.52c-.62.23-1.09.44-1.45-.13a.19.19,0,0,1-.08-.16c.23-.61,1-1.29-.32-1.65a1.13,1.13,0,0,1-.7-1c0-.48.54-.44.79-.52.48-.16.82.43,1,.72.26.54,1.35.85.63,1.77a.58.58,0,0,0,.28.56.43.43,0,0,0,.51-.17c.43-.52.83-1.1,1.31,0,.06.14.5.09.51.44-.39,0-.81-.05-.77.56,0,.25,0,.55.34.58.57,0,.36-.51.53-.77A1.06,1.06,0,0,0,84.83,31.55Zm-2.32,1.24c-.36.21-.17.59-.2.91s0,.58.35.52.75-.27.66-.55S83.07,32.87,82.51,32.79Z"/><path class="cls-12" d="M93.57,37.18a3.88,3.88,0,0,0,1.55.2c.71.38,0,.71-.14.69C94.4,38,93.67,38.06,93.57,37.18Z"/><path class="cls-12" d="M90.85,35.44a1,1,0,0,1,.78.38C91.12,36.19,90.85,36.08,90.85,35.44Z"/><path class="cls-12" d="M90.08,35.05c.3,0,.7-.13.77.38C90.55,35.4,90.13,35.58,90.08,35.05Z"/><path class="cls-12" d="M96.68,35.05c0-.12,0-.24,0-.37h.37A.36.36,0,0,1,96.68,35.05Z"/><path class="cls-12" d="M97.64,34.27a.42.42,0,0,1,.2-.39A.39.39,0,0,1,97.64,34.27Z"/><path class="cls-9" d="M55.72,33.43c.35,1.11,0,2.12.39,3,0-1.64.58-3.19.72-4.81a9.75,9.75,0,0,1,.39,3.21c.37,3.51.2,7,.22,10.56,0,.69,0,.69-.38.69-.62,0-1.55.63-1.55-.68,0-3.89,0-7.77,0-11.65C55.52,33.74,55.58,33.69,55.72,33.43Z"/><path class="cls-9" d="M40.35,34.85a4.44,4.44,0,0,0,.14,1.57l.79-1.67.23,0V46.5H40l-.19-.2A5.26,5.26,0,0,0,40,44.78c0-3.68,0-7.37,0-11.05,0-1.25-.43-2.49,0-3.73.53.09.38.51.38.83C40.36,32.17,40.35,33.51,40.35,34.85Z"/><path class="cls-12" d="M39.73,18.24v3.37h-.1V18.16Z"/><path class="cls-12" d="M118,26.5c-1,.44-2,0-3,.26a9.6,9.6,0,0,1,3-.26Z"/><path class="cls-12" d="M105.57,26.23c0,.24-.23.27-.43.27s-.44,0-.41-.26.28-.32.52-.31S105.55,26,105.57,26.23Z"/><path class="cls-2" d="M64.82,34.66a30.45,30.45,0,0,0,0,3.7c0,.3.11.68-.36.77l0-3.44A1.21,1.21,0,0,1,64.82,34.66Z"/><path class="cls-2" d="M88.52,33.88c0,.28,0,.66-.42.53s-1.24,0-1.13-.92C87.48,33.65,88.16,33.12,88.52,33.88Z"/><path class="cls-2" d="M84.83,31.55a1.06,1.06,0,0,1-.1.37c-.17.26,0,.8-.53.77-.36,0-.33-.33-.34-.58,0-.61.38-.56.77-.56Z"/><path class="cls-2" d="M66.37,31.55a.33.33,0,0,1,0-.1c.1-.35-.25-.88.37-1a.28.28,0,0,1,.37.22c.08.55-.22.82-.73.92Z"/><path class="cls-2" d="M87,33.49a2.37,2.37,0,0,1-1.08-.11c.17-.47.9-.06.89-.66C87.05,32.92,86.94,33.22,87,33.49Z"/><path class="cls-2" d="M64.82,33.5v.58c-.2,0-.38-.08-.35-.34S64.66,33.52,64.82,33.5Z"/><path class="cls-2" d="M64.47,39.53l.07.1-.06,0A.2.2,0,0,1,64.47,39.53Z"/><path class="cls-7" d="M15.49,40.88a4.29,4.29,0,0,0,0-3.3c.54,0,.62-.57,1.05-1.1,0,1.37.06,2.53,0,3.68A.86.86,0,0,1,15.49,40.88Z"/><path class="cls-7" d="M3.06,43a6.77,6.77,0,0,0,5.57,2c.6-.06,1.2-.14,1.8-.21-.34.65-1,.45-1.53.49A7.06,7.06,0,0,1,3.56,44C3.24,43.68,3,43.42,3.06,43Z"/><path class="cls-7" d="M14.05,42.79,15.46,41A1.62,1.62,0,0,1,14.05,42.79Z"/><path class="cls-2" d="M65.45,38.14a4,4,0,0,1,.13,1.64.38.38,0,0,1-.47.37c-.34-.08-.23-.3,0-.5C65.41,39.26,65,38.69,65.45,38.14Z"/><path class="cls-2" d="M74.66,45.37A1.38,1.38,0,0,1,76,45.28C75.53,45.67,75.1,45.51,74.66,45.37Z"/><path class="cls-2" d="M67.58,42c.38.06.74,0,.72.5,0,.13-.06.29-.21.26C67.75,42.65,67.56,42.43,67.58,42Z"/><path class="cls-2" d="M71.59,45.08a.38.38,0,0,1,.45-.24s.08.13.06.16C72,45.19,71.79,45.17,71.59,45.08Z"/><path class="cls-2" d="M67.29,41.16c.08.1.17.16.18.24s-.09.11-.14.17-.13-.12-.15-.19S67.24,41.26,67.29,41.16Z"/><path class="cls-2" d="M67,40.8c-.06,0-.14,0-.16-.07s0-.1.06-.16.14,0,.16.07S67,40.75,67,40.8Z"/><path class="cls-2" d="M77.71,45c0-.06,0-.14.08-.16s.1,0,.16.06,0,.14-.08.16S77.77,45,77.71,45Z"/><path class="cls-2" d="M80.5,43.67l.16.07c0,.06,0,.14-.07.16s-.11,0-.16-.06S80.48,43.73,80.5,43.67Z"/><path class="cls-2" d="M66.37,42.82c-.25,0-.48-.09-.19-.4A.42.42,0,0,1,66.37,42.82Z"/><path class="cls-2" d="M65.4,41.64a.26.26,0,0,1-.15,0C65.32,41.5,65.36,41.57,65.4,41.64Z"/><path class="cls-2" d="M109.11,38.15l.17.2Z"/><path class="cls-10" d="M60.55,34.66c.56,1.06,1.68,1.8,1.56,3.24-.16,2,.16,4.06-.18,6.08a3.77,3.77,0,0,0,0,1.25c.2,1.16.13,1.28-1.07,1.5-.12,0-.24.09-.36.13a6.33,6.33,0,0,1,0-2C60.54,41.47,60.55,38.06,60.55,34.66Z"/><path class="cls-12" d="M60.55,34.66c0,3.4,0,6.81,0,10.21a6.33,6.33,0,0,0,0,2l-.34,0,0,0V33C60.56,33.58,60.12,34.21,60.55,34.66Z"/><path class="cls-12" d="M60.32,29.07v3.22h-.1V29.07Z"/><path class="cls-6" d="M125.6,30.4c-.6,0-.58-.38-.57-.79l.36,0Z"/><path class="cls-6" d="M126.17,32a.36.36,0,0,1-.36-.4C126.06,31.56,126.2,31.68,126.17,32Z"/><path class="cls-13" d="M89.69,45.93c.43,0,.79-.09,1,.54s1,.74,1.47,0a1,1,0,0,1,1.1-.55c1.61,0,3.23.06,4.84,0,1,0,1.4.26,1.26,1.25a.62.62,0,0,0,.16.61c.35-.23.21-.55.22-.81a1.1,1.1,0,0,1,1.66-1c.49.28-.08.77.1,1.14a.39.39,0,0,0-.2.38c-.41.08-.52.26-.2.58A6.27,6.27,0,0,1,100,50.49c-.25.24.1.3.1.47-.25.21-.53.4-.56.77a5.91,5.91,0,0,0-1.72,3.32,3,3,0,0,0-1.14,1.73c-.16.64-.44.62-.73.18a16.69,16.69,0,0,1-2-3.6c-.12-.38.07-.74.41-1.25-1.25.53-1.41-.13-1.73-1s-1.1-1.7-1.42-2.68a1.09,1.09,0,0,0-.38-1C89.9,47.38,90,46.52,89.69,45.93ZM93,47.83a1.07,1.07,0,0,0,0,1.24A1.2,1.2,0,0,0,93,47.83Zm6.74,1.35s-.12-.08-.16-.06,0,.1-.07.15.12.08.16.06S99.69,49.23,99.71,49.18Z"/><path class="cls-2" d="M87,41.45c.92,0,1.32.44,1.16,1.37h-.38c0-.33.09-.73-.45-.79C87,42,87,41.71,87,41.45Z"/><path class="cls-2" d="M88.52,44c.52.06.35.47.39.78C88.38,44.7,88.56,44.29,88.52,44Z"/><path class="cls-2" d="M86.58,40.68c.71-.19.25.39.38.58C86.57,41.24,86.57,41,86.58,40.68Z"/><path class="cls-10" d="M90.85,47.48a1.09,1.09,0,0,1,.38,1C90.79,48.25,90.85,47.85,90.85,47.48Z"/><path class="cls-2" d="M89.68,45.54v.38c-.1-.05-.27-.08-.29-.15S89.54,45.57,89.68,45.54Z"/><path class="cls-10" d="M87.75,42.82h.38c0,.14,0,.33-.23.29S87.8,42.92,87.75,42.82Z"/><path class="cls-5" d="M39.77,46.31l.19.2c-.07.11-.17.2-.29.08S39.66,46.38,39.77,46.31Z"/><path class="cls-9" d="M111.08,44.69l0,0,0,0,0,.06Z"/><path class="cls-10" d="M101.14,48.06c-.32-.32-.21-.5.2-.58Z"/><path class="cls-6" d="M125,29.61a.35.35,0,0,1-.38-.39A.35.35,0,0,1,125,29.61Z"/><path class="cls-6" d="M111.74,29.26a10.22,10.22,0,0,0-2.23,4.62c-.51-.47,0-1,0-1.44a4.28,4.28,0,0,1,1.38-2.88A.83.83,0,0,1,111.74,29.26Z"/><path class="cls-2" d="M82.51,32.79c.56.08.71.55.81.88s-.36.5-.66.55-.37-.27-.35-.52S82.15,33,82.51,32.79Z"/><path class="cls-10" d="M93,47.83a1.2,1.2,0,0,1,0,1.24A1.07,1.07,0,0,1,93,47.83Z"/><path class="cls-10" d="M99.71,49.18s0,.14-.07.15-.11,0-.16-.06,0-.14.07-.15S99.66,49.15,99.71,49.18Z"/></g></g></svg>