<svg width="76" height="35" viewBox="0 0 76 35" fill="none" xmlns="http://www.w3.org/2000/svg">
<path d="M9.04295 16.3156C8.74731 16.6923 8.60017 17.1787 8.60017 17.7754C8.60017 18.3605 8.74186 18.8299 9.02592 19.1834C9.20712 19.4123 9.49732 19.5697 9.80999 19.6548V15.8346C9.50413 15.9259 9.22347 16.0867 9.04295 16.3156ZM9.04295 16.3156C8.74731 16.6923 8.60017 17.1787 8.60017 17.7754C8.60017 18.3605 8.74186 18.8299 9.02592 19.1834C9.20712 19.4123 9.49732 19.5697 9.80999 19.6548V15.8346C9.50413 15.9259 9.22347 16.0867 9.04295 16.3156ZM9.04295 16.3156C8.74731 16.6923 8.60017 17.1787 8.60017 17.7754C8.60017 18.3605 8.74186 18.8299 9.02592 19.1834C9.20712 19.4123 9.49732 19.5697 9.80999 19.6548V15.8346C9.50413 15.9259 9.22347 16.0867 9.04295 16.3156ZM9.04295 16.3156C8.74731 16.6923 8.60017 17.1787 8.60017 17.7754C8.60017 18.3605 8.74186 18.8299 9.02592 19.1834C9.20712 19.4123 9.49732 19.5697 9.80999 19.6548V15.8346C9.50413 15.9259 9.22347 16.0867 9.04295 16.3156ZM17.5826 17.8789C17.5826 16.7951 16.9191 15.8667 15.9763 15.477C16.1568 15.1235 16.2583 14.7229 16.2583 14.2992C16.2583 12.8646 15.0948 11.7011 13.6602 11.7011C13.3291 11.7011 13.013 11.7631 12.7215 11.8761C12.323 10.9524 11.404 10.3066 10.3345 10.3066C9.26162 10.3066 8.34063 10.9572 7.94417 11.885C7.64716 11.7665 7.32222 11.7011 6.98298 11.7011C6.3808 11.7011 5.82561 11.9061 5.38555 12.2501C5.21525 12.4088 5.05244 12.5757 4.89713 12.7501C4.5756 13.1827 4.38486 13.7188 4.38486 14.2992C4.38486 14.727 4.4884 15.1303 4.67097 15.4859C3.73976 15.881 3.08648 16.804 3.08648 17.8789C3.08648 18.8755 3.64779 19.7414 4.47137 20.1766C4.41483 20.3892 4.38554 20.6119 4.38554 20.8422C4.38554 21.4634 4.60353 22.0336 4.96661 22.4805C4.96661 22.4812 4.96729 22.4819 4.96865 22.4825C5.07288 22.597 5.18119 22.7073 5.29223 22.815C5.29291 22.8156 5.29359 22.8163 5.29495 22.817C5.74932 23.206 6.33856 23.4403 6.98366 23.4403C7.32154 23.4403 7.64443 23.3763 7.94076 23.2584C8.3345 24.1917 9.2589 24.847 10.3359 24.847C11.4095 24.847 12.3311 24.1958 12.7269 23.2666C13.0171 23.379 13.3318 23.4403 13.6609 23.4403C15.0962 23.4403 16.259 22.2768 16.259 20.8422C16.259 20.616 16.2304 20.3974 16.1759 20.1889C17.011 19.757 17.5826 18.8851 17.5826 17.8789ZM11.902 20.6262C11.6445 20.7782 11.3427 20.8797 10.9987 20.9321V21.3722C10.9987 21.7005 10.733 21.9662 10.4047 21.9662C10.0763 21.9662 9.81067 21.6998 9.81067 21.3722V20.9246C9.1717 20.817 8.64172 20.5288 8.21869 20.0615C7.69144 19.4764 7.42781 18.723 7.42781 17.802C7.42781 16.8462 7.69689 16.0669 8.2364 15.4641C8.65739 14.994 9.1826 14.7038 9.81135 14.5942V14.2685C9.81135 13.9402 10.0777 13.6745 10.4054 13.6745C10.5695 13.6745 10.718 13.7413 10.8257 13.8482C10.9333 13.9559 10.9994 14.1044 10.9994 14.2685V14.5853C11.2977 14.6316 11.5648 14.7161 11.7984 14.8387C12.1227 15.0124 12.2855 15.2386 12.2855 15.5165C12.2855 15.6848 12.233 15.8265 12.1288 15.9423C12.0246 16.0581 11.8972 16.116 11.7467 16.116C11.6656 16.116 11.5464 16.0812 11.3904 16.0117C11.2542 15.9436 11.124 15.8885 10.9994 15.8462V19.6535C11.1411 19.6174 11.2773 19.5676 11.4074 19.505C11.5811 19.4239 11.7146 19.383 11.8066 19.383C12.1717 19.383 12.3543 19.5738 12.3543 19.9566C12.3543 20.2237 12.2031 20.4471 11.902 20.6262ZM9.04295 16.3156C8.74731 16.6923 8.60017 17.1787 8.60017 17.7754C8.60017 18.3605 8.74186 18.8299 9.02592 19.1834C9.20712 19.4123 9.49732 19.5697 9.80999 19.6548V15.8346C9.50413 15.9259 9.22347 16.0867 9.04295 16.3156ZM9.04295 16.3156C8.74731 16.6923 8.60017 17.1787 8.60017 17.7754C8.60017 18.3605 8.74186 18.8299 9.02592 19.1834C9.20712 19.4123 9.49732 19.5697 9.80999 19.6548V15.8346C9.50413 15.9259 9.22347 16.0867 9.04295 16.3156ZM9.04295 16.3156C8.74731 16.6923 8.60017 17.1787 8.60017 17.7754C8.60017 18.3605 8.74186 18.8299 9.02592 19.1834C9.20712 19.4123 9.49732 19.5697 9.80999 19.6548V15.8346C9.50413 15.9259 9.22347 16.0867 9.04295 16.3156Z" fill="#1896FE"/>
<path d="M19.6493 17.5771C19.6629 14.9292 21.8823 12.7766 24.5567 12.7637C25.7332 12.7637 26.8033 13.1513 27.6453 13.8066C27.9661 14.0743 28.02 14.5423 27.7788 14.8761C27.5111 15.2106 27.0165 15.2637 26.7093 15.0232C26.1208 14.5416 25.3857 14.2875 24.5567 14.2875C23.6344 14.2875 22.7781 14.6622 22.15 15.2501C21.5485 15.8652 21.1738 16.6677 21.1738 17.5764C21.1738 18.4858 21.5485 19.3148 22.15 19.9027C22.7788 20.4913 23.6344 20.8653 24.5567 20.8653C25.3857 20.8653 26.1078 20.6112 26.7093 20.1296C27.0165 19.902 27.5118 19.9559 27.7788 20.2767C28.0193 20.6112 27.9661 21.0921 27.6453 21.3462C26.8026 22.0015 25.7332 22.3891 24.5567 22.3891C21.8823 22.3905 19.6622 20.2379 19.6493 17.5771Z" fill="#1896FE"/>
<path d="M28.1371 19.0478C28.1508 17.2289 29.5677 15.7051 31.3994 15.7051C33.1379 15.7051 34.5153 17.0021 34.6222 18.8073C34.6222 18.8209 34.6222 18.8475 34.6222 18.8741C34.6222 18.9006 34.6222 18.9674 34.6086 18.9946C34.5684 19.3155 34.2878 19.5294 33.9131 19.5294H29.661C29.7278 19.8366 29.8749 20.1847 30.1154 20.4122C30.396 20.7331 30.9308 20.9735 31.3988 21.0137C31.8804 21.0539 32.4553 20.9333 32.7891 20.6793C33.0698 20.385 33.6181 20.4252 33.7918 20.6391C33.9656 20.8264 34.0991 21.2276 33.7918 21.5083C33.1365 22.1098 32.3477 22.3911 31.3981 22.3911C29.5677 22.3775 28.1501 20.8666 28.1371 19.0478ZM29.5942 18.3924H33.3784C33.2448 17.8577 32.5629 17.0689 31.3994 16.9748C30.2632 17.0287 29.7012 17.8441 29.5942 18.3924Z" fill="#1896FE"/>
<path d="M41.55 21.6684C41.55 22.056 41.2292 22.3905 40.828 22.3905C40.4669 22.3905 40.1863 22.1364 40.1195 21.8156C39.6113 22.163 38.9696 22.3905 38.3007 22.3905C36.4955 22.3905 35.0513 20.866 35.0513 19.0608C35.0513 17.229 36.4955 15.7044 38.3007 15.7044C38.956 15.7044 39.5977 15.9183 40.0923 16.2658V13.7521C40.0923 13.3645 40.4131 13.03 40.828 13.03C41.2292 13.03 41.55 13.3645 41.55 13.7521V19.0471C41.55 19.0471 41.55 19.0471 41.55 19.0608V21.6684ZM38.3007 17.1622C37.8191 17.1622 37.3783 17.3625 37.0439 17.7106C36.7094 18.0451 36.5091 18.526 36.5091 19.0614C36.5091 19.5696 36.7094 20.0512 37.0439 20.385C37.3783 20.7324 37.8191 20.9334 38.3007 20.9334C38.7952 20.9334 39.223 20.7331 39.5575 20.385C39.892 20.0505 40.0923 19.5696 40.0923 19.0614C40.0923 18.5267 39.892 18.0451 39.5575 17.7106C39.223 17.3632 38.7952 17.1622 38.3007 17.1622Z" fill="#1896FE"/>
<path d="M43.736 14.0333C43.736 14.4345 43.4288 14.769 43.014 14.769C42.6127 14.769 42.2919 14.4345 42.2919 14.0333V13.7526C42.2919 13.3514 42.6127 13.0305 43.014 13.0305C43.4288 13.0305 43.736 13.3514 43.736 13.7526V14.0333ZM43.736 16.4536V21.6682C43.736 22.0695 43.4288 22.3903 43.014 22.3903C42.6127 22.3903 42.2919 22.0695 42.2919 21.6682V16.4536C42.2919 16.0258 42.6127 15.7179 43.014 15.7179C43.4288 15.7179 43.736 16.0258 43.736 16.4536Z" fill="#1896FE"/>
<path d="M50.9344 21.2809C51.0679 21.6685 50.854 22.0833 50.4664 22.2168C50.4133 22.2305 50.3056 22.257 50.1721 22.257C50.1721 22.257 50.1721 22.257 50.1585 22.257C50.025 22.257 49.824 22.2305 49.6367 22.1099C49.463 22.0029 49.3159 21.8292 49.2089 21.6419C49.0216 21.2543 48.9282 20.7727 48.9282 20.0377C48.9146 19.7836 48.8615 19.6099 48.7675 19.4627C48.6871 19.3156 48.527 19.1821 48.3662 19.0751C48.0856 18.8878 47.7375 18.7808 47.6176 18.7543H46.0399V21.6562C46.0399 22.0574 45.7055 22.3919 45.2913 22.3919C44.8764 22.3919 44.5556 22.0574 44.5556 21.6562V13.7665C44.5556 13.3516 44.8764 13.0308 45.2913 13.0308C45.2913 13.0308 45.2913 13.0308 45.3049 13.0308H47.685C49.2763 13.0308 50.5468 14.3142 50.5468 15.9055C50.5468 16.7883 50.1456 17.5635 49.5039 18.0983C49.6776 18.2318 49.8383 18.3925 49.9718 18.5928C50.2396 18.9804 50.4133 19.4757 50.4133 20.037C50.3997 20.4382 50.4398 20.6923 50.4664 20.8258C50.6803 20.8933 50.854 21.0533 50.9344 21.2809ZM49.0624 15.9055C49.0624 15.1296 48.4473 14.5151 47.685 14.5151H46.0406V17.2699H47.685C48.4473 17.2692 49.0624 16.6541 49.0624 15.9055Z" fill="#1896FE"/>
<path d="M57.4984 19.0616V21.6822C57.4984 22.0698 57.1776 22.3906 56.79 22.3906C56.4426 22.3906 56.1748 22.1365 56.0945 21.8157C55.5863 22.1767 54.9848 22.3906 54.3158 22.3906C53.4064 22.3906 52.6176 22.016 52.0426 21.4145C51.4677 20.7993 51.1332 19.9703 51.1332 19.0609C51.1332 18.1385 51.4677 17.3095 52.0426 16.7073C52.6176 16.0922 53.4064 15.7046 54.3158 15.7046C54.9841 15.7046 55.5863 15.9321 56.0945 16.2932C56.1748 15.9587 56.4419 15.7046 56.79 15.7046C57.1776 15.7046 57.4984 16.0254 57.4984 16.4267V19.0616ZM56.0808 19.0616C56.0808 18.5003 55.8806 18.0186 55.5597 17.6842C55.2389 17.3231 54.7838 17.1358 54.3158 17.1358C53.8342 17.1358 53.3799 17.3231 53.072 17.6842C52.7511 18.0186 52.5638 18.4996 52.5638 19.0616C52.5638 19.6099 52.7511 20.0909 53.072 20.439C53.3792 20.7734 53.8342 20.9608 54.3158 20.9608C54.7838 20.9608 55.2382 20.7734 55.5597 20.439C55.8806 20.0909 56.0808 19.6093 56.0808 19.0616Z" fill="#1896FE"/>
<path d="M61.5524 16.4402C61.5524 16.8414 61.2049 17.1759 60.8037 17.1759H60.4692V20.9068C60.8841 20.9068 61.2049 21.2413 61.2049 21.6555C61.2049 22.0696 60.8841 22.3912 60.4692 22.3912C59.6538 22.3912 58.9849 21.7229 58.9849 20.9068V17.1759H58.5973C58.1824 17.1759 57.8616 16.8414 57.8616 16.4402C57.8616 16.0253 58.1824 15.7044 58.5973 15.7044H58.9849V13.7657C58.9849 13.3509 59.3194 13.03 59.7335 13.03C60.1477 13.03 60.4692 13.3509 60.4692 13.7657V15.7044H60.8037C61.2043 15.7051 61.5524 16.026 61.5524 16.4402Z" fill="#1896FE"/>
<path d="M61.6102 19.0478C61.6239 17.2289 63.0408 15.7051 64.8725 15.7051C66.611 15.7051 67.9884 17.0021 68.0953 18.8073C68.0953 18.8209 68.0953 18.8475 68.0953 18.8741C68.0953 18.9006 68.0953 18.9674 68.0817 18.9946C68.0415 19.3155 67.7608 19.5294 67.3862 19.5294H63.1341C63.2008 19.8366 63.348 20.1847 63.5885 20.4122C63.8691 20.7331 64.4039 20.9735 64.8718 21.0137C65.3535 21.0539 65.9284 20.9333 66.2622 20.6793C66.5428 20.385 67.0912 20.4252 67.2649 20.6391C67.4386 20.8264 67.5722 21.2276 67.2649 21.5083C66.6096 22.1098 65.8208 22.3911 64.8712 22.3911C63.0408 22.3775 61.6239 20.8666 61.6102 19.0478ZM63.068 18.3924H66.8521C66.7186 17.8577 66.0367 17.0689 64.8732 16.9748C63.7363 17.0287 63.175 17.8441 63.068 18.3924Z" fill="#1896FE"/>
<path d="M68.4639 20.4783C68.7044 20.1574 69.1724 20.1173 69.4666 20.3713C69.8141 20.6656 70.4162 20.9729 70.9374 20.9599C71.2984 20.9599 71.6329 20.8393 71.8468 20.7058C72.0341 20.5451 72.0872 20.4115 72.0872 20.3046C72.0872 20.2378 72.0736 20.2113 72.0471 20.1711C72.0334 20.1309 71.9803 20.0777 71.8733 20.0103C71.686 19.8768 71.2848 19.7296 70.8039 19.6356H70.7902C70.3754 19.5553 69.9748 19.4483 69.6267 19.2882C69.2657 19.1145 68.9448 18.8734 68.7044 18.513C68.5572 18.2725 68.4768 17.9783 68.4768 17.6704C68.4768 17.0552 68.8243 16.5341 69.2657 16.1996C69.7337 15.8788 70.295 15.7051 70.9101 15.7051C71.8325 15.7051 72.4878 16.1465 72.9156 16.4408C73.2364 16.6547 73.3305 17.0961 73.1295 17.4306C72.9156 17.7514 72.4742 17.8454 72.1397 17.6179C71.7119 17.3373 71.3372 17.1234 70.9094 17.1234C70.575 17.1234 70.2807 17.2303 70.107 17.3638C69.9333 17.4844 69.8931 17.6043 69.8931 17.671C69.8931 17.7242 69.8931 17.7378 69.9196 17.778C69.9333 17.8046 69.9728 17.8584 70.0668 17.9115C70.2405 18.0321 70.5879 18.152 71.043 18.2324L71.0566 18.246H71.0702C71.5116 18.3264 71.9258 18.4463 72.3141 18.6336C72.6751 18.7944 73.0362 19.0484 73.2637 19.4224C73.4245 19.6901 73.5178 19.9974 73.5178 20.3053C73.5178 20.9606 73.1567 21.509 72.6751 21.8564C72.1935 22.1909 71.592 22.3911 70.9367 22.3911C69.8938 22.3775 69.0913 21.8966 68.5565 21.4688C68.2629 21.2276 68.2228 20.7726 68.4639 20.4783Z" fill="#1896FE"/>
</svg>
