<svg width="29" height="30" viewBox="0 0 29 30" fill="none" xmlns="http://www.w3.org/2000/svg">
<g clip-path="url(#clip0_294_1344)">
<g clip-path="url(#clip1_294_1344)">
<g clip-path="url(#clip2_294_1344)">
<path d="M20.8606 15.0245H28.8231V21.2716C26.7825 21.4787 24.8759 22.3838 23.4252 23.8338C21.9746 25.2838 21.0687 27.19 20.8606 29.2305H14.6136C14.7815 26.3597 15.7697 23.5974 17.4608 21.2716H12.8518C11.6304 23.5509 9.84527 25.4792 7.66675 26.8725C5.48822 28.2659 2.989 29.0777 0.407547 29.2305L0.407547 22.987C2.44797 22.7778 4.35392 21.8716 5.80429 20.4212C7.25465 18.9709 8.1608 17.0649 8.37006 15.0245H0.407547L0.407547 8.77746C2.44864 8.56997 4.35558 7.6644 5.80629 6.21369C7.257 4.76298 8.16257 2.85604 8.37006 0.814941L14.6136 0.814941C14.4477 3.68595 13.4624 6.44926 11.7743 8.77746H16.3833C17.6044 6.4985 19.3888 4.57022 21.5664 3.17638C23.744 1.78253 26.2423 0.969561 28.8231 0.814941V7.06199C26.7816 7.26834 24.874 8.17355 23.4231 9.62448C21.9722 11.0754 21.067 12.983 20.8606 15.0245Z" fill="#3E02B1"/>
</g>
</g>
</g>
<defs>
<clipPath id="clip0_294_1344">
<rect width="28.4156" height="28.4156" fill="white" transform="translate(0.407547 0.814941)"/>
</clipPath>
<clipPath id="clip1_294_1344">
<rect width="28.4156" height="28.4156" fill="white" transform="translate(0.407547 0.814941)"/>
</clipPath>
<clipPath id="clip2_294_1344">
<rect width="28.4156" height="28.4156" fill="white" transform="translate(0.407547 0.814941)"/>
</clipPath>
</defs>
</svg>
