<svg width="77" height="12" viewBox="0 0 77 12" fill="none" xmlns="http://www.w3.org/2000/svg">
<path d="M0.82312 0.863525L4.34134 0.863525V8.5504H12.1169V11.1225H0.82312L0.82312 0.863525Z" fill="black"/>
<path d="M16.4038 2.96263H13.063V0.863525L16.4038 0.863525V2.96263ZM16.4038 11.0634H13.063V3.67219H16.4038V11.0634Z" fill="black"/>
<path d="M17.5274 11.0339V3.6427H20.8386V4.94355C21.8734 3.96791 23.1743 3.49487 24.6821 3.49487H24.7708C26.3377 3.49487 27.4021 3.99748 27.9934 4.97312C29.0577 3.99748 30.4177 3.49487 32.0733 3.49487H32.1916C33.4333 3.49487 34.3498 3.79052 34.9707 4.35226C35.5915 4.91399 35.9167 5.59398 35.9167 6.39223V11.0635H32.5463V7.36788C32.5463 6.15571 31.9255 5.53485 30.7133 5.53485C30.0038 5.53485 29.442 5.71224 29.0281 6.09658C28.6142 6.48093 28.4073 6.95397 28.4073 7.54526V11.0339H25.0369V7.36788C25.0369 6.15571 24.416 5.53485 23.1743 5.53485C22.4647 5.53485 21.903 5.71224 21.4891 6.09658C21.0752 6.48093 20.8682 6.95397 20.8682 7.54526V11.0339H17.5274Z" fill="black"/>
<path d="M48.7775 8.37318C48.7775 8.6097 48.7479 8.84622 48.6888 9.05317C48.6296 9.28969 48.4523 9.52621 48.2157 9.79229C47.9792 10.0584 47.654 10.2949 47.2697 10.4723C46.8853 10.6792 46.3531 10.8271 45.6436 10.9749C44.934 11.1227 44.1358 11.1818 43.2193 11.1818H42.3619C41.3271 11.1818 40.4106 11.0636 39.6715 10.8566C38.9028 10.6497 38.3115 10.354 37.8976 9.99925C37.4837 9.64447 37.1585 9.23056 36.9811 8.81665C36.7741 8.37318 36.6854 7.90014 36.6854 7.39754V7.10189C36.6854 6.59928 36.7741 6.15581 36.9515 5.71234C37.1289 5.29843 37.4245 4.88452 37.8384 4.52974C38.2524 4.17496 38.8141 3.87931 39.5828 3.67236C40.3515 3.4654 41.2384 3.37671 42.2732 3.37671H43.1897C46.9444 3.37671 48.807 4.70713 48.807 7.36797V7.87058H39.9671C40.1741 8.81665 41.1202 9.31926 42.8054 9.31926C43.2193 9.31926 43.6036 9.28969 43.9288 9.23056C44.254 9.17143 44.4906 9.1123 44.6975 9.02361C44.8749 8.93491 45.0227 8.84622 45.141 8.75752C45.2592 8.66883 45.3479 8.58013 45.3775 8.521C45.4071 8.46187 45.4366 8.40274 45.4366 8.34361L48.7775 8.37318ZM42.7462 5.09147C41.2088 5.09147 40.3219 5.50538 40.0558 6.36276H45.4662C45.2001 5.50538 44.2836 5.09147 42.7462 5.09147Z" fill="black"/>
<path d="M57.7059 0.863525C58.2381 0.863525 58.5338 1.01135 58.859 1.60265L64.2694 10.8565C64.3581 11.0043 64.2989 11.093 64.1511 11.093H63.0276C62.9094 11.093 62.8207 11.0634 62.7911 10.9747L61.4903 8.72779H53.5373L52.2364 10.9747C52.1773 11.0634 52.1182 11.093 51.9999 11.093H50.8469C50.6991 11.093 50.6399 11.0043 50.7286 10.8565L56.1094 1.60265C56.4347 1.01135 56.7303 0.863525 57.1738 0.863525H57.7059ZM54.1582 7.63389H60.8398L57.7355 2.28264C57.6764 2.19395 57.6468 2.19395 57.5581 2.19395H57.4694C57.3807 2.19395 57.3512 2.19395 57.292 2.28264L54.1582 7.63389Z" fill="black"/>
<path d="M73.1093 0.863525C75.2971 0.863525 76.1545 1.8983 76.1545 3.82002V4.5887C76.1545 6.33303 75.4745 7.33824 73.7302 7.51563L76.5388 10.8269C76.598 10.9156 76.5684 11.093 76.4206 11.093H75.2675C75.1197 11.093 75.031 11.0634 74.9719 10.9747L72.2815 7.63389H66.3685V10.886C66.3685 11.0043 66.3094 11.093 66.1615 11.093H65.1563C65.0381 11.093 64.9494 11.0339 64.9494 10.886V1.307C64.9494 1.01135 65.0972 0.863525 65.3929 0.863525L73.1093 0.863525ZM66.3685 6.51042H72.8728C74.2623 6.51042 74.7649 5.88956 74.7649 4.64783V4.02697C74.7649 2.78524 74.2623 2.16438 72.8728 2.16438H66.5163C66.3981 2.16438 66.3685 2.19395 66.3685 2.31221V6.51042Z" fill="black"/>
</svg>
