<svg xmlns="http://www.w3.org/2000/svg" viewBox="0 0 273 69.99"><defs><style>.cls-1{fill:none;stroke:#000;stroke-miterlimit:10;stroke-width:6.58px;}.cls-2{fill:#006b50;}.cls-3{fill:#fdba3c;}.cls-4{fill:#cd4f22;}.cls-5{font-size:63.94px;font-family:Quicksand-Bold, Quicksand;font-weight:700;letter-spacing:-0.1em;}.cls-6{letter-spacing:-0.12em;}.cls-7{letter-spacing:-0.1em;}.cls-8{letter-spacing:-0.13em;}.cls-9{letter-spacing:-0.1em;}</style></defs><g id="Layer_2" data-name="Layer 2"><g id="Layer_1-2" data-name="Layer 1"><path class="cls-1" d="M3.29,62.52V25C3.29,13,9.8,3.29,17.84,3.29c4,0,7.65,2.43,10.29,6.36A27.81,27.81,0,0,1,32.39,25V62.52"/><rect class="cls-2" x="9.99" y="27.04" width="3.04" height="35.48"/><rect class="cls-3" x="16.33" y="27.04" width="3.04" height="35.48"/><rect class="cls-4" x="22.67" y="27.04" width="3.04" height="35.48"/><path class="cls-1" d="M42.28,62.52V25c0-12,6.51-21.69,14.55-21.69,4,0,7.65,2.43,10.29,6.36A27.81,27.81,0,0,1,71.38,25V62.52"/><rect class="cls-4" x="48.98" y="27.04" width="3.04" height="35.48"/><rect class="cls-3" x="55.32" y="27.04" width="3.04" height="35.48"/><rect class="cls-2" x="61.66" y="27.04" width="3.04" height="35.48"/><text class="cls-5" transform="translate(78.94 57.97)">y<tspan class="cls-6" x="31.2" y="0">t</tspan><tspan class="cls-7" x="49.11" y="0">ho</tspan><tspan class="cls-8" x="115.48" y="0">p</tspan><tspan class="cls-9" x="149.3" y="0">ia</tspan></text></g></g></svg>