<svg width="123" height="26" viewBox="0 0 123 26" fill="none" xmlns="http://www.w3.org/2000/svg">
<path d="M122.723 11.6688C122.96 10.9172 123 9.9679 123 9.37457C123 4.58838 119.44 1.34485 114.733 1.34485C110.065 1.34485 106.229 4.7466 106.229 9.53279C106.229 14.319 109.788 18.3536 114.733 18.3536C117.62 18.3536 120.231 16.9296 121.774 14.7145L117.937 12.183C117.264 13.1719 116.038 14.0025 114.654 14.0025C112.755 14.0025 111.489 12.9346 111.133 11.6688H122.723ZM114.654 5.89371C115.999 5.93326 117.502 6.76392 117.897 8.14836H111.173C111.648 6.80348 113.111 5.85415 114.654 5.89371Z" fill="black"/>
<path d="M99.0345 9.77016C98.995 12.0248 98.9554 13.5279 99.0345 14.3981C99.1927 16.1386 99.4301 17.5626 100.498 19.3425L105.047 17.1274C104.612 16.2572 104.335 15.1892 104.256 14.0817C104.137 12.5786 104.295 10.3239 104.295 8.74172C104.295 3.95553 101.012 1.38444 96.6612 1.38444C95.2372 1.38444 94.1692 1.54266 92.9826 2.2151C92.8243 1.62177 92.7057 0.909772 92.0332 0L87.4844 2.2151C88.0777 3.16443 88.4337 5.02352 88.4337 6.92218V17.9186H93.6155V9.77016C93.6155 7.83195 94.723 6.52663 96.4239 6.52663C98.1643 6.52663 99.0345 7.71328 99.0345 9.77016Z" fill="black"/>
<path d="M86.0258 11.6688C86.2631 10.9172 86.3027 9.9679 86.3027 9.37457C86.3027 4.58838 82.7427 1.34485 78.0356 1.34485C73.3681 1.34485 69.5312 4.7466 69.5312 9.53279C69.5312 14.319 73.0912 18.3536 78.0356 18.3536C80.9232 18.3536 83.5338 16.9296 85.0765 14.7145L81.2396 12.183C80.5672 13.1719 79.341 14.0025 77.9565 14.0025C76.0579 14.0025 74.7921 12.9346 74.4361 11.6688H86.0258ZM77.9565 5.89371C79.3014 5.93326 80.8045 6.76392 81.2001 8.14836H74.4757C74.9503 6.80348 76.4139 5.85415 77.9565 5.89371Z" fill="black"/>
<path d="M64.6197 0C63.9868 1.02844 63.8681 1.30532 63.5913 2.49198C62.365 1.70088 61.0202 1.30532 59.5171 1.30532C58.6864 1.30532 57.8953 1.38444 57.1042 1.66132C53.8211 2.53154 51.25 5.18174 51.25 9.13727C51.25 14.4377 54.7309 16.8506 59.5171 16.8506C60.2686 16.8506 61.7322 16.6528 62.721 15.8617V18.1163C62.6815 19.7776 61.2179 21.2016 59.5962 21.2016C57.4997 21.2016 56.59 19.6985 56.1944 18.5119L51.6456 20.727C52.1598 23.219 54.81 25.9878 59.7148 25.9878C64.0264 25.9878 67.9028 22.4674 67.9028 18.1163V6.13107C67.9819 4.54886 68.6543 3.04576 69.1685 2.2151L64.6197 0ZM59.3588 12.8555C57.2624 12.8555 55.7989 11.3128 55.7989 9.37461C55.7989 7.47595 57.5393 5.89374 59.3588 5.89374C61.1388 5.89374 62.8001 7.47595 62.8001 9.37461C62.8001 11.3128 61.3762 12.8555 59.3588 12.8555Z" fill="black"/>
<path d="M49.8705 11.6688C50.1079 10.9172 50.1474 9.9679 50.1474 9.37457C50.1474 4.58838 46.5874 1.34485 41.8804 1.34485C37.2128 1.34485 33.376 4.7466 33.376 9.53279C33.376 14.319 36.936 18.3536 41.8804 18.3536C44.7679 18.3536 47.3786 16.9296 48.9212 14.7145L45.0843 12.183C44.4119 13.1719 43.1857 14.0025 41.8013 14.0025C39.9026 14.0025 38.6368 12.9346 38.2808 11.6688H49.8705ZM41.8013 5.89371C43.1461 5.93326 44.6492 6.76392 45.0448 8.14836H38.3204C38.7951 6.80348 40.2586 5.85415 41.8013 5.89371Z" fill="black"/>
<path d="M34.4635 1.34485H29.2027C28.7676 1.34485 28.5302 1.46351 28.3324 1.85907L25.524 5.53771L22.676 1.89862C22.4783 1.50307 22.2014 1.34485 21.7663 1.34485H16.545L21.4894 8.38569C21.9245 9.13724 21.9245 9.88879 21.4498 10.6403L16.1494 17.9185H21.2916C21.7663 17.9185 22.0827 17.7603 22.3596 17.3647L25.524 13.0928L28.6489 17.4043C28.8862 17.7603 29.2027 17.9185 29.6378 17.9185H34.8195L29.5191 10.6403C29.0444 9.88879 29.0444 9.13724 29.5191 8.38569L34.4635 1.34485Z" fill="black"/>
<path d="M8.82083 6.13104C10.9568 6.13104 12.8159 7.95058 12.8159 10.2052C12.8159 12.4599 10.9568 14.2003 8.82083 14.2003C6.68485 14.2003 4.82575 12.4599 4.82575 10.2052C4.82575 7.95058 6.68485 6.13104 8.82083 6.13104ZM17.5626 10.2052C17.5626 5.30038 13.5675 1.34485 8.82083 1.34485C4.03464 1.34485 0 5.30038 0 10.2052C0 15.0705 3.59953 18.7492 8.82083 18.7492C14.0817 18.7492 17.5626 15.0705 17.5626 10.2052Z" fill="black"/>
</svg>
