<svg xmlns="http://www.w3.org/2000/svg" viewBox="0 0 326.65 326.65"><defs><style>.cls-1{fill:#e28118;}.cls-2{fill:#fff;}</style></defs><title>Colored</title><g id="Layer_2" data-name="Layer 2"><g id="Layer_1-2" data-name="Layer 1"><g id="Colored"><circle id="Circle" class="cls-1" cx="163.33" cy="163.33" r="163.33"/><g id="Inner"><path class="cls-2" d="M149.56,15.87h0a26.43,26.43,0,0,0-25.75,20.46L97.9,137.54H53.74l-6.53,16.88a63.55,63.55,0,0,0-2.91,36,22.58,22.58,0,0,0,16.29,17.16h0a22.59,22.59,0,0,0,23.78-8.18h0a39.78,39.78,0,0,0,8-26.1l-.26-4.8A22.54,22.54,0,0,1,94,158.26l4-10.8h54.28l23-99.18A26.43,26.43,0,0,0,149.56,15.87Z"/><path class="cls-2" d="M225,33.06h0a26.43,26.43,0,0,0-25.75,20.46L170.82,164.65l-46.95-1.32S95.11,206.47,119.74,226c13.39,7.27,26.94,7.77,39.34-6.61,6.45-8.44,8.93-32.4,9.76-41.66,5.78-11.24,33.25-6,33.26-6l1.2.27a20.67,20.67,0,0,0,14.82-2.23l1.15-.65A20.69,20.69,0,0,0,229.11,156l21.66-90.48A26.43,26.43,0,0,0,225,33.06Z"/><path class="cls-2" d="M322.53,126.73l-45.09,2a23.64,23.64,0,0,0-16.86,8.17l-.9,1.05A23.49,23.49,0,0,0,254,154l0,1.2c0,7.57-2.05,27.64-10.89,30.74a230.85,230.85,0,0,0-23-1.33c-10.33,0-17.8,1.1-22.3,3.34-16.06,9.19-21.29,23.11-15.51,41.35a1.33,1.33,0,0,0,.13.33c5.69,11,16.51,16.57,32.12,16.57,9.83,0,19.64-2.3,26.13-4.22a17.12,17.12,0,0,0,12-13.61l6.24-37.8L325,186.7a165.25,165.25,0,0,0,1.67-23.37A163.4,163.4,0,0,0,322.53,126.73Z"/><circle class="cls-2" cx="173.46" cy="274.08" r="24.8"/></g></g></g></g></svg>